ISO-10303-21;
HEADER;
/* Generated by software containing ST-Developer
 * from STEP Tools, Inc. (www.steptools.com) 
 */
/* OPTION: using custom renumber hook */

FILE_DESCRIPTION(
/* description */ ('STEP AP242 Edition 2',
'CAx-IF Rec.Pracs.---Representation and Presentation of Product Manufa
cturing Information (PMI)---4.0---2014-10-13',
'CAx-IF Rec.Pracs.---3D Tessellated Geometry---0.4---2014-09-14','2;1',
'CAx-IF Rec.Pracs.---User Defined Attributes---1.5---2016-08-15'),
/* implementation_level */ '2;1');

FILE_NAME(
/* name */ 'LimeArm MKI - Support Level Link',
/* time_stamp */ '2026-05-27T02:34:59Z',
/* author */ (''),
/* organization */ (''),
/* preprocessor_version */ 'ST-DEVELOPER v20',
/* originating_system */ 'ONSHAPE BY PTC INC, 1.215',
/* authorisation */ '  ');

FILE_SCHEMA (('AP242_MANAGED_MODEL_BASED_3D_ENGINEERING_MIM_LF { 1 0 10303 442 3 1 4 }'));
ENDSEC;

DATA;
#10=SHAPE_REPRESENTATION_RELATIONSHIP('','',#358,#11);
#11=ADVANCED_BREP_SHAPE_REPRESENTATION('',(#356),#598);
#12=CYLINDRICAL_SURFACE('',#364,0.02);
#13=CYLINDRICAL_SURFACE('',#369,0.0022);
#14=CYLINDRICAL_SURFACE('',#372,0.0022);
#15=CYLINDRICAL_SURFACE('',#375,0.0067);
#16=CYLINDRICAL_SURFACE('',#378,0.02);
#17=CYLINDRICAL_SURFACE('',#381,0.0023);
#18=CYLINDRICAL_SURFACE('',#391,0.005);
#19=CYLINDRICAL_SURFACE('',#393,0.0023);
#20=CYLINDRICAL_SURFACE('',#394,0.00285);
#21=CYLINDRICAL_SURFACE('',#397,0.00285);
#22=CIRCLE('',#361,0.00285);
#23=CIRCLE('',#362,0.00285);
#24=CIRCLE('',#365,0.02);
#25=CIRCLE('',#366,0.02);
#26=CIRCLE('',#370,0.0022);
#27=CIRCLE('',#371,0.0022);
#28=CIRCLE('',#373,0.0022);
#29=CIRCLE('',#374,0.0022);
#30=CIRCLE('',#376,0.0067);
#31=CIRCLE('',#377,0.0067);
#32=CIRCLE('',#379,0.02);
#33=CIRCLE('',#380,0.02);
#34=CIRCLE('',#382,0.0023);
#35=CIRCLE('',#383,0.0023);
#36=CIRCLE('',#385,0.005);
#37=CIRCLE('',#386,0.0023);
#38=CIRCLE('',#388,0.005);
#39=CIRCLE('',#389,0.0023);
#40=CIRCLE('',#395,0.00285);
#41=CIRCLE('',#398,0.00285);
#42=ORIENTED_EDGE('',*,*,#124,.T.);
#43=ORIENTED_EDGE('',*,*,#125,.F.);
#44=ORIENTED_EDGE('',*,*,#126,.F.);
#45=ORIENTED_EDGE('',*,*,#127,.T.);
#46=ORIENTED_EDGE('',*,*,#128,.F.);
#47=ORIENTED_EDGE('',*,*,#129,.T.);
#48=ORIENTED_EDGE('',*,*,#130,.F.);
#49=ORIENTED_EDGE('',*,*,#131,.T.);
#50=ORIENTED_EDGE('',*,*,#132,.T.);
#51=ORIENTED_EDGE('',*,*,#133,.F.);
#52=ORIENTED_EDGE('',*,*,#134,.F.);
#53=ORIENTED_EDGE('',*,*,#135,.T.);
#54=ORIENTED_EDGE('',*,*,#136,.T.);
#55=ORIENTED_EDGE('',*,*,#137,.F.);
#56=ORIENTED_EDGE('',*,*,#138,.F.);
#57=ORIENTED_EDGE('',*,*,#127,.F.);
#58=ORIENTED_EDGE('',*,*,#139,.T.);
#59=ORIENTED_EDGE('',*,*,#137,.T.);
#60=ORIENTED_EDGE('',*,*,#140,.T.);
#61=ORIENTED_EDGE('',*,*,#141,.F.);
#62=ORIENTED_EDGE('',*,*,#142,.F.);
#63=ORIENTED_EDGE('',*,*,#125,.T.);
#64=ORIENTED_EDGE('',*,*,#143,.T.);
#65=ORIENTED_EDGE('',*,*,#144,.F.);
#66=ORIENTED_EDGE('',*,*,#145,.T.);
#67=ORIENTED_EDGE('',*,*,#146,.F.);
#68=ORIENTED_EDGE('',*,*,#147,.T.);
#69=ORIENTED_EDGE('',*,*,#148,.F.);
#70=ORIENTED_EDGE('',*,*,#149,.T.);
#71=ORIENTED_EDGE('',*,*,#132,.F.);
#72=ORIENTED_EDGE('',*,*,#150,.F.);
#73=ORIENTED_EDGE('',*,*,#141,.T.);
#74=ORIENTED_EDGE('',*,*,#151,.F.);
#75=ORIENTED_EDGE('',*,*,#152,.T.);
#76=ORIENTED_EDGE('',*,*,#131,.F.);
#77=ORIENTED_EDGE('',*,*,#153,.F.);
#78=ORIENTED_EDGE('',*,*,#154,.T.);
#79=ORIENTED_EDGE('',*,*,#155,.F.);
#80=ORIENTED_EDGE('',*,*,#134,.T.);
#81=ORIENTED_EDGE('',*,*,#139,.F.);
#82=ORIENTED_EDGE('',*,*,#126,.T.);
#83=ORIENTED_EDGE('',*,*,#142,.T.);
#84=ORIENTED_EDGE('',*,*,#150,.T.);
#85=ORIENTED_EDGE('',*,*,#147,.F.);
#86=ORIENTED_EDGE('',*,*,#145,.F.);
#87=ORIENTED_EDGE('',*,*,#143,.F.);
#88=ORIENTED_EDGE('',*,*,#151,.T.);
#89=ORIENTED_EDGE('',*,*,#156,.F.);
#90=ORIENTED_EDGE('',*,*,#157,.T.);
#91=ORIENTED_EDGE('',*,*,#133,.T.);
#92=ORIENTED_EDGE('',*,*,#149,.F.);
#93=ORIENTED_EDGE('',*,*,#140,.F.);
#94=ORIENTED_EDGE('',*,*,#124,.F.);
#95=ORIENTED_EDGE('',*,*,#138,.T.);
#96=ORIENTED_EDGE('',*,*,#136,.F.);
#97=ORIENTED_EDGE('',*,*,#158,.T.);
#98=ORIENTED_EDGE('',*,*,#159,.F.);
#99=ORIENTED_EDGE('',*,*,#148,.T.);
#100=ORIENTED_EDGE('',*,*,#146,.T.);
#101=ORIENTED_EDGE('',*,*,#144,.T.);
#102=ORIENTED_EDGE('',*,*,#152,.F.);
#103=ORIENTED_EDGE('',*,*,#160,.T.);
#104=ORIENTED_EDGE('',*,*,#157,.F.);
#105=ORIENTED_EDGE('',*,*,#161,.F.);
#106=ORIENTED_EDGE('',*,*,#153,.T.);
#107=ORIENTED_EDGE('',*,*,#130,.T.);
#108=ORIENTED_EDGE('',*,*,#159,.T.);
#109=ORIENTED_EDGE('',*,*,#162,.F.);
#110=ORIENTED_EDGE('',*,*,#154,.F.);
#111=ORIENTED_EDGE('',*,*,#161,.T.);
#112=ORIENTED_EDGE('',*,*,#158,.F.);
#113=ORIENTED_EDGE('',*,*,#135,.F.);
#114=ORIENTED_EDGE('',*,*,#155,.T.);
#115=ORIENTED_EDGE('',*,*,#162,.T.);
#116=ORIENTED_EDGE('',*,*,#156,.T.);
#117=ORIENTED_EDGE('',*,*,#160,.F.);
#118=ORIENTED_EDGE('',*,*,#163,.T.);
#119=ORIENTED_EDGE('',*,*,#128,.T.);
#120=ORIENTED_EDGE('',*,*,#163,.F.);
#121=ORIENTED_EDGE('',*,*,#164,.F.);
#122=ORIENTED_EDGE('',*,*,#129,.F.);
#123=ORIENTED_EDGE('',*,*,#164,.T.);
#124=EDGE_CURVE('',#165,#166,#197,.T.);
#125=EDGE_CURVE('',#167,#166,#198,.T.);
#126=EDGE_CURVE('',#168,#167,#199,.T.);
#127=EDGE_CURVE('',#168,#165,#200,.T.);
#128=EDGE_CURVE('',#169,#169,#22,.F.);
#129=EDGE_CURVE('',#170,#170,#23,.T.);
#130=EDGE_CURVE('',#171,#172,#201,.T.);
#131=EDGE_CURVE('',#171,#173,#202,.T.);
#132=EDGE_CURVE('',#173,#174,#203,.T.);
#133=EDGE_CURVE('',#172,#174,#204,.T.);
#134=EDGE_CURVE('',#175,#176,#24,.T.);
#135=EDGE_CURVE('',#175,#177,#205,.T.);
#136=EDGE_CURVE('',#177,#178,#25,.T.);
#137=EDGE_CURVE('',#176,#178,#206,.T.);
#138=EDGE_CURVE('',#165,#178,#207,.T.);
#139=EDGE_CURVE('',#168,#176,#208,.T.);
#140=EDGE_CURVE('',#166,#179,#209,.T.);
#141=EDGE_CURVE('',#180,#179,#210,.T.);
#142=EDGE_CURVE('',#167,#180,#211,.T.);
#143=EDGE_CURVE('',#181,#181,#26,.T.);
#144=EDGE_CURVE('',#182,#182,#27,.T.);
#145=EDGE_CURVE('',#183,#183,#28,.T.);
#146=EDGE_CURVE('',#184,#184,#29,.T.);
#147=EDGE_CURVE('',#185,#185,#30,.T.);
#148=EDGE_CURVE('',#186,#186,#31,.T.);
#149=EDGE_CURVE('',#179,#174,#32,.T.);
#150=EDGE_CURVE('',#180,#173,#33,.T.);
#151=EDGE_CURVE('',#187,#187,#34,.T.);
#152=EDGE_CURVE('',#188,#188,#35,.T.);
#153=EDGE_CURVE('',#189,#171,#212,.T.);
#154=EDGE_CURVE('',#189,#190,#36,.T.);
#155=EDGE_CURVE('',#175,#190,#213,.T.);
#156=EDGE_CURVE('',#191,#191,#37,.T.);
#157=EDGE_CURVE('',#192,#172,#214,.T.);
#158=EDGE_CURVE('',#177,#193,#215,.T.);
#159=EDGE_CURVE('',#192,#193,#38,.T.);
#160=EDGE_CURVE('',#194,#194,#39,.T.);
#161=EDGE_CURVE('',#189,#192,#216,.T.);
#162=EDGE_CURVE('',#190,#193,#217,.T.);
#163=EDGE_CURVE('',#195,#195,#40,.T.);
#164=EDGE_CURVE('',#196,#196,#41,.T.);
#165=VERTEX_POINT('',#506);
#166=VERTEX_POINT('',#507);
#167=VERTEX_POINT('',#509);
#168=VERTEX_POINT('',#511);
#169=VERTEX_POINT('',#514);
#170=VERTEX_POINT('',#516);
#171=VERTEX_POINT('',#519);
#172=VERTEX_POINT('',#520);
#173=VERTEX_POINT('',#522);
#174=VERTEX_POINT('',#524);
#175=VERTEX_POINT('',#528);
#176=VERTEX_POINT('',#529);
#177=VERTEX_POINT('',#531);
#178=VERTEX_POINT('',#533);
#179=VERTEX_POINT('',#540);
#180=VERTEX_POINT('',#542);
#181=VERTEX_POINT('',#546);
#182=VERTEX_POINT('',#548);
#183=VERTEX_POINT('',#551);
#184=VERTEX_POINT('',#553);
#185=VERTEX_POINT('',#556);
#186=VERTEX_POINT('',#558);
#187=VERTEX_POINT('',#564);
#188=VERTEX_POINT('',#566);
#189=VERTEX_POINT('',#569);
#190=VERTEX_POINT('',#571);
#191=VERTEX_POINT('',#574);
#192=VERTEX_POINT('',#577);
#193=VERTEX_POINT('',#579);
#194=VERTEX_POINT('',#582);
#195=VERTEX_POINT('',#591);
#196=VERTEX_POINT('',#595);
#197=LINE('',#505,#218);
#198=LINE('',#508,#219);
#199=LINE('',#510,#220);
#200=LINE('',#512,#221);
#201=LINE('',#518,#222);
#202=LINE('',#521,#223);
#203=LINE('',#523,#224);
#204=LINE('',#525,#225);
#205=LINE('',#530,#226);
#206=LINE('',#534,#227);
#207=LINE('',#536,#228);
#208=LINE('',#537,#229);
#209=LINE('',#539,#230);
#210=LINE('',#541,#231);
#211=LINE('',#543,#232);
#212=LINE('',#568,#233);
#213=LINE('',#572,#234);
#214=LINE('',#576,#235);
#215=LINE('',#578,#236);
#216=LINE('',#584,#237);
#217=LINE('',#586,#238);
#218=VECTOR('',#404,1.);
#219=VECTOR('',#405,1.);
#220=VECTOR('',#406,1.);
#221=VECTOR('',#407,1.);
#222=VECTOR('',#414,1.);
#223=VECTOR('',#415,1.);
#224=VECTOR('',#416,1.);
#225=VECTOR('',#417,1.);
#226=VECTOR('',#422,1.);
#227=VECTOR('',#425,1.);
#228=VECTOR('',#428,1.);
#229=VECTOR('',#429,1.);
#230=VECTOR('',#432,1.);
#231=VECTOR('',#433,1.);
#232=VECTOR('',#434,1.);
#233=VECTOR('',#467,1.);
#234=VECTOR('',#470,1.);
#235=VECTOR('',#475,1.);
#236=VECTOR('',#476,1.);
#237=VECTOR('',#483,1.);
#238=VECTOR('',#486,1.);
#239=EDGE_LOOP('',(#42,#43,#44,#45));
#240=EDGE_LOOP('',(#46));
#241=EDGE_LOOP('',(#47));
#242=EDGE_LOOP('',(#48,#49,#50,#51));
#243=EDGE_LOOP('',(#52,#53,#54,#55));
#244=EDGE_LOOP('',(#56,#57,#58,#59));
#245=EDGE_LOOP('',(#60,#61,#62,#63));
#246=EDGE_LOOP('',(#64));
#247=EDGE_LOOP('',(#65));
#248=EDGE_LOOP('',(#66));
#249=EDGE_LOOP('',(#67));
#250=EDGE_LOOP('',(#68));
#251=EDGE_LOOP('',(#69));
#252=EDGE_LOOP('',(#70,#71,#72,#73));
#253=EDGE_LOOP('',(#74));
#254=EDGE_LOOP('',(#75));
#255=EDGE_LOOP('',(#76,#77,#78,#79,#80,#81,#82,#83,#84));
#256=EDGE_LOOP('',(#85));
#257=EDGE_LOOP('',(#86));
#258=EDGE_LOOP('',(#87));
#259=EDGE_LOOP('',(#88));
#260=EDGE_LOOP('',(#89));
#261=EDGE_LOOP('',(#90,#91,#92,#93,#94,#95,#96,#97,#98));
#262=EDGE_LOOP('',(#99));
#263=EDGE_LOOP('',(#100));
#264=EDGE_LOOP('',(#101));
#265=EDGE_LOOP('',(#102));
#266=EDGE_LOOP('',(#103));
#267=EDGE_LOOP('',(#104,#105,#106,#107));
#268=EDGE_LOOP('',(#108,#109,#110,#111));
#269=EDGE_LOOP('',(#112,#113,#114,#115));
#270=EDGE_LOOP('',(#116));
#271=EDGE_LOOP('',(#117));
#272=EDGE_LOOP('',(#118));
#273=EDGE_LOOP('',(#119));
#274=EDGE_LOOP('',(#120));
#275=EDGE_LOOP('',(#121));
#276=EDGE_LOOP('',(#122));
#277=EDGE_LOOP('',(#123));
#278=FACE_BOUND('',#239,.T.);
#279=FACE_BOUND('',#240,.T.);
#280=FACE_BOUND('',#241,.T.);
#281=FACE_BOUND('',#242,.T.);
#282=FACE_BOUND('',#243,.T.);
#283=FACE_BOUND('',#244,.T.);
#284=FACE_BOUND('',#245,.T.);
#285=FACE_BOUND('',#246,.T.);
#286=FACE_BOUND('',#247,.T.);
#287=FACE_BOUND('',#248,.T.);
#288=FACE_BOUND('',#249,.T.);
#289=FACE_BOUND('',#250,.T.);
#290=FACE_BOUND('',#251,.T.);
#291=FACE_BOUND('',#252,.T.);
#292=FACE_BOUND('',#253,.T.);
#293=FACE_BOUND('',#254,.T.);
#294=FACE_BOUND('',#255,.T.);
#295=FACE_BOUND('',#256,.T.);
#296=FACE_BOUND('',#257,.T.);
#297=FACE_BOUND('',#258,.T.);
#298=FACE_BOUND('',#259,.T.);
#299=FACE_BOUND('',#260,.T.);
#300=FACE_BOUND('',#261,.T.);
#301=FACE_BOUND('',#262,.T.);
#302=FACE_BOUND('',#263,.T.);
#303=FACE_BOUND('',#264,.T.);
#304=FACE_BOUND('',#265,.T.);
#305=FACE_BOUND('',#266,.T.);
#306=FACE_BOUND('',#267,.T.);
#307=FACE_BOUND('',#268,.T.);
#308=FACE_BOUND('',#269,.T.);
#309=FACE_BOUND('',#270,.T.);
#310=FACE_BOUND('',#271,.T.);
#311=FACE_BOUND('',#272,.T.);
#312=FACE_BOUND('',#273,.T.);
#313=FACE_BOUND('',#274,.T.);
#314=FACE_BOUND('',#275,.T.);
#315=FACE_BOUND('',#276,.T.);
#316=FACE_BOUND('',#277,.T.);
#317=PLANE('',#360);
#318=PLANE('',#363);
#319=PLANE('',#367);
#320=PLANE('',#368);
#321=PLANE('',#384);
#322=PLANE('',#387);
#323=PLANE('',#390);
#324=PLANE('',#392);
#325=PLANE('',#396);
#326=PLANE('',#399);
#327=ADVANCED_FACE('',(#278,#279,#280),#317,.F.);
#328=ADVANCED_FACE('',(#281),#318,.T.);
#329=ADVANCED_FACE('',(#282),#12,.T.);
#330=ADVANCED_FACE('',(#283),#319,.T.);
#331=ADVANCED_FACE('',(#284),#320,.F.);
#332=ADVANCED_FACE('',(#285,#286),#13,.F.);
#333=ADVANCED_FACE('',(#287,#288),#14,.F.);
#334=ADVANCED_FACE('',(#289,#290),#15,.F.);
#335=ADVANCED_FACE('',(#291),#16,.T.);
#336=ADVANCED_FACE('',(#292,#293),#17,.F.);
#337=ADVANCED_FACE('',(#294,#295,#296,#297,#298,#299),#321,.T.);
#338=ADVANCED_FACE('',(#300,#301,#302,#303,#304,#305),#322,.F.);
#339=ADVANCED_FACE('',(#306),#323,.T.);
#340=ADVANCED_FACE('',(#307),#18,.T.);
#341=ADVANCED_FACE('',(#308),#324,.T.);
#342=ADVANCED_FACE('',(#309,#310),#19,.F.);
#343=ADVANCED_FACE('',(#311,#312),#20,.F.);
#344=ADVANCED_FACE('',(#313),#325,.T.);
#345=ADVANCED_FACE('',(#314,#315),#21,.F.);
#346=ADVANCED_FACE('',(#316),#326,.T.);
#347=CLOSED_SHELL('',(#327,#328,#329,#330,#331,#332,#333,#334,#335,#336,
#337,#338,#339,#340,#341,#342,#343,#344,#345,#346));
#348=STYLED_ITEM('',(#349),#356);
#349=PRESENTATION_STYLE_ASSIGNMENT((#350));
#350=SURFACE_STYLE_USAGE(.BOTH.,#351);
#351=SURFACE_SIDE_STYLE('',(#352));
#352=SURFACE_STYLE_FILL_AREA(#353);
#353=FILL_AREA_STYLE('',(#354));
#354=FILL_AREA_STYLE_COLOUR('',#355);
#355=COLOUR_RGB('',0.647058823529412,0.647058823529412,0.647058823529412);
#356=MANIFOLD_SOLID_BREP('Support Level Link',#347);
#357=SHAPE_DEFINITION_REPRESENTATION(#603,#358);
#358=SHAPE_REPRESENTATION('Support Level Link',(#359),#598);
#359=AXIS2_PLACEMENT_3D('',#503,#400,#401);
#360=AXIS2_PLACEMENT_3D('',#504,#402,#403);
#361=AXIS2_PLACEMENT_3D('',#513,#408,#409);
#362=AXIS2_PLACEMENT_3D('',#515,#410,#411);
#363=AXIS2_PLACEMENT_3D('',#517,#412,#413);
#364=AXIS2_PLACEMENT_3D('',#526,#418,#419);
#365=AXIS2_PLACEMENT_3D('',#527,#420,#421);
#366=AXIS2_PLACEMENT_3D('',#532,#423,#424);
#367=AXIS2_PLACEMENT_3D('',#535,#426,#427);
#368=AXIS2_PLACEMENT_3D('',#538,#430,#431);
#369=AXIS2_PLACEMENT_3D('',#544,#435,#436);
#370=AXIS2_PLACEMENT_3D('',#545,#437,#438);
#371=AXIS2_PLACEMENT_3D('',#547,#439,#440);
#372=AXIS2_PLACEMENT_3D('',#549,#441,#442);
#373=AXIS2_PLACEMENT_3D('',#550,#443,#444);
#374=AXIS2_PLACEMENT_3D('',#552,#445,#446);
#375=AXIS2_PLACEMENT_3D('',#554,#447,#448);
#376=AXIS2_PLACEMENT_3D('',#555,#449,#450);
#377=AXIS2_PLACEMENT_3D('',#557,#451,#452);
#378=AXIS2_PLACEMENT_3D('',#559,#453,#454);
#379=AXIS2_PLACEMENT_3D('',#560,#455,#456);
#380=AXIS2_PLACEMENT_3D('',#561,#457,#458);
#381=AXIS2_PLACEMENT_3D('',#562,#459,#460);
#382=AXIS2_PLACEMENT_3D('',#563,#461,#462);
#383=AXIS2_PLACEMENT_3D('',#565,#463,#464);
#384=AXIS2_PLACEMENT_3D('',#567,#465,#466);
#385=AXIS2_PLACEMENT_3D('',#570,#468,#469);
#386=AXIS2_PLACEMENT_3D('',#573,#471,#472);
#387=AXIS2_PLACEMENT_3D('',#575,#473,#474);
#388=AXIS2_PLACEMENT_3D('',#580,#477,#478);
#389=AXIS2_PLACEMENT_3D('',#581,#479,#480);
#390=AXIS2_PLACEMENT_3D('',#583,#481,#482);
#391=AXIS2_PLACEMENT_3D('',#585,#484,#485);
#392=AXIS2_PLACEMENT_3D('',#587,#487,#488);
#393=AXIS2_PLACEMENT_3D('',#588,#489,#490);
#394=AXIS2_PLACEMENT_3D('',#589,#491,#492);
#395=AXIS2_PLACEMENT_3D('',#590,#493,#494);
#396=AXIS2_PLACEMENT_3D('',#592,#495,#496);
#397=AXIS2_PLACEMENT_3D('',#593,#497,#498);
#398=AXIS2_PLACEMENT_3D('',#594,#499,#500);
#399=AXIS2_PLACEMENT_3D('',#596,#501,#502);
#400=DIRECTION('',(0.,0.,1.));
#401=DIRECTION('',(1.,0.,0.));
#402=DIRECTION('',(0.,0.,1.));
#403=DIRECTION('',(1.,0.,0.));
#404=DIRECTION('',(0.,-1.,0.));
#405=DIRECTION('',(1.,0.,0.));
#406=DIRECTION('',(0.,-1.,0.));
#407=DIRECTION('',(1.,0.,0.));
#408=DIRECTION('',(0.,0.,1.));
#409=DIRECTION('',(1.,0.,0.));
#410=DIRECTION('',(0.,0.,1.));
#411=DIRECTION('',(1.,0.,0.));
#412=DIRECTION('',(0.,0.,1.));
#413=DIRECTION('',(1.,0.,0.));
#414=DIRECTION('',(1.,0.,0.));
#415=DIRECTION('',(0.,-1.,0.));
#416=DIRECTION('',(1.,0.,0.));
#417=DIRECTION('',(0.,-1.,0.));
#418=DIRECTION('',(1.,0.,0.));
#419=DIRECTION('',(0.,0.,-1.));
#420=DIRECTION('',(-1.,0.,0.));
#421=DIRECTION('',(0.,0.,1.));
#422=DIRECTION('',(1.,0.,0.));
#423=DIRECTION('',(-1.,0.,0.));
#424=DIRECTION('',(0.,0.,1.));
#425=DIRECTION('',(1.,0.,0.));
#426=DIRECTION('',(0.,1.,0.));
#427=DIRECTION('',(0.,0.,1.));
#428=DIRECTION('',(0.,0.,1.));
#429=DIRECTION('',(0.,0.,1.));
#430=DIRECTION('',(0.,1.,-6.93889390390722E-16));
#431=DIRECTION('',(0.,6.93889390390722E-16,1.));
#432=DIRECTION('',(0.,6.93889390390722E-16,1.));
#433=DIRECTION('',(1.,0.,0.));
#434=DIRECTION('',(0.,6.93889390390722E-16,1.));
#435=DIRECTION('',(1.,0.,0.));
#436=DIRECTION('',(0.,0.,-1.));
#437=DIRECTION('',(-1.,0.,0.));
#438=DIRECTION('',(0.,0.,1.));
#439=DIRECTION('',(-1.,0.,0.));
#440=DIRECTION('',(0.,0.,1.));
#441=DIRECTION('',(1.,0.,0.));
#442=DIRECTION('',(0.,0.,-1.));
#443=DIRECTION('',(-1.,0.,0.));
#444=DIRECTION('',(0.,0.,1.));
#445=DIRECTION('',(-1.,0.,0.));
#446=DIRECTION('',(0.,0.,1.));
#447=DIRECTION('',(1.,0.,0.));
#448=DIRECTION('',(0.,0.,-1.));
#449=DIRECTION('',(-1.,0.,0.));
#450=DIRECTION('',(0.,0.,1.));
#451=DIRECTION('',(-1.,0.,0.));
#452=DIRECTION('',(0.,0.,1.));
#453=DIRECTION('',(1.,0.,0.));
#454=DIRECTION('',(0.,0.,-1.));
#455=DIRECTION('',(-1.,0.,0.));
#456=DIRECTION('',(0.,0.,1.));
#457=DIRECTION('',(-1.,0.,0.));
#458=DIRECTION('',(0.,0.,1.));
#459=DIRECTION('',(1.,0.,0.));
#460=DIRECTION('',(0.,0.,-1.));
#461=DIRECTION('',(1.,0.,0.));
#462=DIRECTION('',(0.,0.,-1.));
#463=DIRECTION('',(1.,0.,0.));
#464=DIRECTION('',(0.,0.,-1.));
#465=DIRECTION('',(-1.,0.,0.));
#466=DIRECTION('',(0.,-1.,0.));
#467=DIRECTION('',(0.,-0.963740255056509,-0.266842127078192));
#468=DIRECTION('',(-1.,0.,0.));
#469=DIRECTION('',(0.,0.,1.));
#470=DIRECTION('',(0.,-0.49811373608837,0.867111703254019));
#471=DIRECTION('',(-1.,0.,0.));
#472=DIRECTION('',(0.,0.,1.));
#473=DIRECTION('',(-1.,0.,0.));
#474=DIRECTION('',(0.,-1.,0.));
#475=DIRECTION('',(0.,-0.963740255056509,-0.266842127078192));
#476=DIRECTION('',(0.,-0.49811373608837,0.867111703254019));
#477=DIRECTION('',(-1.,0.,0.));
#478=DIRECTION('',(0.,0.,1.));
#479=DIRECTION('',(-1.,0.,0.));
#480=DIRECTION('',(0.,0.,1.));
#481=DIRECTION('',(0.,-0.266842127078192,0.96374025505651));
#482=DIRECTION('',(0.,-0.96374025505651,-0.266842127078192));
#483=DIRECTION('',(1.,0.,0.));
#484=DIRECTION('',(1.,0.,0.));
#485=DIRECTION('',(0.,0.,-1.));
#486=DIRECTION('',(1.,0.,0.));
#487=DIRECTION('',(0.,0.867111703254019,0.49811373608837));
#488=DIRECTION('',(0.,-0.49811373608837,0.867111703254019));
#489=DIRECTION('',(1.,0.,0.));
#490=DIRECTION('',(0.,0.,-1.));
#491=DIRECTION('',(0.,0.,-1.));
#492=DIRECTION('',(-1.,0.,0.));
#493=DIRECTION('',(0.,0.,1.));
#494=DIRECTION('',(-1.,0.,0.));
#495=DIRECTION('',(0.,0.,-1.));
#496=DIRECTION('',(1.,0.,0.));
#497=DIRECTION('',(0.,0.,-1.));
#498=DIRECTION('',(-1.,0.,0.));
#499=DIRECTION('',(0.,0.,-1.));
#500=DIRECTION('',(-1.,0.,0.));
#501=DIRECTION('',(0.,0.,-1.));
#502=DIRECTION('',(1.,0.,0.));
#503=CARTESIAN_POINT('',(0.,0.,0.));
#504=CARTESIAN_POINT('',(-0.032,0.01934197732497,-0.032766867429018));
#505=CARTESIAN_POINT('',(-0.022,0.01934197732497,-0.032766867429018));
#506=CARTESIAN_POINT('',(-0.022,0.0636839546499399,-0.032766867429018));
#507=CARTESIAN_POINT('',(-0.022,-0.025,-0.032766867429018));
#508=CARTESIAN_POINT('',(-0.032,-0.025,-0.032766867429018));
#509=CARTESIAN_POINT('',(-0.032,-0.025,-0.032766867429018));
#510=CARTESIAN_POINT('',(-0.032,0.01934197732497,-0.032766867429018));
#511=CARTESIAN_POINT('',(-0.032,0.0636839546499399,-0.032766867429018));
#512=CARTESIAN_POINT('',(-0.032,0.0636839546499399,-0.032766867429018));
#513=CARTESIAN_POINT('',(-0.027,0.0520265501121459,-0.032766867429018));
#514=CARTESIAN_POINT('',(-0.02415,0.0520265501121459,-0.032766867429018));
#515=CARTESIAN_POINT('',(-0.027,-0.013342595462206,-0.032766867429018));
#516=CARTESIAN_POINT('',(-0.02415,-0.013342595462206,-0.032766867429018));
#517=CARTESIAN_POINT('',(-0.032,-0.0025,0.025));
#518=CARTESIAN_POINT('',(-0.032,0.01934197732497,0.025));
#519=CARTESIAN_POINT('',(-0.032,0.01934197732497,0.025));
#520=CARTESIAN_POINT('',(-0.022,0.01934197732497,0.025));
#521=CARTESIAN_POINT('',(-0.032,-0.0025,0.025));
#522=CARTESIAN_POINT('',(-0.032,-0.005,0.025));
#523=CARTESIAN_POINT('',(-0.032,-0.005,0.025));
#524=CARTESIAN_POINT('',(-0.022,-0.005,0.025));
#525=CARTESIAN_POINT('',(-0.022,-0.0025,0.025));
#526=CARTESIAN_POINT('',(-0.032,0.0436839546499399,0.005));
#527=CARTESIAN_POINT('',(-0.032,0.0436839546499399,0.005));
#528=CARTESIAN_POINT('',(-0.032,0.0610261887150203,0.0149622747217674));
#529=CARTESIAN_POINT('',(-0.032,0.0636839546499399,0.005));
#530=CARTESIAN_POINT('',(-0.032,0.0610261887150203,0.0149622747217674));
#531=CARTESIAN_POINT('',(-0.022,0.0610261887150203,0.0149622747217674));
#532=CARTESIAN_POINT('',(-0.022,0.0436839546499399,0.005));
#533=CARTESIAN_POINT('',(-0.022,0.0636839546499399,0.005));
#534=CARTESIAN_POINT('',(-0.032,0.0636839546499399,0.005));
#535=CARTESIAN_POINT('',(-0.032,0.0636839546499399,-0.013883433714509));
#536=CARTESIAN_POINT('',(-0.022,0.0636839546499399,-0.013883433714509));
#537=CARTESIAN_POINT('',(-0.032,0.0636839546499399,-0.013883433714509));
#538=CARTESIAN_POINT('',(-0.032,-0.025,0.0025));
#539=CARTESIAN_POINT('',(-0.022,-0.025,0.0025));
#540=CARTESIAN_POINT('',(-0.022,-0.025,0.005));
#541=CARTESIAN_POINT('',(-0.032,-0.025,0.005));
#542=CARTESIAN_POINT('',(-0.032,-0.025,0.005));
#543=CARTESIAN_POINT('',(-0.032,-0.025,0.0025));
#544=CARTESIAN_POINT('',(-0.032,0.038,-0.0175));
#545=CARTESIAN_POINT('',(-0.032,0.038,-0.0175));
#546=CARTESIAN_POINT('',(-0.032,0.038,-0.0153));
#547=CARTESIAN_POINT('',(-0.022,0.038,-0.0175));
#548=CARTESIAN_POINT('',(-0.022,0.038,-0.0153));
#549=CARTESIAN_POINT('',(-0.032,0.038,0.0175));
#550=CARTESIAN_POINT('',(-0.032,0.038,0.0175));
#551=CARTESIAN_POINT('',(-0.032,0.038,0.0197));
#552=CARTESIAN_POINT('',(-0.022,0.038,0.0175));
#553=CARTESIAN_POINT('',(-0.022,0.038,0.0197));
#554=CARTESIAN_POINT('',(-0.032,0.03,4.10256677714363E-19));
#555=CARTESIAN_POINT('',(-0.032,0.03,4.10256677714363E-19));
#556=CARTESIAN_POINT('',(-0.032,0.03,0.0067));
#557=CARTESIAN_POINT('',(-0.022,0.03,4.10256677714363E-19));
#558=CARTESIAN_POINT('',(-0.022,0.03,0.0067));
#559=CARTESIAN_POINT('',(-0.032,-0.005,0.005));
#560=CARTESIAN_POINT('',(-0.022,-0.005,0.005));
#561=CARTESIAN_POINT('',(-0.032,-0.005,0.005));
#562=CARTESIAN_POINT('',(-0.032,0.,1.40834381901946E-19));
#563=CARTESIAN_POINT('',(-0.032,0.,1.40834381901946E-19));
#564=CARTESIAN_POINT('',(-0.032,0.,-0.0023));
#565=CARTESIAN_POINT('',(-0.022,0.,1.40834381901946E-19));
#566=CARTESIAN_POINT('',(-0.022,0.,-0.0023));
#567=CARTESIAN_POINT('',(-0.032,0.01934197732497,-0.00388343371450901));
#568=CARTESIAN_POINT('',(-0.032,0.0329675812602811,0.0287726816097458));
#569=CARTESIAN_POINT('',(-0.032,0.0465931851955922,0.0325453632194916));
#570=CARTESIAN_POINT('',(-0.032,0.0479273958309832,0.027726661944209));
#571=CARTESIAN_POINT('',(-0.032,0.0522629543472533,0.0302172306246509));
#572=CARTESIAN_POINT('',(-0.032,0.0566445715311368,0.0225897526732091));
#573=CARTESIAN_POINT('',(-0.032,0.0476313972081441,0.0275));
#574=CARTESIAN_POINT('',(-0.032,0.0476313972081441,0.0298));
#575=CARTESIAN_POINT('',(-0.022,0.01934197732497,-0.00388343371450901));
#576=CARTESIAN_POINT('',(-0.022,0.0329675812602811,0.0287726816097458));
#577=CARTESIAN_POINT('',(-0.022,0.0465931851955922,0.0325453632194916));
#578=CARTESIAN_POINT('',(-0.022,0.0566445715311368,0.0225897526732091));
#579=CARTESIAN_POINT('',(-0.022,0.0522629543472533,0.0302172306246509));
#580=CARTESIAN_POINT('',(-0.022,0.0479273958309832,0.027726661944209));
#581=CARTESIAN_POINT('',(-0.022,0.0476313972081441,0.0275));
#582=CARTESIAN_POINT('',(-0.022,0.0476313972081441,0.0298));
#583=CARTESIAN_POINT('',(-0.032,0.0329675812602811,0.0287726816097458));
#584=CARTESIAN_POINT('',(-0.032,0.0465931851955922,0.0325453632194916));
#585=CARTESIAN_POINT('',(-0.032,0.0479273958309832,0.027726661944209));
#586=CARTESIAN_POINT('',(-0.032,0.0522629543472533,0.0302172306246509));
#587=CARTESIAN_POINT('',(-0.032,0.0566445715311368,0.0225897526732091));
#588=CARTESIAN_POINT('',(-0.032,0.0476313972081441,0.0275));
#589=CARTESIAN_POINT('',(-0.027,0.0520265501121459,-0.024366867429018));
#590=CARTESIAN_POINT('',(-0.027,0.0520265501121459,-0.024366867429018));
#591=CARTESIAN_POINT('',(-0.02985,0.0520265501121459,-0.024366867429018));
#592=CARTESIAN_POINT('',(0.,0.01934197732497,-0.024366867429018));
#593=CARTESIAN_POINT('',(-0.027,-0.013342595462206,-0.024366867429018));
#594=CARTESIAN_POINT('',(-0.027,-0.013342595462206,-0.024366867429018));
#595=CARTESIAN_POINT('',(-0.02985,-0.013342595462206,-0.024366867429018));
#596=CARTESIAN_POINT('',(0.,0.01934197732497,-0.024366867429018));
#597=MECHANICAL_DESIGN_GEOMETRIC_PRESENTATION_REPRESENTATION('',(#348),
#598);
#598=(
GEOMETRIC_REPRESENTATION_CONTEXT(3)
GLOBAL_UNCERTAINTY_ASSIGNED_CONTEXT((#599))
GLOBAL_UNIT_ASSIGNED_CONTEXT((#602,#601,#600))
REPRESENTATION_CONTEXT('Support Level Link','TOP_LEVEL_ASSEMBLY_PART')
);
#599=UNCERTAINTY_MEASURE_WITH_UNIT(LENGTH_MEASURE(1.E-8),#602,
'DISTANCE_ACCURACY_VALUE','Maximum Tolerance applied to model');
#600=(
NAMED_UNIT(*)
SI_UNIT($,.STERADIAN.)
SOLID_ANGLE_UNIT()
);
#601=(
NAMED_UNIT(*)
PLANE_ANGLE_UNIT()
SI_UNIT($,.RADIAN.)
);
#602=(
LENGTH_UNIT()
NAMED_UNIT(*)
SI_UNIT($,.METRE.)
);
#603=PRODUCT_DEFINITION_SHAPE('','',#604);
#604=PRODUCT_DEFINITION('','',#606,#605);
#605=PRODUCT_DEFINITION_CONTEXT('',#612,'design');
#606=PRODUCT_DEFINITION_FORMATION_WITH_SPECIFIED_SOURCE('','',#608,
 .NOT_KNOWN.);
#607=PRODUCT_RELATED_PRODUCT_CATEGORY('','',(#608));
#608=PRODUCT('Support Level Link','Support Level Link',
'Support Level Link',(#610));
#609=PRODUCT_CATEGORY('','');
#610=PRODUCT_CONTEXT('',#612,'mechanical');
#611=APPLICATION_PROTOCOL_DEFINITION('international standard',
'ap242_managed_model_based_3d_engineering',2020,#612);
#612=APPLICATION_CONTEXT('managed model based 3d engineering');
ENDSEC;
END-ISO-10303-21;
