ISO-10303-21;
HEADER;
/* Generated by software containing ST-Developer
 * from STEP Tools, Inc. (www.steptools.com) 
 */
/* OPTION: using custom renumber hook */

FILE_DESCRIPTION(
/* description */ ('STEP AP242 Edition 2',
'CAx-IF Rec.Pracs.---Representation and Presentation of Product Manufa
cturing Information (PMI)---4.0---2014-10-13',
'CAx-IF Rec.Pracs.---3D Tessellated Geometry---0.4---2014-09-14','2;1',
'CAx-IF Rec.Pracs.---User Defined Attributes---1.5---2016-08-15'),
/* implementation_level */ '2;1');

FILE_NAME(
/* name */ 'LimeArm MKI - Main Dead Link',
/* time_stamp */ '2026-05-27T02:34:59Z',
/* author */ (''),
/* organization */ (''),
/* preprocessor_version */ 'ST-DEVELOPER v20',
/* originating_system */ 'ONSHAPE BY PTC INC, 1.215',
/* authorisation */ '  ');

FILE_SCHEMA (('AP242_MANAGED_MODEL_BASED_3D_ENGINEERING_MIM_LF { 1 0 10303 442 3 1 4 }'));
ENDSEC;

DATA;
#10=SHAPE_REPRESENTATION_RELATIONSHIP('','',#179,#11);
#11=ADVANCED_BREP_SHAPE_REPRESENTATION('',(#177),#299);
#12=CIRCLE('',#184,0.005);
#13=CIRCLE('',#185,0.005);
#14=CIRCLE('',#187,0.0023);
#15=CIRCLE('',#188,0.0023);
#16=CIRCLE('',#190,0.005);
#17=CIRCLE('',#191,0.005);
#18=CIRCLE('',#193,0.0023);
#19=CIRCLE('',#194,0.0023);
#20=CIRCLE('',#197,0.005);
#21=CIRCLE('',#198,0.005);
#22=CYLINDRICAL_SURFACE('',#183,0.005);
#23=CYLINDRICAL_SURFACE('',#186,0.0023);
#24=CYLINDRICAL_SURFACE('',#189,0.005);
#25=CYLINDRICAL_SURFACE('',#192,0.0023);
#26=CYLINDRICAL_SURFACE('',#196,0.005);
#27=ORIENTED_EDGE('',*,*,#67,.F.);
#28=ORIENTED_EDGE('',*,*,#68,.T.);
#29=ORIENTED_EDGE('',*,*,#69,.T.);
#30=ORIENTED_EDGE('',*,*,#70,.T.);
#31=ORIENTED_EDGE('',*,*,#71,.F.);
#32=ORIENTED_EDGE('',*,*,#72,.F.);
#33=ORIENTED_EDGE('',*,*,#73,.T.);
#34=ORIENTED_EDGE('',*,*,#74,.T.);
#35=ORIENTED_EDGE('',*,*,#75,.F.);
#36=ORIENTED_EDGE('',*,*,#76,.F.);
#37=ORIENTED_EDGE('',*,*,#77,.F.);
#38=ORIENTED_EDGE('',*,*,#71,.T.);
#39=ORIENTED_EDGE('',*,*,#78,.T.);
#40=ORIENTED_EDGE('',*,*,#74,.F.);
#41=ORIENTED_EDGE('',*,*,#79,.F.);
#42=ORIENTED_EDGE('',*,*,#80,.T.);
#43=ORIENTED_EDGE('',*,*,#81,.F.);
#44=ORIENTED_EDGE('',*,*,#76,.T.);
#45=ORIENTED_EDGE('',*,*,#82,.T.);
#46=ORIENTED_EDGE('',*,*,#69,.F.);
#47=ORIENTED_EDGE('',*,*,#83,.T.);
#48=ORIENTED_EDGE('',*,*,#84,.F.);
#49=ORIENTED_EDGE('',*,*,#82,.F.);
#50=ORIENTED_EDGE('',*,*,#75,.T.);
#51=ORIENTED_EDGE('',*,*,#78,.F.);
#52=ORIENTED_EDGE('',*,*,#70,.F.);
#53=ORIENTED_EDGE('',*,*,#79,.T.);
#54=ORIENTED_EDGE('',*,*,#84,.T.);
#55=ORIENTED_EDGE('',*,*,#85,.F.);
#56=ORIENTED_EDGE('',*,*,#72,.T.);
#57=ORIENTED_EDGE('',*,*,#86,.F.);
#58=ORIENTED_EDGE('',*,*,#68,.F.);
#59=ORIENTED_EDGE('',*,*,#83,.F.);
#60=ORIENTED_EDGE('',*,*,#86,.T.);
#61=ORIENTED_EDGE('',*,*,#81,.T.);
#62=ORIENTED_EDGE('',*,*,#80,.F.);
#63=ORIENTED_EDGE('',*,*,#73,.F.);
#64=ORIENTED_EDGE('',*,*,#85,.T.);
#65=ORIENTED_EDGE('',*,*,#67,.T.);
#66=ORIENTED_EDGE('',*,*,#77,.T.);
#67=EDGE_CURVE('',#87,#88,#101,.T.);
#68=EDGE_CURVE('',#87,#89,#102,.T.);
#69=EDGE_CURVE('',#89,#90,#103,.T.);
#70=EDGE_CURVE('',#90,#91,#104,.T.);
#71=EDGE_CURVE('',#88,#91,#105,.T.);
#72=EDGE_CURVE('',#92,#93,#106,.T.);
#73=EDGE_CURVE('',#92,#94,#107,.T.);
#74=EDGE_CURVE('',#94,#95,#108,.T.);
#75=EDGE_CURVE('',#96,#95,#109,.T.);
#76=EDGE_CURVE('',#93,#96,#110,.T.);
#77=EDGE_CURVE('',#88,#94,#12,.T.);
#78=EDGE_CURVE('',#91,#95,#13,.T.);
#79=EDGE_CURVE('',#97,#97,#14,.T.);
#80=EDGE_CURVE('',#98,#98,#15,.T.);
#81=EDGE_CURVE('',#93,#89,#16,.T.);
#82=EDGE_CURVE('',#96,#90,#17,.T.);
#83=EDGE_CURVE('',#99,#99,#18,.T.);
#84=EDGE_CURVE('',#100,#100,#19,.T.);
#85=EDGE_CURVE('',#92,#87,#20,.F.);
#86=EDGE_CURVE('',#89,#93,#21,.T.);
#87=VERTEX_POINT('',#256);
#88=VERTEX_POINT('',#257);
#89=VERTEX_POINT('',#259);
#90=VERTEX_POINT('',#261);
#91=VERTEX_POINT('',#263);
#92=VERTEX_POINT('',#267);
#93=VERTEX_POINT('',#268);
#94=VERTEX_POINT('',#270);
#95=VERTEX_POINT('',#272);
#96=VERTEX_POINT('',#274);
#97=VERTEX_POINT('',#281);
#98=VERTEX_POINT('',#283);
#99=VERTEX_POINT('',#289);
#100=VERTEX_POINT('',#291);
#101=LINE('',#255,#111);
#102=LINE('',#258,#112);
#103=LINE('',#260,#113);
#104=LINE('',#262,#114);
#105=LINE('',#264,#115);
#106=LINE('',#266,#116);
#107=LINE('',#269,#117);
#108=LINE('',#271,#118);
#109=LINE('',#273,#119);
#110=LINE('',#275,#120);
#111=VECTOR('',#205,1.);
#112=VECTOR('',#206,1.);
#113=VECTOR('',#207,1.);
#114=VECTOR('',#208,1.);
#115=VECTOR('',#209,1.);
#116=VECTOR('',#212,1.);
#117=VECTOR('',#213,1.);
#118=VECTOR('',#214,1.);
#119=VECTOR('',#215,1.);
#120=VECTOR('',#216,1.);
#121=EDGE_LOOP('',(#27,#28,#29,#30,#31));
#122=EDGE_LOOP('',(#32,#33,#34,#35,#36));
#123=EDGE_LOOP('',(#37,#38,#39,#40));
#124=EDGE_LOOP('',(#41));
#125=EDGE_LOOP('',(#42));
#126=EDGE_LOOP('',(#43,#44,#45,#46));
#127=EDGE_LOOP('',(#47));
#128=EDGE_LOOP('',(#48));
#129=EDGE_LOOP('',(#49,#50,#51,#52));
#130=EDGE_LOOP('',(#53));
#131=EDGE_LOOP('',(#54));
#132=EDGE_LOOP('',(#55,#56,#57,#58));
#133=EDGE_LOOP('',(#59));
#134=EDGE_LOOP('',(#60,#61));
#135=EDGE_LOOP('',(#62));
#136=EDGE_LOOP('',(#63,#64,#65,#66));
#137=FACE_BOUND('',#121,.T.);
#138=FACE_BOUND('',#122,.T.);
#139=FACE_BOUND('',#123,.T.);
#140=FACE_BOUND('',#124,.T.);
#141=FACE_BOUND('',#125,.T.);
#142=FACE_BOUND('',#126,.T.);
#143=FACE_BOUND('',#127,.T.);
#144=FACE_BOUND('',#128,.T.);
#145=FACE_BOUND('',#129,.T.);
#146=FACE_BOUND('',#130,.T.);
#147=FACE_BOUND('',#131,.T.);
#148=FACE_BOUND('',#132,.T.);
#149=FACE_BOUND('',#133,.T.);
#150=FACE_BOUND('',#134,.T.);
#151=FACE_BOUND('',#135,.T.);
#152=FACE_BOUND('',#136,.T.);
#153=PLANE('',#181);
#154=PLANE('',#182);
#155=PLANE('',#195);
#156=PLANE('',#199);
#157=PLANE('',#200);
#158=ADVANCED_FACE('',(#137),#153,.F.);
#159=ADVANCED_FACE('',(#138),#154,.T.);
#160=ADVANCED_FACE('',(#139),#22,.T.);
#161=ADVANCED_FACE('',(#140,#141),#23,.F.);
#162=ADVANCED_FACE('',(#142),#24,.T.);
#163=ADVANCED_FACE('',(#143,#144),#25,.F.);
#164=ADVANCED_FACE('',(#145,#146,#147),#155,.F.);
#165=ADVANCED_FACE('',(#148),#26,.F.);
#166=ADVANCED_FACE('',(#149,#150),#156,.F.);
#167=ADVANCED_FACE('',(#151,#152),#157,.T.);
#168=CLOSED_SHELL('',(#158,#159,#160,#161,#162,#163,#164,#165,#166,#167));
#169=STYLED_ITEM('',(#170),#177);
#170=PRESENTATION_STYLE_ASSIGNMENT((#171));
#171=SURFACE_STYLE_USAGE(.BOTH.,#172);
#172=SURFACE_SIDE_STYLE('',(#173));
#173=SURFACE_STYLE_FILL_AREA(#174);
#174=FILL_AREA_STYLE('',(#175));
#175=FILL_AREA_STYLE_COLOUR('',#176);
#176=COLOUR_RGB('',0.647058823529412,0.647058823529412,0.647058823529412);
#177=MANIFOLD_SOLID_BREP('Main Dead Link',#168);
#178=SHAPE_DEFINITION_REPRESENTATION(#304,#179);
#179=SHAPE_REPRESENTATION('Main Dead Link',(#180),#299);
#180=AXIS2_PLACEMENT_3D('',#253,#201,#202);
#181=AXIS2_PLACEMENT_3D('',#254,#203,#204);
#182=AXIS2_PLACEMENT_3D('',#265,#210,#211);
#183=AXIS2_PLACEMENT_3D('',#276,#217,#218);
#184=AXIS2_PLACEMENT_3D('',#277,#219,#220);
#185=AXIS2_PLACEMENT_3D('',#278,#221,#222);
#186=AXIS2_PLACEMENT_3D('',#279,#223,#224);
#187=AXIS2_PLACEMENT_3D('',#280,#225,#226);
#188=AXIS2_PLACEMENT_3D('',#282,#227,#228);
#189=AXIS2_PLACEMENT_3D('',#284,#229,#230);
#190=AXIS2_PLACEMENT_3D('',#285,#231,#232);
#191=AXIS2_PLACEMENT_3D('',#286,#233,#234);
#192=AXIS2_PLACEMENT_3D('',#287,#235,#236);
#193=AXIS2_PLACEMENT_3D('',#288,#237,#238);
#194=AXIS2_PLACEMENT_3D('',#290,#239,#240);
#195=AXIS2_PLACEMENT_3D('',#292,#241,#242);
#196=AXIS2_PLACEMENT_3D('',#293,#243,#244);
#197=AXIS2_PLACEMENT_3D('',#294,#245,#246);
#198=AXIS2_PLACEMENT_3D('',#295,#247,#248);
#199=AXIS2_PLACEMENT_3D('',#296,#249,#250);
#200=AXIS2_PLACEMENT_3D('',#297,#251,#252);
#201=DIRECTION('',(0.,0.,1.));
#202=DIRECTION('',(1.,0.,0.));
#203=DIRECTION('',(0.,-1.,0.));
#204=DIRECTION('',(0.,0.,-1.));
#205=DIRECTION('',(0.,0.,1.));
#206=DIRECTION('',(-1.,0.,0.));
#207=DIRECTION('',(-1.,0.,0.));
#208=DIRECTION('',(0.,0.,1.));
#209=DIRECTION('',(-1.,0.,0.));
#210=DIRECTION('',(0.,-1.,0.));
#211=DIRECTION('',(0.,0.,-1.));
#212=DIRECTION('',(-1.,0.,0.));
#213=DIRECTION('',(0.,0.,1.));
#214=DIRECTION('',(-1.,0.,0.));
#215=DIRECTION('',(0.,0.,1.));
#216=DIRECTION('',(-1.,0.,0.));
#217=DIRECTION('',(-1.,0.,0.));
#218=DIRECTION('',(0.,0.,1.));
#219=DIRECTION('',(1.,0.,0.));
#220=DIRECTION('',(0.,0.,-1.));
#221=DIRECTION('',(1.,0.,0.));
#222=DIRECTION('',(0.,0.,-1.));
#223=DIRECTION('',(-1.,0.,0.));
#224=DIRECTION('',(0.,0.,1.));
#225=DIRECTION('',(1.,0.,0.));
#226=DIRECTION('',(0.,0.,-1.));
#227=DIRECTION('',(1.,0.,0.));
#228=DIRECTION('',(0.,0.,-1.));
#229=DIRECTION('',(-1.,0.,0.));
#230=DIRECTION('',(0.,0.,1.));
#231=DIRECTION('',(1.,0.,0.));
#232=DIRECTION('',(0.,0.,-1.));
#233=DIRECTION('',(1.,0.,0.));
#234=DIRECTION('',(0.,0.,-1.));
#235=DIRECTION('',(-1.,0.,0.));
#236=DIRECTION('',(0.,0.,1.));
#237=DIRECTION('',(1.,0.,0.));
#238=DIRECTION('',(0.,0.,-1.));
#239=DIRECTION('',(1.,0.,0.));
#240=DIRECTION('',(0.,0.,-1.));
#241=DIRECTION('',(1.,0.,0.));
#242=DIRECTION('',(0.,1.,0.));
#243=DIRECTION('',(-1.,0.,0.));
#244=DIRECTION('',(0.,0.,1.));
#245=DIRECTION('',(1.,0.,0.));
#246=DIRECTION('',(0.,0.,-1.));
#247=DIRECTION('',(1.,0.,0.));
#248=DIRECTION('',(0.,0.,-1.));
#249=DIRECTION('',(-1.,0.,0.));
#250=DIRECTION('',(0.,-1.,0.));
#251=DIRECTION('',(1.,0.,0.));
#252=DIRECTION('',(0.,1.,0.));
#253=CARTESIAN_POINT('',(0.,0.,0.));
#254=CARTESIAN_POINT('',(0.01,0.04,0.0375));
#255=CARTESIAN_POINT('',(0.0092,0.04,0.0375));
#256=CARTESIAN_POINT('',(0.0092,0.04,0.));
#257=CARTESIAN_POINT('',(0.0092,0.04,0.075));
#258=CARTESIAN_POINT('',(0.01,0.04,0.));
#259=CARTESIAN_POINT('',(0.00885,0.04,0.));
#260=CARTESIAN_POINT('',(0.01,0.04,0.));
#261=CARTESIAN_POINT('',(0.,0.04,0.));
#262=CARTESIAN_POINT('',(0.,0.04,0.0375));
#263=CARTESIAN_POINT('',(0.,0.04,0.075));
#264=CARTESIAN_POINT('',(0.01,0.04,0.075));
#265=CARTESIAN_POINT('',(0.01,0.03,0.0373311967855114));
#266=CARTESIAN_POINT('',(0.01,0.03,6.12323399573677E-19));
#267=CARTESIAN_POINT('',(0.0092,0.03,6.12323399573677E-19));
#268=CARTESIAN_POINT('',(0.00885,0.03,0.));
#269=CARTESIAN_POINT('',(0.0092,0.03,0.0373311967855114));
#270=CARTESIAN_POINT('',(0.0092,0.03,0.075));
#271=CARTESIAN_POINT('',(0.01,0.03,0.075));
#272=CARTESIAN_POINT('',(0.,0.03,0.075));
#273=CARTESIAN_POINT('',(0.,0.03,0.0373311967855114));
#274=CARTESIAN_POINT('',(0.,0.03,6.12323399573677E-19));
#275=CARTESIAN_POINT('',(0.01,0.03,6.12323399573677E-19));
#276=CARTESIAN_POINT('',(0.01,0.035,0.075));
#277=CARTESIAN_POINT('',(0.0092,0.035,0.075));
#278=CARTESIAN_POINT('',(0.,0.035,0.075));
#279=CARTESIAN_POINT('',(0.01,0.035,0.075));
#280=CARTESIAN_POINT('',(0.,0.035,0.075));
#281=CARTESIAN_POINT('',(0.,0.035,0.0727));
#282=CARTESIAN_POINT('',(0.0092,0.035,0.075));
#283=CARTESIAN_POINT('',(0.0092,0.035,0.0727));
#284=CARTESIAN_POINT('',(0.01,0.035,7.3984256878104E-19));
#285=CARTESIAN_POINT('',(0.00885,0.035,0.));
#286=CARTESIAN_POINT('',(0.,0.035,7.3984256878104E-19));
#287=CARTESIAN_POINT('',(0.01,0.035,0.));
#288=CARTESIAN_POINT('',(0.00885,0.035,0.));
#289=CARTESIAN_POINT('',(0.00885,0.035,-0.0023));
#290=CARTESIAN_POINT('',(0.,0.035,0.));
#291=CARTESIAN_POINT('',(0.,0.035,-0.0023));
#292=CARTESIAN_POINT('',(0.,-0.02,0.0416024456129893));
#293=CARTESIAN_POINT('',(0.0102,0.035,0.));
#294=CARTESIAN_POINT('',(0.0092,0.035,0.));
#295=CARTESIAN_POINT('',(0.00885,0.035,0.));
#296=CARTESIAN_POINT('',(0.00885,0.0281292672176885,4.29771755880263E-6));
#297=CARTESIAN_POINT('',(0.0092,-0.02,0.0416024456129893));
#298=MECHANICAL_DESIGN_GEOMETRIC_PRESENTATION_REPRESENTATION('',(#169),
#299);
#299=(
GEOMETRIC_REPRESENTATION_CONTEXT(3)
GLOBAL_UNCERTAINTY_ASSIGNED_CONTEXT((#300))
GLOBAL_UNIT_ASSIGNED_CONTEXT((#303,#302,#301))
REPRESENTATION_CONTEXT('Main Dead Link','TOP_LEVEL_ASSEMBLY_PART')
);
#300=UNCERTAINTY_MEASURE_WITH_UNIT(LENGTH_MEASURE(1.E-8),#303,
'DISTANCE_ACCURACY_VALUE','Maximum Tolerance applied to model');
#301=(
NAMED_UNIT(*)
SI_UNIT($,.STERADIAN.)
SOLID_ANGLE_UNIT()
);
#302=(
NAMED_UNIT(*)
PLANE_ANGLE_UNIT()
SI_UNIT($,.RADIAN.)
);
#303=(
LENGTH_UNIT()
NAMED_UNIT(*)
SI_UNIT($,.METRE.)
);
#304=PRODUCT_DEFINITION_SHAPE('','',#305);
#305=PRODUCT_DEFINITION('','',#307,#306);
#306=PRODUCT_DEFINITION_CONTEXT('',#313,'design');
#307=PRODUCT_DEFINITION_FORMATION_WITH_SPECIFIED_SOURCE('','',#309,
 .NOT_KNOWN.);
#308=PRODUCT_RELATED_PRODUCT_CATEGORY('','',(#309));
#309=PRODUCT('Main Dead Link','Main Dead Link','Main Dead Link',(#311));
#310=PRODUCT_CATEGORY('','');
#311=PRODUCT_CONTEXT('',#313,'mechanical');
#312=APPLICATION_PROTOCOL_DEFINITION('international standard',
'ap242_managed_model_based_3d_engineering',2020,#313);
#313=APPLICATION_CONTEXT('managed model based 3d engineering');
ENDSEC;
END-ISO-10303-21;
