ISO-10303-21;
HEADER;
/* Generated by software containing ST-Developer
 * from STEP Tools, Inc. (www.steptools.com) 
 */
/* OPTION: using custom renumber hook */

FILE_DESCRIPTION(
/* description */ ('STEP AP242 Edition 2',
'CAx-IF Rec.Pracs.---Representation and Presentation of Product Manufa
cturing Information (PMI)---4.0---2014-10-13',
'CAx-IF Rec.Pracs.---3D Tessellated Geometry---0.4---2014-09-14','2;1',
'CAx-IF Rec.Pracs.---User Defined Attributes---1.5---2016-08-15'),
/* implementation_level */ '2;1');

FILE_NAME(
/* name */ 'LimeArm MKI - Claw Mount',
/* time_stamp */ '2026-05-27T02:34:58Z',
/* author */ (''),
/* organization */ (''),
/* preprocessor_version */ 'ST-DEVELOPER v20',
/* originating_system */ 'ONSHAPE BY PTC INC, 1.215',
/* authorisation */ '  ');

FILE_SCHEMA (('AP242_MANAGED_MODEL_BASED_3D_ENGINEERING_MIM_LF { 1 0 10303 442 3 1 4 }'));
ENDSEC;

DATA;
#10=SHAPE_REPRESENTATION_RELATIONSHIP('','',#582,#11);
#11=ADVANCED_BREP_SHAPE_REPRESENTATION('',(#580),#954);
#12=LINE('',#809,#61);
#13=LINE('',#812,#62);
#14=LINE('',#814,#63);
#15=LINE('',#816,#64);
#16=LINE('',#823,#65);
#17=LINE('',#826,#66);
#18=LINE('',#828,#67);
#19=LINE('',#830,#68);
#20=LINE('',#832,#69);
#21=LINE('',#835,#70);
#22=LINE('',#837,#71);
#23=LINE('',#839,#72);
#24=LINE('',#840,#73);
#25=LINE('',#842,#74);
#26=LINE('',#844,#75);
#27=LINE('',#846,#76);
#28=LINE('',#848,#77);
#29=LINE('',#850,#78);
#30=LINE('',#852,#79);
#31=LINE('',#855,#80);
#32=LINE('',#857,#81);
#33=LINE('',#859,#82);
#34=LINE('',#861,#83);
#35=LINE('',#863,#84);
#36=LINE('',#865,#85);
#37=LINE('',#867,#86);
#38=LINE('',#869,#87);
#39=LINE('',#871,#88);
#40=LINE('',#873,#89);
#41=LINE('',#874,#90);
#42=LINE('',#876,#91);
#43=LINE('',#877,#92);
#44=LINE('',#879,#93);
#45=LINE('',#883,#94);
#46=LINE('',#885,#95);
#47=LINE('',#895,#96);
#48=LINE('',#897,#97);
#49=LINE('',#899,#98);
#50=LINE('',#901,#99);
#51=LINE('',#903,#100);
#52=LINE('',#905,#101);
#53=LINE('',#907,#102);
#54=LINE('',#910,#103);
#55=LINE('',#912,#104);
#56=LINE('',#914,#105);
#57=LINE('',#916,#106);
#58=LINE('',#919,#107);
#59=LINE('',#921,#108);
#60=LINE('',#923,#109);
#61=VECTOR('',#654,1.);
#62=VECTOR('',#655,1.);
#63=VECTOR('',#656,1.);
#64=VECTOR('',#657,1.);
#65=VECTOR('',#666,1.);
#66=VECTOR('',#667,1.);
#67=VECTOR('',#668,1.);
#68=VECTOR('',#669,1.);
#69=VECTOR('',#672,1.);
#70=VECTOR('',#673,1.);
#71=VECTOR('',#674,1.);
#72=VECTOR('',#675,1.);
#73=VECTOR('',#676,1.);
#74=VECTOR('',#679,1.);
#75=VECTOR('',#680,1.);
#76=VECTOR('',#681,1.);
#77=VECTOR('',#682,1.);
#78=VECTOR('',#683,1.);
#79=VECTOR('',#686,1.);
#80=VECTOR('',#687,1.);
#81=VECTOR('',#688,1.);
#82=VECTOR('',#689,1.);
#83=VECTOR('',#692,1.);
#84=VECTOR('',#693,1.);
#85=VECTOR('',#694,1.);
#86=VECTOR('',#697,1.);
#87=VECTOR('',#698,1.);
#88=VECTOR('',#699,1.);
#89=VECTOR('',#702,1.);
#90=VECTOR('',#703,1.);
#91=VECTOR('',#706,1.);
#92=VECTOR('',#707,1.);
#93=VECTOR('',#710,1.);
#94=VECTOR('',#715,1.);
#95=VECTOR('',#718,1.);
#96=VECTOR('',#731,1.);
#97=VECTOR('',#732,1.);
#98=VECTOR('',#733,1.);
#99=VECTOR('',#736,1.);
#100=VECTOR('',#737,1.);
#101=VECTOR('',#738,1.);
#102=VECTOR('',#741,1.);
#103=VECTOR('',#742,1.);
#104=VECTOR('',#743,1.);
#105=VECTOR('',#744,1.);
#106=VECTOR('',#747,1.);
#107=VECTOR('',#748,1.);
#108=VECTOR('',#749,1.);
#109=VECTOR('',#750,1.);
#110=PLANE('',#590);
#111=PLANE('',#594);
#112=PLANE('',#595);
#113=PLANE('',#596);
#114=PLANE('',#597);
#115=PLANE('',#598);
#116=PLANE('',#599);
#117=PLANE('',#600);
#118=PLANE('',#601);
#119=PLANE('',#602);
#120=PLANE('',#603);
#121=PLANE('',#605);
#122=PLANE('',#608);
#123=PLANE('',#609);
#124=PLANE('',#612);
#125=PLANE('',#613);
#126=PLANE('',#614);
#127=PLANE('',#621);
#128=PLANE('',#625);
#129=PLANE('',#634);
#130=PLANE('',#637);
#131=ORIENTED_EDGE('',*,*,#273,.T.);
#132=ORIENTED_EDGE('',*,*,#274,.F.);
#133=ORIENTED_EDGE('',*,*,#275,.F.);
#134=ORIENTED_EDGE('',*,*,#276,.T.);
#135=ORIENTED_EDGE('',*,*,#277,.T.);
#136=ORIENTED_EDGE('',*,*,#278,.T.);
#137=ORIENTED_EDGE('',*,*,#279,.F.);
#138=ORIENTED_EDGE('',*,*,#280,.F.);
#139=ORIENTED_EDGE('',*,*,#281,.T.);
#140=ORIENTED_EDGE('',*,*,#282,.F.);
#141=ORIENTED_EDGE('',*,*,#283,.F.);
#142=ORIENTED_EDGE('',*,*,#284,.T.);
#143=ORIENTED_EDGE('',*,*,#285,.T.);
#144=ORIENTED_EDGE('',*,*,#286,.F.);
#145=ORIENTED_EDGE('',*,*,#287,.F.);
#146=ORIENTED_EDGE('',*,*,#288,.T.);
#147=ORIENTED_EDGE('',*,*,#289,.T.);
#148=ORIENTED_EDGE('',*,*,#290,.F.);
#149=ORIENTED_EDGE('',*,*,#286,.T.);
#150=ORIENTED_EDGE('',*,*,#291,.F.);
#151=ORIENTED_EDGE('',*,*,#284,.F.);
#152=ORIENTED_EDGE('',*,*,#292,.T.);
#153=ORIENTED_EDGE('',*,*,#293,.F.);
#154=ORIENTED_EDGE('',*,*,#294,.T.);
#155=ORIENTED_EDGE('',*,*,#295,.T.);
#156=ORIENTED_EDGE('',*,*,#296,.F.);
#157=ORIENTED_EDGE('',*,*,#297,.F.);
#158=ORIENTED_EDGE('',*,*,#298,.T.);
#159=ORIENTED_EDGE('',*,*,#299,.T.);
#160=ORIENTED_EDGE('',*,*,#300,.F.);
#161=ORIENTED_EDGE('',*,*,#301,.T.);
#162=ORIENTED_EDGE('',*,*,#302,.F.);
#163=ORIENTED_EDGE('',*,*,#303,.F.);
#164=ORIENTED_EDGE('',*,*,#280,.T.);
#165=ORIENTED_EDGE('',*,*,#304,.T.);
#166=ORIENTED_EDGE('',*,*,#305,.F.);
#167=ORIENTED_EDGE('',*,*,#306,.F.);
#168=ORIENTED_EDGE('',*,*,#302,.T.);
#169=ORIENTED_EDGE('',*,*,#307,.F.);
#170=ORIENTED_EDGE('',*,*,#299,.F.);
#171=ORIENTED_EDGE('',*,*,#308,.T.);
#172=ORIENTED_EDGE('',*,*,#305,.T.);
#173=ORIENTED_EDGE('',*,*,#309,.F.);
#174=ORIENTED_EDGE('',*,*,#295,.F.);
#175=ORIENTED_EDGE('',*,*,#310,.T.);
#176=ORIENTED_EDGE('',*,*,#287,.T.);
#177=ORIENTED_EDGE('',*,*,#296,.T.);
#178=ORIENTED_EDGE('',*,*,#309,.T.);
#179=ORIENTED_EDGE('',*,*,#291,.T.);
#180=ORIENTED_EDGE('',*,*,#285,.F.);
#181=ORIENTED_EDGE('',*,*,#273,.F.);
#182=ORIENTED_EDGE('',*,*,#279,.T.);
#183=ORIENTED_EDGE('',*,*,#311,.T.);
#184=ORIENTED_EDGE('',*,*,#300,.T.);
#185=ORIENTED_EDGE('',*,*,#307,.T.);
#186=ORIENTED_EDGE('',*,*,#304,.F.);
#187=ORIENTED_EDGE('',*,*,#301,.F.);
#188=ORIENTED_EDGE('',*,*,#275,.T.);
#189=ORIENTED_EDGE('',*,*,#312,.F.);
#190=ORIENTED_EDGE('',*,*,#292,.F.);
#191=ORIENTED_EDGE('',*,*,#283,.T.);
#192=ORIENTED_EDGE('',*,*,#290,.T.);
#193=ORIENTED_EDGE('',*,*,#313,.F.);
#194=ORIENTED_EDGE('',*,*,#289,.F.);
#195=ORIENTED_EDGE('',*,*,#314,.F.);
#196=ORIENTED_EDGE('',*,*,#293,.T.);
#197=ORIENTED_EDGE('',*,*,#313,.T.);
#198=ORIENTED_EDGE('',*,*,#315,.F.);
#199=ORIENTED_EDGE('',*,*,#312,.T.);
#200=ORIENTED_EDGE('',*,*,#281,.F.);
#201=ORIENTED_EDGE('',*,*,#315,.T.);
#202=ORIENTED_EDGE('',*,*,#316,.F.);
#203=ORIENTED_EDGE('',*,*,#317,.F.);
#204=ORIENTED_EDGE('',*,*,#282,.T.);
#205=ORIENTED_EDGE('',*,*,#294,.F.);
#206=ORIENTED_EDGE('',*,*,#314,.T.);
#207=ORIENTED_EDGE('',*,*,#288,.F.);
#208=ORIENTED_EDGE('',*,*,#310,.F.);
#209=ORIENTED_EDGE('',*,*,#318,.F.);
#210=ORIENTED_EDGE('',*,*,#319,.T.);
#211=ORIENTED_EDGE('',*,*,#320,.T.);
#212=ORIENTED_EDGE('',*,*,#277,.F.);
#213=ORIENTED_EDGE('',*,*,#303,.T.);
#214=ORIENTED_EDGE('',*,*,#306,.T.);
#215=ORIENTED_EDGE('',*,*,#308,.F.);
#216=ORIENTED_EDGE('',*,*,#298,.F.);
#217=ORIENTED_EDGE('',*,*,#321,.T.);
#218=ORIENTED_EDGE('',*,*,#322,.T.);
#219=ORIENTED_EDGE('',*,*,#323,.F.);
#220=ORIENTED_EDGE('',*,*,#311,.F.);
#221=ORIENTED_EDGE('',*,*,#324,.T.);
#222=ORIENTED_EDGE('',*,*,#325,.T.);
#223=ORIENTED_EDGE('',*,*,#326,.F.);
#224=ORIENTED_EDGE('',*,*,#327,.T.);
#225=ORIENTED_EDGE('',*,*,#328,.F.);
#226=ORIENTED_EDGE('',*,*,#329,.T.);
#227=ORIENTED_EDGE('',*,*,#330,.T.);
#228=ORIENTED_EDGE('',*,*,#331,.T.);
#229=ORIENTED_EDGE('',*,*,#332,.F.);
#230=ORIENTED_EDGE('',*,*,#333,.T.);
#231=ORIENTED_EDGE('',*,*,#334,.F.);
#232=ORIENTED_EDGE('',*,*,#335,.T.);
#233=ORIENTED_EDGE('',*,*,#332,.T.);
#234=ORIENTED_EDGE('',*,*,#326,.T.);
#235=ORIENTED_EDGE('',*,*,#336,.T.);
#236=ORIENTED_EDGE('',*,*,#318,.T.);
#237=ORIENTED_EDGE('',*,*,#297,.T.);
#238=ORIENTED_EDGE('',*,*,#323,.T.);
#239=ORIENTED_EDGE('',*,*,#337,.T.);
#240=ORIENTED_EDGE('',*,*,#328,.T.);
#241=ORIENTED_EDGE('',*,*,#338,.T.);
#242=ORIENTED_EDGE('',*,*,#334,.T.);
#243=ORIENTED_EDGE('',*,*,#333,.F.);
#244=ORIENTED_EDGE('',*,*,#320,.F.);
#245=ORIENTED_EDGE('',*,*,#339,.T.);
#246=ORIENTED_EDGE('',*,*,#324,.F.);
#247=ORIENTED_EDGE('',*,*,#340,.T.);
#248=ORIENTED_EDGE('',*,*,#330,.F.);
#249=ORIENTED_EDGE('',*,*,#341,.T.);
#250=ORIENTED_EDGE('',*,*,#321,.F.);
#251=ORIENTED_EDGE('',*,*,#278,.F.);
#252=ORIENTED_EDGE('',*,*,#335,.F.);
#253=ORIENTED_EDGE('',*,*,#336,.F.);
#254=ORIENTED_EDGE('',*,*,#325,.F.);
#255=ORIENTED_EDGE('',*,*,#339,.F.);
#256=ORIENTED_EDGE('',*,*,#319,.F.);
#257=ORIENTED_EDGE('',*,*,#337,.F.);
#258=ORIENTED_EDGE('',*,*,#322,.F.);
#259=ORIENTED_EDGE('',*,*,#341,.F.);
#260=ORIENTED_EDGE('',*,*,#329,.F.);
#261=ORIENTED_EDGE('',*,*,#338,.F.);
#262=ORIENTED_EDGE('',*,*,#331,.F.);
#263=ORIENTED_EDGE('',*,*,#340,.F.);
#264=ORIENTED_EDGE('',*,*,#327,.F.);
#265=ORIENTED_EDGE('',*,*,#342,.F.);
#266=ORIENTED_EDGE('',*,*,#317,.T.);
#267=ORIENTED_EDGE('',*,*,#276,.F.);
#268=ORIENTED_EDGE('',*,*,#342,.T.);
#269=ORIENTED_EDGE('',*,*,#343,.F.);
#270=ORIENTED_EDGE('',*,*,#316,.T.);
#271=ORIENTED_EDGE('',*,*,#274,.T.);
#272=ORIENTED_EDGE('',*,*,#343,.T.);
#273=EDGE_CURVE('',#344,#344,#396,.T.);
#274=EDGE_CURVE('',#345,#345,#397,.T.);
#275=EDGE_CURVE('',#346,#346,#398,.T.);
#276=EDGE_CURVE('',#347,#347,#399,.T.);
#277=EDGE_CURVE('',#348,#349,#12,.T.);
#278=EDGE_CURVE('',#349,#350,#13,.T.);
#279=EDGE_CURVE('',#351,#350,#14,.T.);
#280=EDGE_CURVE('',#348,#351,#15,.T.);
#281=EDGE_CURVE('',#352,#352,#400,.F.);
#282=EDGE_CURVE('',#353,#353,#401,.F.);
#283=EDGE_CURVE('',#354,#355,#16,.T.);
#284=EDGE_CURVE('',#354,#356,#17,.T.);
#285=EDGE_CURVE('',#356,#357,#18,.T.);
#286=EDGE_CURVE('',#355,#357,#19,.T.);
#287=EDGE_CURVE('',#358,#359,#20,.T.);
#288=EDGE_CURVE('',#358,#360,#21,.T.);
#289=EDGE_CURVE('',#360,#361,#22,.T.);
#290=EDGE_CURVE('',#355,#361,#23,.T.);
#291=EDGE_CURVE('',#359,#357,#24,.T.);
#292=EDGE_CURVE('',#354,#362,#25,.T.);
#293=EDGE_CURVE('',#363,#362,#26,.T.);
#294=EDGE_CURVE('',#363,#364,#27,.T.);
#295=EDGE_CURVE('',#364,#365,#28,.T.);
#296=EDGE_CURVE('',#356,#365,#29,.T.);
#297=EDGE_CURVE('',#366,#367,#30,.T.);
#298=EDGE_CURVE('',#366,#368,#31,.T.);
#299=EDGE_CURVE('',#368,#369,#32,.T.);
#300=EDGE_CURVE('',#367,#369,#33,.T.);
#301=EDGE_CURVE('',#351,#370,#34,.T.);
#302=EDGE_CURVE('',#371,#370,#35,.T.);
#303=EDGE_CURVE('',#348,#371,#36,.T.);
#304=EDGE_CURVE('',#370,#372,#37,.T.);
#305=EDGE_CURVE('',#373,#372,#38,.T.);
#306=EDGE_CURVE('',#371,#373,#39,.T.);
#307=EDGE_CURVE('',#369,#372,#40,.T.);
#308=EDGE_CURVE('',#368,#373,#41,.T.);
#309=EDGE_CURVE('',#365,#359,#42,.T.);
#310=EDGE_CURVE('',#364,#358,#43,.T.);
#311=EDGE_CURVE('',#350,#367,#44,.T.);
#312=EDGE_CURVE('',#374,#374,#402,.T.);
#313=EDGE_CURVE('',#362,#361,#45,.T.);
#314=EDGE_CURVE('',#363,#360,#46,.T.);
#315=EDGE_CURVE('',#375,#375,#403,.T.);
#316=EDGE_CURVE('',#376,#376,#404,.T.);
#317=EDGE_CURVE('',#377,#377,#405,.T.);
#318=EDGE_CURVE('',#378,#366,#47,.T.);
#319=EDGE_CURVE('',#378,#379,#48,.T.);
#320=EDGE_CURVE('',#379,#349,#49,.T.);
#321=EDGE_CURVE('',#350,#380,#50,.T.);
#322=EDGE_CURVE('',#380,#381,#51,.F.);
#323=EDGE_CURVE('',#367,#381,#52,.T.);
#324=EDGE_CURVE('',#382,#383,#53,.T.);
#325=EDGE_CURVE('',#383,#384,#54,.F.);
#326=EDGE_CURVE('',#385,#384,#55,.T.);
#327=EDGE_CURVE('',#385,#382,#56,.T.);
#328=EDGE_CURVE('',#386,#387,#57,.T.);
#329=EDGE_CURVE('',#386,#388,#58,.T.);
#330=EDGE_CURVE('',#388,#389,#59,.T.);
#331=EDGE_CURVE('',#389,#387,#60,.F.);
#332=EDGE_CURVE('',#390,#390,#406,.T.);
#333=EDGE_CURVE('',#391,#391,#407,.T.);
#334=EDGE_CURVE('',#392,#392,#408,.T.);
#335=EDGE_CURVE('',#393,#393,#409,.T.);
#336=EDGE_CURVE('',#384,#378,#410,.F.);
#337=EDGE_CURVE('',#381,#386,#411,.F.);
#338=EDGE_CURVE('',#387,#385,#412,.F.);
#339=EDGE_CURVE('',#379,#383,#413,.T.);
#340=EDGE_CURVE('',#382,#389,#414,.T.);
#341=EDGE_CURVE('',#388,#380,#415,.T.);
#342=EDGE_CURVE('',#394,#394,#416,.T.);
#343=EDGE_CURVE('',#395,#395,#417,.T.);
#344=VERTEX_POINT('',#800);
#345=VERTEX_POINT('',#802);
#346=VERTEX_POINT('',#805);
#347=VERTEX_POINT('',#807);
#348=VERTEX_POINT('',#810);
#349=VERTEX_POINT('',#811);
#350=VERTEX_POINT('',#813);
#351=VERTEX_POINT('',#815);
#352=VERTEX_POINT('',#819);
#353=VERTEX_POINT('',#821);
#354=VERTEX_POINT('',#824);
#355=VERTEX_POINT('',#825);
#356=VERTEX_POINT('',#827);
#357=VERTEX_POINT('',#829);
#358=VERTEX_POINT('',#833);
#359=VERTEX_POINT('',#834);
#360=VERTEX_POINT('',#836);
#361=VERTEX_POINT('',#838);
#362=VERTEX_POINT('',#843);
#363=VERTEX_POINT('',#845);
#364=VERTEX_POINT('',#847);
#365=VERTEX_POINT('',#849);
#366=VERTEX_POINT('',#853);
#367=VERTEX_POINT('',#854);
#368=VERTEX_POINT('',#856);
#369=VERTEX_POINT('',#858);
#370=VERTEX_POINT('',#862);
#371=VERTEX_POINT('',#864);
#372=VERTEX_POINT('',#868);
#373=VERTEX_POINT('',#870);
#374=VERTEX_POINT('',#882);
#375=VERTEX_POINT('',#888);
#376=VERTEX_POINT('',#892);
#377=VERTEX_POINT('',#894);
#378=VERTEX_POINT('',#896);
#379=VERTEX_POINT('',#898);
#380=VERTEX_POINT('',#902);
#381=VERTEX_POINT('',#904);
#382=VERTEX_POINT('',#908);
#383=VERTEX_POINT('',#909);
#384=VERTEX_POINT('',#911);
#385=VERTEX_POINT('',#913);
#386=VERTEX_POINT('',#917);
#387=VERTEX_POINT('',#918);
#388=VERTEX_POINT('',#920);
#389=VERTEX_POINT('',#922);
#390=VERTEX_POINT('',#926);
#391=VERTEX_POINT('',#928);
#392=VERTEX_POINT('',#931);
#393=VERTEX_POINT('',#933);
#394=VERTEX_POINT('',#947);
#395=VERTEX_POINT('',#951);
#396=CIRCLE('',#585,0.0012);
#397=CIRCLE('',#586,0.0012);
#398=CIRCLE('',#588,0.0012);
#399=CIRCLE('',#589,0.0012);
#400=CIRCLE('',#592,0.0012);
#401=CIRCLE('',#593,0.0012);
#402=CIRCLE('',#604,0.002);
#403=CIRCLE('',#607,0.002);
#404=CIRCLE('',#610,0.002);
#405=CIRCLE('',#611,0.002);
#406=CIRCLE('',#616,0.0023);
#407=CIRCLE('',#617,0.0023);
#408=CIRCLE('',#619,0.0023);
#409=CIRCLE('',#620,0.0023);
#410=CIRCLE('',#622,0.005);
#411=CIRCLE('',#623,0.005);
#412=CIRCLE('',#624,0.005);
#413=CIRCLE('',#626,0.005);
#414=CIRCLE('',#627,0.005);
#415=CIRCLE('',#628,0.005);
#416=CIRCLE('',#633,0.002);
#417=CIRCLE('',#636,0.002);
#418=EDGE_LOOP('',(#131));
#419=EDGE_LOOP('',(#132));
#420=EDGE_LOOP('',(#133));
#421=EDGE_LOOP('',(#134));
#422=EDGE_LOOP('',(#135,#136,#137,#138));
#423=EDGE_LOOP('',(#139));
#424=EDGE_LOOP('',(#140));
#425=EDGE_LOOP('',(#141,#142,#143,#144));
#426=EDGE_LOOP('',(#145,#146,#147,#148,#149,#150));
#427=EDGE_LOOP('',(#151,#152,#153,#154,#155,#156));
#428=EDGE_LOOP('',(#157,#158,#159,#160));
#429=EDGE_LOOP('',(#161,#162,#163,#164));
#430=EDGE_LOOP('',(#165,#166,#167,#168));
#431=EDGE_LOOP('',(#169,#170,#171,#172));
#432=EDGE_LOOP('',(#173,#174,#175,#176));
#433=EDGE_LOOP('',(#177,#178,#179,#180));
#434=EDGE_LOOP('',(#181));
#435=EDGE_LOOP('',(#182,#183,#184,#185,#186,#187));
#436=EDGE_LOOP('',(#188));
#437=EDGE_LOOP('',(#189));
#438=EDGE_LOOP('',(#190,#191,#192,#193));
#439=EDGE_LOOP('',(#194,#195,#196,#197));
#440=EDGE_LOOP('',(#198));
#441=EDGE_LOOP('',(#199));
#442=EDGE_LOOP('',(#200));
#443=EDGE_LOOP('',(#201));
#444=EDGE_LOOP('',(#202));
#445=EDGE_LOOP('',(#203));
#446=EDGE_LOOP('',(#204));
#447=EDGE_LOOP('',(#205,#206,#207,#208));
#448=EDGE_LOOP('',(#209,#210,#211,#212,#213,#214,#215,#216));
#449=EDGE_LOOP('',(#217,#218,#219,#220));
#450=EDGE_LOOP('',(#221,#222,#223,#224));
#451=EDGE_LOOP('',(#225,#226,#227,#228));
#452=EDGE_LOOP('',(#229));
#453=EDGE_LOOP('',(#230));
#454=EDGE_LOOP('',(#231));
#455=EDGE_LOOP('',(#232));
#456=EDGE_LOOP('',(#233));
#457=EDGE_LOOP('',(#234,#235,#236,#237,#238,#239,#240,#241));
#458=EDGE_LOOP('',(#242));
#459=EDGE_LOOP('',(#243));
#460=EDGE_LOOP('',(#244,#245,#246,#247,#248,#249,#250,#251));
#461=EDGE_LOOP('',(#252));
#462=EDGE_LOOP('',(#253,#254,#255,#256));
#463=EDGE_LOOP('',(#257,#258,#259,#260));
#464=EDGE_LOOP('',(#261,#262,#263,#264));
#465=EDGE_LOOP('',(#265));
#466=EDGE_LOOP('',(#266));
#467=EDGE_LOOP('',(#267));
#468=EDGE_LOOP('',(#268));
#469=EDGE_LOOP('',(#269));
#470=EDGE_LOOP('',(#270));
#471=EDGE_LOOP('',(#271));
#472=EDGE_LOOP('',(#272));
#473=FACE_BOUND('',#418,.T.);
#474=FACE_BOUND('',#419,.T.);
#475=FACE_BOUND('',#420,.T.);
#476=FACE_BOUND('',#421,.T.);
#477=FACE_BOUND('',#422,.T.);
#478=FACE_BOUND('',#423,.T.);
#479=FACE_BOUND('',#424,.T.);
#480=FACE_BOUND('',#425,.T.);
#481=FACE_BOUND('',#426,.T.);
#482=FACE_BOUND('',#427,.T.);
#483=FACE_BOUND('',#428,.T.);
#484=FACE_BOUND('',#429,.T.);
#485=FACE_BOUND('',#430,.T.);
#486=FACE_BOUND('',#431,.T.);
#487=FACE_BOUND('',#432,.T.);
#488=FACE_BOUND('',#433,.T.);
#489=FACE_BOUND('',#434,.T.);
#490=FACE_BOUND('',#435,.T.);
#491=FACE_BOUND('',#436,.T.);
#492=FACE_BOUND('',#437,.T.);
#493=FACE_BOUND('',#438,.T.);
#494=FACE_BOUND('',#439,.T.);
#495=FACE_BOUND('',#440,.T.);
#496=FACE_BOUND('',#441,.T.);
#497=FACE_BOUND('',#442,.T.);
#498=FACE_BOUND('',#443,.T.);
#499=FACE_BOUND('',#444,.T.);
#500=FACE_BOUND('',#445,.T.);
#501=FACE_BOUND('',#446,.T.);
#502=FACE_BOUND('',#447,.T.);
#503=FACE_BOUND('',#448,.T.);
#504=FACE_BOUND('',#449,.T.);
#505=FACE_BOUND('',#450,.T.);
#506=FACE_BOUND('',#451,.T.);
#507=FACE_BOUND('',#452,.T.);
#508=FACE_BOUND('',#453,.T.);
#509=FACE_BOUND('',#454,.T.);
#510=FACE_BOUND('',#455,.T.);
#511=FACE_BOUND('',#456,.T.);
#512=FACE_BOUND('',#457,.T.);
#513=FACE_BOUND('',#458,.T.);
#514=FACE_BOUND('',#459,.T.);
#515=FACE_BOUND('',#460,.T.);
#516=FACE_BOUND('',#461,.T.);
#517=FACE_BOUND('',#462,.T.);
#518=FACE_BOUND('',#463,.T.);
#519=FACE_BOUND('',#464,.T.);
#520=FACE_BOUND('',#465,.T.);
#521=FACE_BOUND('',#466,.T.);
#522=FACE_BOUND('',#467,.T.);
#523=FACE_BOUND('',#468,.T.);
#524=FACE_BOUND('',#469,.T.);
#525=FACE_BOUND('',#470,.T.);
#526=FACE_BOUND('',#471,.T.);
#527=FACE_BOUND('',#472,.T.);
#528=CYLINDRICAL_SURFACE('',#584,0.0012);
#529=CYLINDRICAL_SURFACE('',#587,0.0012);
#530=CYLINDRICAL_SURFACE('',#591,0.0012);
#531=CYLINDRICAL_SURFACE('',#606,0.002);
#532=CYLINDRICAL_SURFACE('',#615,0.0023);
#533=CYLINDRICAL_SURFACE('',#618,0.0023);
#534=CYLINDRICAL_SURFACE('',#629,0.005);
#535=CYLINDRICAL_SURFACE('',#630,0.005);
#536=CYLINDRICAL_SURFACE('',#631,0.005);
#537=CYLINDRICAL_SURFACE('',#632,0.002);
#538=CYLINDRICAL_SURFACE('',#635,0.002);
#539=ADVANCED_FACE('',(#473,#474),#528,.F.);
#540=ADVANCED_FACE('',(#475,#476),#529,.F.);
#541=ADVANCED_FACE('',(#477),#110,.T.);
#542=ADVANCED_FACE('',(#478,#479),#530,.F.);
#543=ADVANCED_FACE('',(#480),#111,.F.);
#544=ADVANCED_FACE('',(#481),#112,.T.);
#545=ADVANCED_FACE('',(#482),#113,.T.);
#546=ADVANCED_FACE('',(#483),#114,.T.);
#547=ADVANCED_FACE('',(#484),#115,.F.);
#548=ADVANCED_FACE('',(#485),#116,.F.);
#549=ADVANCED_FACE('',(#486),#117,.T.);
#550=ADVANCED_FACE('',(#487),#118,.T.);
#551=ADVANCED_FACE('',(#488,#489,#490,#491),#119,.F.);
#552=ADVANCED_FACE('',(#492,#493),#120,.F.);
#553=ADVANCED_FACE('',(#494),#121,.T.);
#554=ADVANCED_FACE('',(#495,#496),#531,.F.);
#555=ADVANCED_FACE('',(#497,#498),#122,.T.);
#556=ADVANCED_FACE('',(#499,#500,#501,#502,#503),#123,.T.);
#557=ADVANCED_FACE('',(#504),#124,.F.);
#558=ADVANCED_FACE('',(#505),#125,.F.);
#559=ADVANCED_FACE('',(#506),#126,.F.);
#560=ADVANCED_FACE('',(#507,#508),#532,.F.);
#561=ADVANCED_FACE('',(#509,#510),#533,.F.);
#562=ADVANCED_FACE('',(#511,#512,#513),#127,.F.);
#563=ADVANCED_FACE('',(#514,#515,#516),#128,.T.);
#564=ADVANCED_FACE('',(#517),#534,.T.);
#565=ADVANCED_FACE('',(#518),#535,.T.);
#566=ADVANCED_FACE('',(#519),#536,.T.);
#567=ADVANCED_FACE('',(#520,#521),#537,.F.);
#568=ADVANCED_FACE('',(#522,#523),#129,.T.);
#569=ADVANCED_FACE('',(#524,#525),#538,.F.);
#570=ADVANCED_FACE('',(#526,#527),#130,.T.);
#571=CLOSED_SHELL('',(#539,#540,#541,#542,#543,#544,#545,#546,#547,#548,
#549,#550,#551,#552,#553,#554,#555,#556,#557,#558,#559,#560,#561,#562,#563,
#564,#565,#566,#567,#568,#569,#570));
#572=STYLED_ITEM('',(#573),#580);
#573=PRESENTATION_STYLE_ASSIGNMENT((#574));
#574=SURFACE_STYLE_USAGE(.BOTH.,#575);
#575=SURFACE_SIDE_STYLE('',(#576));
#576=SURFACE_STYLE_FILL_AREA(#577);
#577=FILL_AREA_STYLE('',(#578));
#578=FILL_AREA_STYLE_COLOUR('',#579);
#579=COLOUR_RGB('',0.615686274509804,0.811764705882353,0.929411764705882);
#580=MANIFOLD_SOLID_BREP('Claw Mount',#571);
#581=SHAPE_DEFINITION_REPRESENTATION(#959,#582);
#582=SHAPE_REPRESENTATION('Claw Mount',(#583),#954);
#583=AXIS2_PLACEMENT_3D('',#797,#638,#639);
#584=AXIS2_PLACEMENT_3D('',#798,#640,#641);
#585=AXIS2_PLACEMENT_3D('',#799,#642,#643);
#586=AXIS2_PLACEMENT_3D('',#801,#644,#645);
#587=AXIS2_PLACEMENT_3D('',#803,#646,#647);
#588=AXIS2_PLACEMENT_3D('',#804,#648,#649);
#589=AXIS2_PLACEMENT_3D('',#806,#650,#651);
#590=AXIS2_PLACEMENT_3D('',#808,#652,#653);
#591=AXIS2_PLACEMENT_3D('',#817,#658,#659);
#592=AXIS2_PLACEMENT_3D('',#818,#660,#661);
#593=AXIS2_PLACEMENT_3D('',#820,#662,#663);
#594=AXIS2_PLACEMENT_3D('',#822,#664,#665);
#595=AXIS2_PLACEMENT_3D('',#831,#670,#671);
#596=AXIS2_PLACEMENT_3D('',#841,#677,#678);
#597=AXIS2_PLACEMENT_3D('',#851,#684,#685);
#598=AXIS2_PLACEMENT_3D('',#860,#690,#691);
#599=AXIS2_PLACEMENT_3D('',#866,#695,#696);
#600=AXIS2_PLACEMENT_3D('',#872,#700,#701);
#601=AXIS2_PLACEMENT_3D('',#875,#704,#705);
#602=AXIS2_PLACEMENT_3D('',#878,#708,#709);
#603=AXIS2_PLACEMENT_3D('',#880,#711,#712);
#604=AXIS2_PLACEMENT_3D('',#881,#713,#714);
#605=AXIS2_PLACEMENT_3D('',#884,#716,#717);
#606=AXIS2_PLACEMENT_3D('',#886,#719,#720);
#607=AXIS2_PLACEMENT_3D('',#887,#721,#722);
#608=AXIS2_PLACEMENT_3D('',#889,#723,#724);
#609=AXIS2_PLACEMENT_3D('',#890,#725,#726);
#610=AXIS2_PLACEMENT_3D('',#891,#727,#728);
#611=AXIS2_PLACEMENT_3D('',#893,#729,#730);
#612=AXIS2_PLACEMENT_3D('',#900,#734,#735);
#613=AXIS2_PLACEMENT_3D('',#906,#739,#740);
#614=AXIS2_PLACEMENT_3D('',#915,#745,#746);
#615=AXIS2_PLACEMENT_3D('',#924,#751,#752);
#616=AXIS2_PLACEMENT_3D('',#925,#753,#754);
#617=AXIS2_PLACEMENT_3D('',#927,#755,#756);
#618=AXIS2_PLACEMENT_3D('',#929,#757,#758);
#619=AXIS2_PLACEMENT_3D('',#930,#759,#760);
#620=AXIS2_PLACEMENT_3D('',#932,#761,#762);
#621=AXIS2_PLACEMENT_3D('',#934,#763,#764);
#622=AXIS2_PLACEMENT_3D('',#935,#765,#766);
#623=AXIS2_PLACEMENT_3D('',#936,#767,#768);
#624=AXIS2_PLACEMENT_3D('',#937,#769,#770);
#625=AXIS2_PLACEMENT_3D('',#938,#771,#772);
#626=AXIS2_PLACEMENT_3D('',#939,#773,#774);
#627=AXIS2_PLACEMENT_3D('',#940,#775,#776);
#628=AXIS2_PLACEMENT_3D('',#941,#777,#778);
#629=AXIS2_PLACEMENT_3D('',#942,#779,#780);
#630=AXIS2_PLACEMENT_3D('',#943,#781,#782);
#631=AXIS2_PLACEMENT_3D('',#944,#783,#784);
#632=AXIS2_PLACEMENT_3D('',#945,#785,#786);
#633=AXIS2_PLACEMENT_3D('',#946,#787,#788);
#634=AXIS2_PLACEMENT_3D('',#948,#789,#790);
#635=AXIS2_PLACEMENT_3D('',#949,#791,#792);
#636=AXIS2_PLACEMENT_3D('',#950,#793,#794);
#637=AXIS2_PLACEMENT_3D('',#952,#795,#796);
#638=DIRECTION('',(0.,0.,1.));
#639=DIRECTION('',(1.,0.,0.));
#640=DIRECTION('',(0.,1.22464679914735E-16,1.));
#641=DIRECTION('',(0.,1.,-1.22464679914735E-16));
#642=DIRECTION('',(0.,1.22464679914735E-16,1.));
#643=DIRECTION('',(0.,-1.,1.22464679914735E-16));
#644=DIRECTION('',(0.,1.22464679914735E-16,1.));
#645=DIRECTION('',(0.,-1.,1.22464679914735E-16));
#646=DIRECTION('',(0.,1.22464679914735E-16,1.));
#647=DIRECTION('',(0.,1.,-1.22464679914735E-16));
#648=DIRECTION('',(0.,-1.22464679914735E-16,-1.));
#649=DIRECTION('',(0.,-1.,1.22464679914735E-16));
#650=DIRECTION('',(0.,-1.22464679914735E-16,-1.));
#651=DIRECTION('',(0.,-1.,1.22464679914735E-16));
#652=DIRECTION('',(3.02849768850699E-16,1.,-1.22464679914735E-16));
#653=DIRECTION('',(-1.,3.02849768850699E-16,0.));
#654=DIRECTION('',(-1.,3.02849768850699E-16,-3.70884000045525E-32));
#655=DIRECTION('',(0.,1.3010426069826E-16,1.));
#656=DIRECTION('',(-1.,3.02849768850699E-16,-3.70884000045525E-32));
#657=DIRECTION('',(0.,1.22464679914735E-16,1.));
#658=DIRECTION('',(0.,1.22464679914735E-16,1.));
#659=DIRECTION('',(0.,1.,-1.22464679914735E-16));
#660=DIRECTION('',(-1.09237898746673E-31,-1.22464679914735E-16,-1.));
#661=DIRECTION('',(0.,-1.,1.22464679914735E-16));
#662=DIRECTION('',(0.,-1.22464679914735E-16,-1.));
#663=DIRECTION('',(0.,-1.,1.22464679914735E-16));
#664=DIRECTION('',(-1.,0.,0.));
#665=DIRECTION('',(0.,0.,1.));
#666=DIRECTION('',(-5.95613210635814E-16,-1.,1.22464679914735E-16));
#667=DIRECTION('',(0.,1.22464679914735E-16,1.));
#668=DIRECTION('',(0.,-1.,1.22464679914735E-16));
#669=DIRECTION('',(0.,1.22464679914735E-16,1.));
#670=DIRECTION('',(5.95613210635814E-16,1.,-1.22464679914735E-16));
#671=DIRECTION('',(-1.,5.95613210635814E-16,0.));
#672=DIRECTION('',(0.,1.22464679914735E-16,1.));
#673=DIRECTION('',(-1.,5.95613210635814E-16,-7.29415811935028E-32));
#674=DIRECTION('',(7.29415811935028E-32,1.22464679914735E-16,1.));
#675=DIRECTION('',(1.,-5.95613210635814E-16,-3.62963175531703E-32));
#676=DIRECTION('',(-1.,5.95613210635814E-16,-7.29415811935028E-32));
#677=DIRECTION('',(0.,-1.,1.22464679914735E-16));
#678=DIRECTION('',(0.,1.22464679914735E-16,1.));
#679=DIRECTION('',(1.,-1.33777843045696E-47,-1.09237898746673E-31));
#680=DIRECTION('',(7.29415811935028E-32,1.22464679914735E-16,1.));
#681=DIRECTION('',(1.,0.,0.));
#682=DIRECTION('',(0.,1.22464679914735E-16,1.));
#683=DIRECTION('',(1.,0.,0.));
#684=DIRECTION('',(3.02849768850699E-16,1.,-1.22464679914735E-16));
#685=DIRECTION('',(-1.,3.02849768850699E-16,0.));
#686=DIRECTION('',(0.,1.3010426069826E-16,1.));
#687=DIRECTION('',(-1.,3.02849768850699E-16,-3.70884000045525E-32));
#688=DIRECTION('',(0.,1.22464679914735E-16,1.));
#689=DIRECTION('',(-1.,3.02849768850699E-16,-3.70884000045525E-32));
#690=DIRECTION('',(-1.,0.,0.));
#691=DIRECTION('',(0.,0.,1.));
#692=DIRECTION('',(0.,-1.,1.22464679914735E-16));
#693=DIRECTION('',(0.,1.22464679914735E-16,1.));
#694=DIRECTION('',(0.,-1.,1.22464679914735E-16));
#695=DIRECTION('',(2.90735778096671E-16,1.,-1.22464679914735E-16));
#696=DIRECTION('',(-1.,2.90735778096671E-16,0.));
#697=DIRECTION('',(-1.,2.90735778096671E-16,-3.56048640043704E-32));
#698=DIRECTION('',(0.,1.22464679914735E-16,1.));
#699=DIRECTION('',(-1.,2.90735778096671E-16,-3.56048640043704E-32));
#700=DIRECTION('',(-1.,0.,0.));
#701=DIRECTION('',(0.,0.,1.));
#702=DIRECTION('',(0.,-1.,1.22464679914735E-16));
#703=DIRECTION('',(0.,-1.,1.22464679914735E-16));
#704=DIRECTION('',(-1.,0.,0.));
#705=DIRECTION('',(0.,0.,1.));
#706=DIRECTION('',(0.,-1.,1.22464679914735E-16));
#707=DIRECTION('',(0.,-1.,1.22464679914735E-16));
#708=DIRECTION('',(0.,-1.22464679914735E-16,-1.));
#709=DIRECTION('',(0.,1.,-1.22464679914735E-16));
#710=DIRECTION('',(-1.,3.02849768850699E-16,-3.70884000045525E-32));
#711=DIRECTION('',(-1.09237898746673E-31,-1.22464679914735E-16,-1.));
#712=DIRECTION('',(0.,-1.,1.22464679914735E-16));
#713=DIRECTION('',(1.09237898746673E-31,1.22464679914735E-16,1.));
#714=DIRECTION('',(0.,1.,-1.22464679914735E-16));
#715=DIRECTION('',(-5.95613210635814E-16,-1.,1.22464679914735E-16));
#716=DIRECTION('',(1.,-5.95613210635814E-16,0.));
#717=DIRECTION('',(5.95613210635814E-16,1.,0.));
#718=DIRECTION('',(-5.95613210635814E-16,-1.,1.22464679914735E-16));
#719=DIRECTION('',(1.09237898746673E-31,1.22464679914735E-16,1.));
#720=DIRECTION('',(0.,1.,-1.22464679914735E-16));
#721=DIRECTION('',(1.09237898746673E-31,1.22464679914735E-16,1.));
#722=DIRECTION('',(0.,1.,-1.22464679914735E-16));
#723=DIRECTION('',(1.09237898746673E-31,1.22464679914735E-16,1.));
#724=DIRECTION('',(-1.33777843045696E-47,1.,-1.22464679914735E-16));
#725=DIRECTION('',(0.,-1.22464679914735E-16,-1.));
#726=DIRECTION('',(0.,1.,-1.22464679914735E-16));
#727=DIRECTION('',(0.,-1.22464679914735E-16,-1.));
#728=DIRECTION('',(0.,1.,-1.22464679914735E-16));
#729=DIRECTION('',(0.,-1.22464679914735E-16,-1.));
#730=DIRECTION('',(0.,1.,-1.22464679914735E-16));
#731=DIRECTION('',(0.,-1.,0.));
#732=DIRECTION('',(1.,0.,0.));
#733=DIRECTION('',(0.,-1.,0.));
#734=DIRECTION('',(0.,1.,-1.3010426069826E-16));
#735=DIRECTION('',(0.,-1.3010426069826E-16,-1.));
#736=DIRECTION('',(0.,1.3010426069826E-16,1.));
#737=DIRECTION('',(1.,0.,0.));
#738=DIRECTION('',(0.,1.3010426069826E-16,1.));
#739=DIRECTION('',(0.,-1.,-1.7347234759768E-16));
#740=DIRECTION('',(0.,-1.7347234759768E-16,1.));
#741=DIRECTION('',(0.,1.7347234759768E-16,-1.));
#742=DIRECTION('',(1.,0.,0.));
#743=DIRECTION('',(0.,1.7347234759768E-16,-1.));
#744=DIRECTION('',(1.,0.,0.));
#745=DIRECTION('',(0.,0.,-1.));
#746=DIRECTION('',(0.,-1.,0.));
#747=DIRECTION('',(0.,1.,0.));
#748=DIRECTION('',(1.,0.,0.));
#749=DIRECTION('',(0.,1.,0.));
#750=DIRECTION('',(1.,0.,0.));
#751=DIRECTION('',(1.,0.,0.));
#752=DIRECTION('',(0.,0.,-1.));
#753=DIRECTION('',(1.,0.,0.));
#754=DIRECTION('',(0.,0.,-1.));
#755=DIRECTION('',(1.,0.,0.));
#756=DIRECTION('',(0.,0.,-1.));
#757=DIRECTION('',(1.,0.,0.));
#758=DIRECTION('',(0.,0.,-1.));
#759=DIRECTION('',(1.,0.,0.));
#760=DIRECTION('',(0.,0.,-1.));
#761=DIRECTION('',(1.,0.,0.));
#762=DIRECTION('',(0.,0.,-1.));
#763=DIRECTION('',(1.,0.,0.));
#764=DIRECTION('',(0.,1.,0.));
#765=DIRECTION('',(1.,0.,0.));
#766=DIRECTION('',(0.,0.,-1.));
#767=DIRECTION('',(1.,0.,0.));
#768=DIRECTION('',(0.,0.,-1.));
#769=DIRECTION('',(1.,0.,0.));
#770=DIRECTION('',(0.,0.,-1.));
#771=DIRECTION('',(1.,0.,0.));
#772=DIRECTION('',(0.,1.,0.));
#773=DIRECTION('',(1.,0.,0.));
#774=DIRECTION('',(0.,0.,-1.));
#775=DIRECTION('',(1.,0.,0.));
#776=DIRECTION('',(0.,0.,-1.));
#777=DIRECTION('',(1.,0.,0.));
#778=DIRECTION('',(0.,0.,-1.));
#779=DIRECTION('',(-1.,0.,0.));
#780=DIRECTION('',(0.,0.,1.));
#781=DIRECTION('',(1.,0.,0.));
#782=DIRECTION('',(0.,0.,-1.));
#783=DIRECTION('',(1.,0.,0.));
#784=DIRECTION('',(0.,0.,-1.));
#785=DIRECTION('',(0.,-1.22464679914735E-16,-1.));
#786=DIRECTION('',(0.,1.,-1.22464679914735E-16));
#787=DIRECTION('',(0.,-1.22464679914735E-16,-1.));
#788=DIRECTION('',(0.,1.,-1.22464679914735E-16));
#789=DIRECTION('',(0.,-1.22464679914735E-16,-1.));
#790=DIRECTION('',(1.,0.,0.));
#791=DIRECTION('',(0.,-1.22464679914735E-16,-1.));
#792=DIRECTION('',(0.,1.,-1.22464679914735E-16));
#793=DIRECTION('',(0.,-1.22464679914735E-16,-1.));
#794=DIRECTION('',(0.,1.,-1.22464679914735E-16));
#795=DIRECTION('',(0.,-1.22464679914735E-16,-1.));
#796=DIRECTION('',(1.,0.,0.));
#797=CARTESIAN_POINT('',(0.,0.,0.));
#798=CARTESIAN_POINT('',(-0.01215,-0.100026779749528,0.0697018926559633));
#799=CARTESIAN_POINT('',(-0.01215,-0.100026779749528,0.0783018926559633));
#800=CARTESIAN_POINT('',(-0.01215,-0.101226779749528,0.0783018926559633));
#801=CARTESIAN_POINT('',(-0.01215,-0.100026779749528,0.0721018926559633));
#802=CARTESIAN_POINT('',(-0.01215,-0.101226779749528,0.0721018926559633));
#803=CARTESIAN_POINT('',(0.01545,-0.100026779749528,0.0697018926559633));
#804=CARTESIAN_POINT('',(0.01545,-0.100026779749528,0.0783018926559633));
#805=CARTESIAN_POINT('',(0.01545,-0.101226779749528,0.0783018926559633));
#806=CARTESIAN_POINT('',(0.01545,-0.100026779749528,0.0721018926559633));
#807=CARTESIAN_POINT('',(0.01545,-0.101226779749528,0.0721018926559633));
#808=CARTESIAN_POINT('',(0.00165,-0.0901767797495277,0.0697018926559633));
#809=CARTESIAN_POINT('',(0.00165,-0.0901767797495277,0.0691018926559633));
#810=CARTESIAN_POINT('',(0.01955,-0.0901767797495277,0.0691018926559633));
#811=CARTESIAN_POINT('',(0.01,-0.0901767797495277,0.0691018926559633));
#812=CARTESIAN_POINT('',(0.01,-0.0901767797495277,0.0891018926559633));
#813=CARTESIAN_POINT('',(0.01,-0.0901767797495277,0.0783018926559633));
#814=CARTESIAN_POINT('',(0.00165,-0.0901767797495277,0.0783018926559633));
#815=CARTESIAN_POINT('',(0.01955,-0.0901767797495277,0.0783018926559633));
#816=CARTESIAN_POINT('',(0.01955,-0.0901767797495277,0.0697018926559633));
#817=CARTESIAN_POINT('',(-0.007,-0.100026779749528,0.0648018926559633));
#818=CARTESIAN_POINT('',(-0.007,-0.100026779749528,0.0705918980999713));
#819=CARTESIAN_POINT('',(-0.007,-0.101226779749528,0.0705918980999713));
#820=CARTESIAN_POINT('',(-0.007,-0.100026779749528,0.0691018926559633));
#821=CARTESIAN_POINT('',(-0.007,-0.101226779749528,0.0691018926559633));
#822=CARTESIAN_POINT('',(-0.01,-0.100026779749528,0.0697018926559633));
#823=CARTESIAN_POINT('',(-0.01,-0.0925767797495277,0.0735918980999713));
#824=CARTESIAN_POINT('',(-0.01,-0.0935767797495277,0.0735918980999713));
#825=CARTESIAN_POINT('',(-0.01,-0.106476779749528,0.0735918980999713));
#826=CARTESIAN_POINT('',(-0.01,-0.0935767797495277,0.0697018926559633));
#827=CARTESIAN_POINT('',(-0.01,-0.0935767797495277,0.0783018926559633));
#828=CARTESIAN_POINT('',(-0.01,-0.100026779749528,0.0783018926559633));
#829=CARTESIAN_POINT('',(-0.01,-0.106476779749528,0.0783018926559633));
#830=CARTESIAN_POINT('',(-0.01,-0.106476779749528,0.0697018926559633));
#831=CARTESIAN_POINT('',(0.00165,-0.106476779749528,0.0697018926559633));
#832=CARTESIAN_POINT('',(0.0133,-0.106476779749528,0.0697018926559633));
#833=CARTESIAN_POINT('',(0.0133,-0.106476779749528,0.0691018926559633));
#834=CARTESIAN_POINT('',(0.0133,-0.106476779749528,0.0783018926559633));
#835=CARTESIAN_POINT('',(0.00165,-0.106476779749528,0.0691018926559633));
#836=CARTESIAN_POINT('',(-0.00222092853621291,-0.106476779749528,0.0691018926559633));
#837=CARTESIAN_POINT('',(-0.00222092853621292,-0.106476779749528,0.0716468953779673));
#838=CARTESIAN_POINT('',(-0.00222092853621292,-0.106476779749528,0.0735918980999713));
#839=CARTESIAN_POINT('',(-0.00611046426810645,-0.106476779749528,0.0735918980999713));
#840=CARTESIAN_POINT('',(0.00165,-0.106476779749528,0.0783018926559633));
#841=CARTESIAN_POINT('',(0.00165,-0.0935767797495277,0.0697018926559633));
#842=CARTESIAN_POINT('',(0.00165,-0.0935767797495277,0.0735918980999713));
#843=CARTESIAN_POINT('',(-0.00222092853621291,-0.0935767797495277,0.0735918980999713));
#844=CARTESIAN_POINT('',(-0.00222092853621291,-0.0935767797495277,0.0697018926559633));
#845=CARTESIAN_POINT('',(-0.00222092853621291,-0.0935767797495277,0.0691018926559633));
#846=CARTESIAN_POINT('',(0.00165,-0.0935767797495277,0.0691018926559633));
#847=CARTESIAN_POINT('',(0.0133,-0.0935767797495277,0.0691018926559633));
#848=CARTESIAN_POINT('',(0.0133,-0.0935767797495277,0.0697018926559633));
#849=CARTESIAN_POINT('',(0.0133,-0.0935767797495277,0.0783018926559633));
#850=CARTESIAN_POINT('',(0.00165,-0.0935767797495277,0.0783018926559633));
#851=CARTESIAN_POINT('',(0.00165,-0.0901767797495277,0.0697018926559633));
#852=CARTESIAN_POINT('',(0.,-0.0901767797495277,0.0891018926559633));
#853=CARTESIAN_POINT('',(0.,-0.0901767797495277,0.0691018926559633));
#854=CARTESIAN_POINT('',(0.,-0.0901767797495277,0.0783018926559633));
#855=CARTESIAN_POINT('',(0.00165,-0.0901767797495277,0.0691018926559633));
#856=CARTESIAN_POINT('',(-0.01625,-0.0901767797495277,0.0691018926559633));
#857=CARTESIAN_POINT('',(-0.01625,-0.0901767797495277,0.0697018926559633));
#858=CARTESIAN_POINT('',(-0.01625,-0.0901767797495277,0.0783018926559633));
#859=CARTESIAN_POINT('',(0.00165,-0.0901767797495277,0.0783018926559633));
#860=CARTESIAN_POINT('',(0.01955,-0.100026779749528,0.0697018926559633));
#861=CARTESIAN_POINT('',(0.01955,-0.100026779749528,0.0783018926559633));
#862=CARTESIAN_POINT('',(0.01955,-0.109876779749528,0.0783018926559633));
#863=CARTESIAN_POINT('',(0.01955,-0.109876779749528,0.0697018926559633));
#864=CARTESIAN_POINT('',(0.01955,-0.109876779749528,0.0691018926559633));
#865=CARTESIAN_POINT('',(0.01955,-0.100026779749528,0.0691018926559633));
#866=CARTESIAN_POINT('',(0.00165,-0.109876779749528,0.0697018926559633));
#867=CARTESIAN_POINT('',(0.00165,-0.109876779749528,0.0783018926559633));
#868=CARTESIAN_POINT('',(-0.01625,-0.109876779749528,0.0783018926559633));
#869=CARTESIAN_POINT('',(-0.01625,-0.109876779749528,0.0697018926559633));
#870=CARTESIAN_POINT('',(-0.01625,-0.109876779749528,0.0691018926559633));
#871=CARTESIAN_POINT('',(0.00165,-0.109876779749528,0.0691018926559633));
#872=CARTESIAN_POINT('',(-0.01625,-0.100026779749528,0.0697018926559633));
#873=CARTESIAN_POINT('',(-0.01625,-0.100026779749528,0.0783018926559633));
#874=CARTESIAN_POINT('',(-0.01625,-0.100026779749528,0.0691018926559633));
#875=CARTESIAN_POINT('',(0.0133,-0.106176779749528,0.0697018926559633));
#876=CARTESIAN_POINT('',(0.0133,-0.106176779749528,0.0783018926559633));
#877=CARTESIAN_POINT('',(0.0133,-0.106176779749528,0.0691018926559633));
#878=CARTESIAN_POINT('',(0.00165,-0.100026779749528,0.0783018926559633));
#879=CARTESIAN_POINT('',(0.00165,-0.0901767797495277,0.0783018926559633));
#880=CARTESIAN_POINT('',(-0.00611046426810644,-0.0925767797495277,0.0735918980999713));
#881=CARTESIAN_POINT('',(-0.007,-0.100026779749528,0.0735918980999713));
#882=CARTESIAN_POINT('',(-0.007,-0.0980267797495276,0.0735918980999713));
#883=CARTESIAN_POINT('',(-0.00222092853621291,-0.0925767797495277,0.0735918980999713));
#884=CARTESIAN_POINT('',(-0.00222092853621291,-0.0925767797495277,0.0716468953779673));
#885=CARTESIAN_POINT('',(-0.00222092853621291,-0.0925767797495277,0.0691018926559633));
#886=CARTESIAN_POINT('',(-0.007,-0.100026779749528,0.0705918980999713));
#887=CARTESIAN_POINT('',(-0.007,-0.100026779749528,0.0705918980999713));
#888=CARTESIAN_POINT('',(-0.007,-0.0980267797495276,0.0705918980999713));
#889=CARTESIAN_POINT('',(-0.00611046426810645,-0.100026779749528,0.0705918980999713));
#890=CARTESIAN_POINT('',(0.00165,-0.100026779749528,0.0691018926559633));
#891=CARTESIAN_POINT('',(-0.01215,-0.100026779749528,0.0691018926559633));
#892=CARTESIAN_POINT('',(-0.01215,-0.0980267797495276,0.0691018926559633));
#893=CARTESIAN_POINT('',(0.01545,-0.100026779749528,0.0691018926559633));
#894=CARTESIAN_POINT('',(0.01545,-0.0980267797495276,0.0691018926559633));
#895=CARTESIAN_POINT('',(0.,-0.0803875599407397,0.0691018926559633));
#896=CARTESIAN_POINT('',(0.,-0.0755983401319517,0.0691018926559633));
#897=CARTESIAN_POINT('',(0.01,-0.0755983401319517,0.0691018926559633));
#898=CARTESIAN_POINT('',(0.01,-0.0755983401319517,0.0691018926559633));
#899=CARTESIAN_POINT('',(0.01,-0.0803875599407397,0.0691018926559633));
#900=CARTESIAN_POINT('',(0.,-0.0901767797495277,0.0891018926559633));
#901=CARTESIAN_POINT('',(0.01,-0.0901767797495277,0.0891018926559633));
#902=CARTESIAN_POINT('',(0.01,-0.0901767797495277,0.104101892655963));
#903=CARTESIAN_POINT('',(0.,-0.0901767797495277,0.104101892655963));
#904=CARTESIAN_POINT('',(0.,-0.0901767797495277,0.104101892655963));
#905=CARTESIAN_POINT('',(0.,-0.0901767797495277,0.0891018926559633));
#906=CARTESIAN_POINT('',(0.,-0.0705983401319517,0.0891018926559633));
#907=CARTESIAN_POINT('',(0.01,-0.0705983401319517,0.0891018926559633));
#908=CARTESIAN_POINT('',(0.01,-0.0705983401319517,0.104101892655963));
#909=CARTESIAN_POINT('',(0.01,-0.0705983401319517,0.0741018926559633));
#910=CARTESIAN_POINT('',(0.,-0.0705983401319517,0.0741018926559633));
#911=CARTESIAN_POINT('',(0.,-0.0705983401319517,0.0741018926559633));
#912=CARTESIAN_POINT('',(0.,-0.0705983401319517,0.0891018926559633));
#913=CARTESIAN_POINT('',(0.,-0.0705983401319517,0.104101892655963));
#914=CARTESIAN_POINT('',(0.,-0.0705983401319517,0.104101892655963));
#915=CARTESIAN_POINT('',(0.,-0.0803875599407397,0.109101892655963));
#916=CARTESIAN_POINT('',(0.,-0.0803875599407397,0.109101892655963));
#917=CARTESIAN_POINT('',(0.,-0.0851767797495277,0.109101892655963));
#918=CARTESIAN_POINT('',(0.,-0.0755983401319517,0.109101892655963));
#919=CARTESIAN_POINT('',(0.,-0.0851767797495277,0.109101892655963));
#920=CARTESIAN_POINT('',(0.01,-0.0851767797495277,0.109101892655963));
#921=CARTESIAN_POINT('',(0.01,-0.0803875599407397,0.109101892655963));
#922=CARTESIAN_POINT('',(0.01,-0.0755983401319517,0.109101892655963));
#923=CARTESIAN_POINT('',(0.,-0.0755983401319517,0.109101892655963));
#924=CARTESIAN_POINT('',(0.,-0.0848806230246725,0.102546451709605));
#925=CARTESIAN_POINT('',(0.,-0.0848806230246725,0.102546451709605));
#926=CARTESIAN_POINT('',(0.,-0.0848806230246725,0.100246451709605));
#927=CARTESIAN_POINT('',(0.01,-0.0848806230246725,0.102546451709605));
#928=CARTESIAN_POINT('',(0.01,-0.0848806230246725,0.100246451709605));
#929=CARTESIAN_POINT('',(0.,-0.0749999625573904,0.0749998952327913));
#930=CARTESIAN_POINT('',(0.,-0.0749999625573904,0.0749998952327913));
#931=CARTESIAN_POINT('',(0.,-0.0749999625573904,0.0726998952327913));
#932=CARTESIAN_POINT('',(0.01,-0.0749999625573904,0.0749998952327913));
#933=CARTESIAN_POINT('',(0.01,-0.0749999625573904,0.0726998952327913));
#934=CARTESIAN_POINT('',(0.,-0.0902375599407397,0.0891018926559633));
#935=CARTESIAN_POINT('',(0.,-0.0755983401319517,0.0741018926559633));
#936=CARTESIAN_POINT('',(0.,-0.0851767797495277,0.104101892655963));
#937=CARTESIAN_POINT('',(0.,-0.0755983401319517,0.104101892655963));
#938=CARTESIAN_POINT('',(0.01,-0.0902375599407397,0.0891018926559633));
#939=CARTESIAN_POINT('',(0.01,-0.0755983401319517,0.0741018926559633));
#940=CARTESIAN_POINT('',(0.01,-0.0755983401319517,0.104101892655963));
#941=CARTESIAN_POINT('',(0.01,-0.0851767797495277,0.104101892655963));
#942=CARTESIAN_POINT('',(0.00165,-0.0755983401319517,0.0741018926559633));
#943=CARTESIAN_POINT('',(0.,-0.0851767797495277,0.104101892655963));
#944=CARTESIAN_POINT('',(0.,-0.0755983401319517,0.104101892655963));
#945=CARTESIAN_POINT('',(0.01545,-0.100026779749528,0.0721018926559633));
#946=CARTESIAN_POINT('',(0.01545,-0.100026779749528,0.0721018926559633));
#947=CARTESIAN_POINT('',(0.01545,-0.0980267797495276,0.0721018926559633));
#948=CARTESIAN_POINT('',(0.00165,-0.0927375599407397,0.0721018926559633));
#949=CARTESIAN_POINT('',(-0.01215,-0.100026779749528,0.0721018926559633));
#950=CARTESIAN_POINT('',(-0.01215,-0.100026779749528,0.0721018926559633));
#951=CARTESIAN_POINT('',(-0.01215,-0.0980267797495276,0.0721018926559633));
#952=CARTESIAN_POINT('',(0.00165,-0.0927375599407397,0.0721018926559633));
#953=MECHANICAL_DESIGN_GEOMETRIC_PRESENTATION_REPRESENTATION('',(#572),
#954);
#954=(
GEOMETRIC_REPRESENTATION_CONTEXT(3)
GLOBAL_UNCERTAINTY_ASSIGNED_CONTEXT((#955))
GLOBAL_UNIT_ASSIGNED_CONTEXT((#958,#957,#956))
REPRESENTATION_CONTEXT('Claw Mount','TOP_LEVEL_ASSEMBLY_PART')
);
#955=UNCERTAINTY_MEASURE_WITH_UNIT(LENGTH_MEASURE(1.E-8),#958,
'DISTANCE_ACCURACY_VALUE','Maximum Tolerance applied to model');
#956=(
NAMED_UNIT(*)
SI_UNIT($,.STERADIAN.)
SOLID_ANGLE_UNIT()
);
#957=(
NAMED_UNIT(*)
PLANE_ANGLE_UNIT()
SI_UNIT($,.RADIAN.)
);
#958=(
LENGTH_UNIT()
NAMED_UNIT(*)
SI_UNIT($,.METRE.)
);
#959=PRODUCT_DEFINITION_SHAPE('','',#960);
#960=PRODUCT_DEFINITION('','',#962,#961);
#961=PRODUCT_DEFINITION_CONTEXT('',#968,'design');
#962=PRODUCT_DEFINITION_FORMATION_WITH_SPECIFIED_SOURCE('','',#964,
 .NOT_KNOWN.);
#963=PRODUCT_RELATED_PRODUCT_CATEGORY('','',(#964));
#964=PRODUCT('Claw Mount','Claw Mount','Claw Mount',(#966));
#965=PRODUCT_CATEGORY('','');
#966=PRODUCT_CONTEXT('',#968,'mechanical');
#967=APPLICATION_PROTOCOL_DEFINITION('international standard',
'ap242_managed_model_based_3d_engineering',2020,#968);
#968=APPLICATION_CONTEXT('managed model based 3d engineering');
ENDSEC;
END-ISO-10303-21;
