ISO-10303-21;
HEADER;
/* Generated by software containing ST-Developer
 * from STEP Tools, Inc. (www.steptools.com) 
 */
/* OPTION: using custom renumber hook */

FILE_DESCRIPTION(
/* description */ ('STEP AP242 Edition 2',
'CAx-IF Rec.Pracs.---Representation and Presentation of Product Manufa
cturing Information (PMI)---4.0---2014-10-13',
'CAx-IF Rec.Pracs.---3D Tessellated Geometry---0.4---2014-09-14','2;1',
'CAx-IF Rec.Pracs.---User Defined Attributes---1.5---2016-08-15'),
/* implementation_level */ '2;1');

FILE_NAME(
/* name */ 'LimeArm MKI - Support',
/* time_stamp */ '2026-05-27T02:34:59Z',
/* author */ (''),
/* organization */ (''),
/* preprocessor_version */ 'ST-DEVELOPER v20',
/* originating_system */ 'ONSHAPE BY PTC INC, 1.215',
/* authorisation */ '  ');

FILE_SCHEMA (('AP242_MANAGED_MODEL_BASED_3D_ENGINEERING_MIM_LF { 1 0 10303 442 3 1 4 }'));
ENDSEC;

DATA;
#10=SHAPE_REPRESENTATION_RELATIONSHIP('','',#277,#11);
#11=ADVANCED_BREP_SHAPE_REPRESENTATION('',(#275),#463);
#12=CIRCLE('',#281,0.02);
#13=CIRCLE('',#282,0.02);
#14=CIRCLE('',#285,0.00285);
#15=CIRCLE('',#286,0.00285);
#16=CIRCLE('',#289,0.0022);
#17=CIRCLE('',#290,0.0022);
#18=CIRCLE('',#292,0.0022);
#19=CIRCLE('',#293,0.0022);
#20=CIRCLE('',#295,0.0067);
#21=CIRCLE('',#296,0.0067);
#22=CIRCLE('',#298,0.02);
#23=CIRCLE('',#299,0.02);
#24=CIRCLE('',#301,0.0023);
#25=CIRCLE('',#302,0.0023);
#26=CIRCLE('',#306,0.00285);
#27=CIRCLE('',#309,0.00285);
#28=CYLINDRICAL_SURFACE('',#280,0.02);
#29=CYLINDRICAL_SURFACE('',#288,0.0022);
#30=CYLINDRICAL_SURFACE('',#291,0.0022);
#31=CYLINDRICAL_SURFACE('',#294,0.0067);
#32=CYLINDRICAL_SURFACE('',#297,0.02);
#33=CYLINDRICAL_SURFACE('',#300,0.0023);
#34=CYLINDRICAL_SURFACE('',#305,0.00285);
#35=CYLINDRICAL_SURFACE('',#308,0.00285);
#36=ORIENTED_EDGE('',*,*,#96,.F.);
#37=ORIENTED_EDGE('',*,*,#97,.F.);
#38=ORIENTED_EDGE('',*,*,#98,.T.);
#39=ORIENTED_EDGE('',*,*,#99,.T.);
#40=ORIENTED_EDGE('',*,*,#100,.T.);
#41=ORIENTED_EDGE('',*,*,#101,.F.);
#42=ORIENTED_EDGE('',*,*,#102,.F.);
#43=ORIENTED_EDGE('',*,*,#97,.T.);
#44=ORIENTED_EDGE('',*,*,#103,.F.);
#45=ORIENTED_EDGE('',*,*,#104,.F.);
#46=ORIENTED_EDGE('',*,*,#105,.T.);
#47=ORIENTED_EDGE('',*,*,#101,.T.);
#48=ORIENTED_EDGE('',*,*,#106,.T.);
#49=ORIENTED_EDGE('',*,*,#107,.T.);
#50=ORIENTED_EDGE('',*,*,#108,.T.);
#51=ORIENTED_EDGE('',*,*,#109,.F.);
#52=ORIENTED_EDGE('',*,*,#110,.F.);
#53=ORIENTED_EDGE('',*,*,#104,.T.);
#54=ORIENTED_EDGE('',*,*,#111,.T.);
#55=ORIENTED_EDGE('',*,*,#112,.F.);
#56=ORIENTED_EDGE('',*,*,#113,.F.);
#57=ORIENTED_EDGE('',*,*,#109,.T.);
#58=ORIENTED_EDGE('',*,*,#114,.T.);
#59=ORIENTED_EDGE('',*,*,#115,.F.);
#60=ORIENTED_EDGE('',*,*,#116,.T.);
#61=ORIENTED_EDGE('',*,*,#117,.F.);
#62=ORIENTED_EDGE('',*,*,#118,.T.);
#63=ORIENTED_EDGE('',*,*,#119,.F.);
#64=ORIENTED_EDGE('',*,*,#120,.T.);
#65=ORIENTED_EDGE('',*,*,#99,.F.);
#66=ORIENTED_EDGE('',*,*,#121,.F.);
#67=ORIENTED_EDGE('',*,*,#112,.T.);
#68=ORIENTED_EDGE('',*,*,#122,.F.);
#69=ORIENTED_EDGE('',*,*,#123,.T.);
#70=ORIENTED_EDGE('',*,*,#98,.F.);
#71=ORIENTED_EDGE('',*,*,#102,.T.);
#72=ORIENTED_EDGE('',*,*,#105,.F.);
#73=ORIENTED_EDGE('',*,*,#110,.T.);
#74=ORIENTED_EDGE('',*,*,#113,.T.);
#75=ORIENTED_EDGE('',*,*,#121,.T.);
#76=ORIENTED_EDGE('',*,*,#118,.F.);
#77=ORIENTED_EDGE('',*,*,#116,.F.);
#78=ORIENTED_EDGE('',*,*,#114,.F.);
#79=ORIENTED_EDGE('',*,*,#122,.T.);
#80=ORIENTED_EDGE('',*,*,#96,.T.);
#81=ORIENTED_EDGE('',*,*,#120,.F.);
#82=ORIENTED_EDGE('',*,*,#111,.F.);
#83=ORIENTED_EDGE('',*,*,#108,.F.);
#84=ORIENTED_EDGE('',*,*,#103,.T.);
#85=ORIENTED_EDGE('',*,*,#100,.F.);
#86=ORIENTED_EDGE('',*,*,#119,.T.);
#87=ORIENTED_EDGE('',*,*,#117,.T.);
#88=ORIENTED_EDGE('',*,*,#115,.T.);
#89=ORIENTED_EDGE('',*,*,#123,.F.);
#90=ORIENTED_EDGE('',*,*,#124,.F.);
#91=ORIENTED_EDGE('',*,*,#107,.F.);
#92=ORIENTED_EDGE('',*,*,#124,.T.);
#93=ORIENTED_EDGE('',*,*,#125,.F.);
#94=ORIENTED_EDGE('',*,*,#106,.F.);
#95=ORIENTED_EDGE('',*,*,#125,.T.);
#96=EDGE_CURVE('',#126,#127,#150,.T.);
#97=EDGE_CURVE('',#128,#126,#151,.T.);
#98=EDGE_CURVE('',#128,#129,#152,.T.);
#99=EDGE_CURVE('',#129,#127,#153,.T.);
#100=EDGE_CURVE('',#126,#130,#12,.T.);
#101=EDGE_CURVE('',#131,#130,#154,.T.);
#102=EDGE_CURVE('',#128,#131,#13,.T.);
#103=EDGE_CURVE('',#132,#130,#155,.T.);
#104=EDGE_CURVE('',#133,#132,#156,.T.);
#105=EDGE_CURVE('',#133,#131,#157,.T.);
#106=EDGE_CURVE('',#134,#134,#14,.T.);
#107=EDGE_CURVE('',#135,#135,#15,.T.);
#108=EDGE_CURVE('',#132,#136,#158,.T.);
#109=EDGE_CURVE('',#137,#136,#159,.T.);
#110=EDGE_CURVE('',#133,#137,#160,.T.);
#111=EDGE_CURVE('',#136,#138,#161,.T.);
#112=EDGE_CURVE('',#139,#138,#162,.T.);
#113=EDGE_CURVE('',#137,#139,#163,.T.);
#114=EDGE_CURVE('',#140,#140,#16,.T.);
#115=EDGE_CURVE('',#141,#141,#17,.T.);
#116=EDGE_CURVE('',#142,#142,#18,.T.);
#117=EDGE_CURVE('',#143,#143,#19,.T.);
#118=EDGE_CURVE('',#144,#144,#20,.T.);
#119=EDGE_CURVE('',#145,#145,#21,.T.);
#120=EDGE_CURVE('',#138,#127,#22,.T.);
#121=EDGE_CURVE('',#139,#129,#23,.T.);
#122=EDGE_CURVE('',#146,#146,#24,.T.);
#123=EDGE_CURVE('',#147,#147,#25,.T.);
#124=EDGE_CURVE('',#148,#148,#26,.T.);
#125=EDGE_CURVE('',#149,#149,#27,.T.);
#126=VERTEX_POINT('',#394);
#127=VERTEX_POINT('',#395);
#128=VERTEX_POINT('',#397);
#129=VERTEX_POINT('',#399);
#130=VERTEX_POINT('',#403);
#131=VERTEX_POINT('',#405);
#132=VERTEX_POINT('',#409);
#133=VERTEX_POINT('',#411);
#134=VERTEX_POINT('',#415);
#135=VERTEX_POINT('',#417);
#136=VERTEX_POINT('',#419);
#137=VERTEX_POINT('',#421);
#138=VERTEX_POINT('',#425);
#139=VERTEX_POINT('',#427);
#140=VERTEX_POINT('',#431);
#141=VERTEX_POINT('',#433);
#142=VERTEX_POINT('',#436);
#143=VERTEX_POINT('',#438);
#144=VERTEX_POINT('',#441);
#145=VERTEX_POINT('',#443);
#146=VERTEX_POINT('',#449);
#147=VERTEX_POINT('',#451);
#148=VERTEX_POINT('',#456);
#149=VERTEX_POINT('',#460);
#150=LINE('',#393,#164);
#151=LINE('',#396,#165);
#152=LINE('',#398,#166);
#153=LINE('',#400,#167);
#154=LINE('',#404,#168);
#155=LINE('',#408,#169);
#156=LINE('',#410,#170);
#157=LINE('',#412,#171);
#158=LINE('',#418,#172);
#159=LINE('',#420,#173);
#160=LINE('',#422,#174);
#161=LINE('',#424,#175);
#162=LINE('',#426,#176);
#163=LINE('',#428,#177);
#164=VECTOR('',#315,1.);
#165=VECTOR('',#316,1.);
#166=VECTOR('',#317,1.);
#167=VECTOR('',#318,1.);
#168=VECTOR('',#323,1.);
#169=VECTOR('',#328,1.);
#170=VECTOR('',#329,1.);
#171=VECTOR('',#330,1.);
#172=VECTOR('',#337,1.);
#173=VECTOR('',#338,1.);
#174=VECTOR('',#339,1.);
#175=VECTOR('',#342,1.);
#176=VECTOR('',#343,1.);
#177=VECTOR('',#344,1.);
#178=EDGE_LOOP('',(#36,#37,#38,#39));
#179=EDGE_LOOP('',(#40,#41,#42,#43));
#180=EDGE_LOOP('',(#44,#45,#46,#47));
#181=EDGE_LOOP('',(#48));
#182=EDGE_LOOP('',(#49));
#183=EDGE_LOOP('',(#50,#51,#52,#53));
#184=EDGE_LOOP('',(#54,#55,#56,#57));
#185=EDGE_LOOP('',(#58));
#186=EDGE_LOOP('',(#59));
#187=EDGE_LOOP('',(#60));
#188=EDGE_LOOP('',(#61));
#189=EDGE_LOOP('',(#62));
#190=EDGE_LOOP('',(#63));
#191=EDGE_LOOP('',(#64,#65,#66,#67));
#192=EDGE_LOOP('',(#68));
#193=EDGE_LOOP('',(#69));
#194=EDGE_LOOP('',(#70,#71,#72,#73,#74,#75));
#195=EDGE_LOOP('',(#76));
#196=EDGE_LOOP('',(#77));
#197=EDGE_LOOP('',(#78));
#198=EDGE_LOOP('',(#79));
#199=EDGE_LOOP('',(#80,#81,#82,#83,#84,#85));
#200=EDGE_LOOP('',(#86));
#201=EDGE_LOOP('',(#87));
#202=EDGE_LOOP('',(#88));
#203=EDGE_LOOP('',(#89));
#204=EDGE_LOOP('',(#90));
#205=EDGE_LOOP('',(#91));
#206=EDGE_LOOP('',(#92));
#207=EDGE_LOOP('',(#93));
#208=EDGE_LOOP('',(#94));
#209=EDGE_LOOP('',(#95));
#210=FACE_BOUND('',#178,.T.);
#211=FACE_BOUND('',#179,.T.);
#212=FACE_BOUND('',#180,.T.);
#213=FACE_BOUND('',#181,.T.);
#214=FACE_BOUND('',#182,.T.);
#215=FACE_BOUND('',#183,.T.);
#216=FACE_BOUND('',#184,.T.);
#217=FACE_BOUND('',#185,.T.);
#218=FACE_BOUND('',#186,.T.);
#219=FACE_BOUND('',#187,.T.);
#220=FACE_BOUND('',#188,.T.);
#221=FACE_BOUND('',#189,.T.);
#222=FACE_BOUND('',#190,.T.);
#223=FACE_BOUND('',#191,.T.);
#224=FACE_BOUND('',#192,.T.);
#225=FACE_BOUND('',#193,.T.);
#226=FACE_BOUND('',#194,.T.);
#227=FACE_BOUND('',#195,.T.);
#228=FACE_BOUND('',#196,.T.);
#229=FACE_BOUND('',#197,.T.);
#230=FACE_BOUND('',#198,.T.);
#231=FACE_BOUND('',#199,.T.);
#232=FACE_BOUND('',#200,.T.);
#233=FACE_BOUND('',#201,.T.);
#234=FACE_BOUND('',#202,.T.);
#235=FACE_BOUND('',#203,.T.);
#236=FACE_BOUND('',#204,.T.);
#237=FACE_BOUND('',#205,.T.);
#238=FACE_BOUND('',#206,.T.);
#239=FACE_BOUND('',#207,.T.);
#240=FACE_BOUND('',#208,.T.);
#241=FACE_BOUND('',#209,.T.);
#242=PLANE('',#279);
#243=PLANE('',#283);
#244=PLANE('',#284);
#245=PLANE('',#287);
#246=PLANE('',#303);
#247=PLANE('',#304);
#248=PLANE('',#307);
#249=PLANE('',#310);
#250=ADVANCED_FACE('',(#210),#242,.T.);
#251=ADVANCED_FACE('',(#211),#28,.T.);
#252=ADVANCED_FACE('',(#212),#243,.T.);
#253=ADVANCED_FACE('',(#213,#214,#215),#244,.F.);
#254=ADVANCED_FACE('',(#216),#245,.F.);
#255=ADVANCED_FACE('',(#217,#218),#29,.F.);
#256=ADVANCED_FACE('',(#219,#220),#30,.F.);
#257=ADVANCED_FACE('',(#221,#222),#31,.F.);
#258=ADVANCED_FACE('',(#223),#32,.T.);
#259=ADVANCED_FACE('',(#224,#225),#33,.F.);
#260=ADVANCED_FACE('',(#226,#227,#228,#229,#230),#246,.T.);
#261=ADVANCED_FACE('',(#231,#232,#233,#234,#235),#247,.F.);
#262=ADVANCED_FACE('',(#236,#237),#34,.F.);
#263=ADVANCED_FACE('',(#238),#248,.T.);
#264=ADVANCED_FACE('',(#239,#240),#35,.F.);
#265=ADVANCED_FACE('',(#241),#249,.T.);
#266=CLOSED_SHELL('',(#250,#251,#252,#253,#254,#255,#256,#257,#258,#259,
#260,#261,#262,#263,#264,#265));
#267=STYLED_ITEM('',(#268),#275);
#268=PRESENTATION_STYLE_ASSIGNMENT((#269));
#269=SURFACE_STYLE_USAGE(.BOTH.,#270);
#270=SURFACE_SIDE_STYLE('',(#271));
#271=SURFACE_STYLE_FILL_AREA(#272);
#272=FILL_AREA_STYLE('',(#273));
#273=FILL_AREA_STYLE_COLOUR('',#274);
#274=COLOUR_RGB('',0.647058823529412,0.647058823529412,0.647058823529412);
#275=MANIFOLD_SOLID_BREP('Support',#266);
#276=SHAPE_DEFINITION_REPRESENTATION(#468,#277);
#277=SHAPE_REPRESENTATION('Support',(#278),#463);
#278=AXIS2_PLACEMENT_3D('',#391,#311,#312);
#279=AXIS2_PLACEMENT_3D('',#392,#313,#314);
#280=AXIS2_PLACEMENT_3D('',#401,#319,#320);
#281=AXIS2_PLACEMENT_3D('',#402,#321,#322);
#282=AXIS2_PLACEMENT_3D('',#406,#324,#325);
#283=AXIS2_PLACEMENT_3D('',#407,#326,#327);
#284=AXIS2_PLACEMENT_3D('',#413,#331,#332);
#285=AXIS2_PLACEMENT_3D('',#414,#333,#334);
#286=AXIS2_PLACEMENT_3D('',#416,#335,#336);
#287=AXIS2_PLACEMENT_3D('',#423,#340,#341);
#288=AXIS2_PLACEMENT_3D('',#429,#345,#346);
#289=AXIS2_PLACEMENT_3D('',#430,#347,#348);
#290=AXIS2_PLACEMENT_3D('',#432,#349,#350);
#291=AXIS2_PLACEMENT_3D('',#434,#351,#352);
#292=AXIS2_PLACEMENT_3D('',#435,#353,#354);
#293=AXIS2_PLACEMENT_3D('',#437,#355,#356);
#294=AXIS2_PLACEMENT_3D('',#439,#357,#358);
#295=AXIS2_PLACEMENT_3D('',#440,#359,#360);
#296=AXIS2_PLACEMENT_3D('',#442,#361,#362);
#297=AXIS2_PLACEMENT_3D('',#444,#363,#364);
#298=AXIS2_PLACEMENT_3D('',#445,#365,#366);
#299=AXIS2_PLACEMENT_3D('',#446,#367,#368);
#300=AXIS2_PLACEMENT_3D('',#447,#369,#370);
#301=AXIS2_PLACEMENT_3D('',#448,#371,#372);
#302=AXIS2_PLACEMENT_3D('',#450,#373,#374);
#303=AXIS2_PLACEMENT_3D('',#452,#375,#376);
#304=AXIS2_PLACEMENT_3D('',#453,#377,#378);
#305=AXIS2_PLACEMENT_3D('',#454,#379,#380);
#306=AXIS2_PLACEMENT_3D('',#455,#381,#382);
#307=AXIS2_PLACEMENT_3D('',#457,#383,#384);
#308=AXIS2_PLACEMENT_3D('',#458,#385,#386);
#309=AXIS2_PLACEMENT_3D('',#459,#387,#388);
#310=AXIS2_PLACEMENT_3D('',#461,#389,#390);
#311=DIRECTION('',(0.,0.,1.));
#312=DIRECTION('',(1.,0.,0.));
#313=DIRECTION('',(0.,0.,1.));
#314=DIRECTION('',(1.,0.,0.));
#315=DIRECTION('',(0.,-1.,0.));
#316=DIRECTION('',(1.,0.,0.));
#317=DIRECTION('',(0.,-1.,0.));
#318=DIRECTION('',(1.,0.,0.));
#319=DIRECTION('',(1.,0.,0.));
#320=DIRECTION('',(0.,0.,-1.));
#321=DIRECTION('',(-1.,0.,0.));
#322=DIRECTION('',(0.,0.,1.));
#323=DIRECTION('',(1.,0.,0.));
#324=DIRECTION('',(-1.,0.,0.));
#325=DIRECTION('',(0.,0.,1.));
#326=DIRECTION('',(0.,1.,0.));
#327=DIRECTION('',(0.,0.,1.));
#328=DIRECTION('',(0.,0.,1.));
#329=DIRECTION('',(1.,0.,0.));
#330=DIRECTION('',(0.,0.,1.));
#331=DIRECTION('',(0.,0.,1.));
#332=DIRECTION('',(1.,0.,0.));
#333=DIRECTION('',(0.,0.,1.));
#334=DIRECTION('',(1.,0.,0.));
#335=DIRECTION('',(0.,0.,1.));
#336=DIRECTION('',(1.,0.,0.));
#337=DIRECTION('',(0.,-1.,0.));
#338=DIRECTION('',(1.,0.,0.));
#339=DIRECTION('',(0.,-1.,0.));
#340=DIRECTION('',(0.,1.,-6.93889390390722E-16));
#341=DIRECTION('',(0.,6.93889390390722E-16,1.));
#342=DIRECTION('',(0.,6.93889390390722E-16,1.));
#343=DIRECTION('',(1.,0.,0.));
#344=DIRECTION('',(0.,6.93889390390722E-16,1.));
#345=DIRECTION('',(1.,0.,0.));
#346=DIRECTION('',(0.,0.,-1.));
#347=DIRECTION('',(-1.,0.,0.));
#348=DIRECTION('',(0.,0.,1.));
#349=DIRECTION('',(-1.,0.,0.));
#350=DIRECTION('',(0.,0.,1.));
#351=DIRECTION('',(1.,0.,0.));
#352=DIRECTION('',(0.,0.,-1.));
#353=DIRECTION('',(-1.,0.,0.));
#354=DIRECTION('',(0.,0.,1.));
#355=DIRECTION('',(-1.,0.,0.));
#356=DIRECTION('',(0.,0.,1.));
#357=DIRECTION('',(1.,0.,0.));
#358=DIRECTION('',(0.,0.,-1.));
#359=DIRECTION('',(-1.,0.,0.));
#360=DIRECTION('',(0.,0.,1.));
#361=DIRECTION('',(-1.,0.,0.));
#362=DIRECTION('',(0.,0.,1.));
#363=DIRECTION('',(1.,0.,0.));
#364=DIRECTION('',(0.,0.,-1.));
#365=DIRECTION('',(-1.,0.,0.));
#366=DIRECTION('',(0.,0.,1.));
#367=DIRECTION('',(-1.,0.,0.));
#368=DIRECTION('',(0.,0.,1.));
#369=DIRECTION('',(1.,0.,0.));
#370=DIRECTION('',(0.,0.,-1.));
#371=DIRECTION('',(1.,0.,0.));
#372=DIRECTION('',(0.,0.,-1.));
#373=DIRECTION('',(1.,0.,0.));
#374=DIRECTION('',(0.,0.,-1.));
#375=DIRECTION('',(-1.,0.,0.));
#376=DIRECTION('',(0.,-1.,0.));
#377=DIRECTION('',(-1.,0.,0.));
#378=DIRECTION('',(0.,-1.,0.));
#379=DIRECTION('',(0.,0.,-1.));
#380=DIRECTION('',(-1.,0.,0.));
#381=DIRECTION('',(0.,0.,-1.));
#382=DIRECTION('',(-1.,0.,0.));
#383=DIRECTION('',(0.,0.,-1.));
#384=DIRECTION('',(1.,0.,0.));
#385=DIRECTION('',(0.,0.,-1.));
#386=DIRECTION('',(-1.,0.,0.));
#387=DIRECTION('',(0.,0.,-1.));
#388=DIRECTION('',(-1.,0.,0.));
#389=DIRECTION('',(0.,0.,-1.));
#390=DIRECTION('',(1.,0.,0.));
#391=CARTESIAN_POINT('',(0.,0.,0.));
#392=CARTESIAN_POINT('',(0.022,-0.0025,0.025));
#393=CARTESIAN_POINT('',(0.032,-0.0025,0.025));
#394=CARTESIAN_POINT('',(0.032,0.0436839546499399,0.025));
#395=CARTESIAN_POINT('',(0.032,-0.005,0.025));
#396=CARTESIAN_POINT('',(0.022,0.0436839546499399,0.025));
#397=CARTESIAN_POINT('',(0.022,0.0436839546499399,0.025));
#398=CARTESIAN_POINT('',(0.022,-0.0025,0.025));
#399=CARTESIAN_POINT('',(0.022,-0.005,0.025));
#400=CARTESIAN_POINT('',(0.022,-0.005,0.025));
#401=CARTESIAN_POINT('',(0.022,0.0436839546499399,0.005));
#402=CARTESIAN_POINT('',(0.032,0.0436839546499399,0.005));
#403=CARTESIAN_POINT('',(0.032,0.0636839546499399,0.005));
#404=CARTESIAN_POINT('',(0.022,0.0636839546499399,0.005));
#405=CARTESIAN_POINT('',(0.022,0.0636839546499399,0.005));
#406=CARTESIAN_POINT('',(0.022,0.0436839546499399,0.005));
#407=CARTESIAN_POINT('',(0.022,0.0636839546499399,-0.013883433714509));
#408=CARTESIAN_POINT('',(0.032,0.0636839546499399,-0.013883433714509));
#409=CARTESIAN_POINT('',(0.032,0.0636839546499399,-0.032766867429018));
#410=CARTESIAN_POINT('',(0.022,0.0636839546499399,-0.032766867429018));
#411=CARTESIAN_POINT('',(0.022,0.0636839546499399,-0.032766867429018));
#412=CARTESIAN_POINT('',(0.022,0.0636839546499399,-0.013883433714509));
#413=CARTESIAN_POINT('',(0.022,0.01934197732497,-0.032766867429018));
#414=CARTESIAN_POINT('',(0.027,-0.013342595462206,-0.032766867429018));
#415=CARTESIAN_POINT('',(0.02985,-0.013342595462206,-0.032766867429018));
#416=CARTESIAN_POINT('',(0.027,0.0520265501121459,-0.032766867429018));
#417=CARTESIAN_POINT('',(0.02985,0.0520265501121459,-0.032766867429018));
#418=CARTESIAN_POINT('',(0.032,0.01934197732497,-0.032766867429018));
#419=CARTESIAN_POINT('',(0.032,-0.025,-0.032766867429018));
#420=CARTESIAN_POINT('',(0.022,-0.025,-0.032766867429018));
#421=CARTESIAN_POINT('',(0.022,-0.025,-0.032766867429018));
#422=CARTESIAN_POINT('',(0.022,0.01934197732497,-0.032766867429018));
#423=CARTESIAN_POINT('',(0.022,-0.025,0.0025));
#424=CARTESIAN_POINT('',(0.032,-0.025,0.0025));
#425=CARTESIAN_POINT('',(0.032,-0.025,0.005));
#426=CARTESIAN_POINT('',(0.022,-0.025,0.005));
#427=CARTESIAN_POINT('',(0.022,-0.025,0.005));
#428=CARTESIAN_POINT('',(0.022,-0.025,0.0025));
#429=CARTESIAN_POINT('',(0.022,0.038,-0.0175));
#430=CARTESIAN_POINT('',(0.022,0.038,-0.0175));
#431=CARTESIAN_POINT('',(0.022,0.038,-0.0153));
#432=CARTESIAN_POINT('',(0.032,0.038,-0.0175));
#433=CARTESIAN_POINT('',(0.032,0.038,-0.0153));
#434=CARTESIAN_POINT('',(0.022,0.038,0.0175));
#435=CARTESIAN_POINT('',(0.022,0.038,0.0175));
#436=CARTESIAN_POINT('',(0.022,0.038,0.0197));
#437=CARTESIAN_POINT('',(0.032,0.038,0.0175));
#438=CARTESIAN_POINT('',(0.032,0.038,0.0197));
#439=CARTESIAN_POINT('',(0.022,0.03,4.10256677714363E-19));
#440=CARTESIAN_POINT('',(0.022,0.03,4.10256677714363E-19));
#441=CARTESIAN_POINT('',(0.022,0.03,0.0067));
#442=CARTESIAN_POINT('',(0.032,0.03,4.10256677714363E-19));
#443=CARTESIAN_POINT('',(0.032,0.03,0.0067));
#444=CARTESIAN_POINT('',(0.022,-0.005,0.005));
#445=CARTESIAN_POINT('',(0.032,-0.005,0.005));
#446=CARTESIAN_POINT('',(0.022,-0.005,0.005));
#447=CARTESIAN_POINT('',(0.022,0.,1.40834381901946E-19));
#448=CARTESIAN_POINT('',(0.022,0.,1.40834381901946E-19));
#449=CARTESIAN_POINT('',(0.022,0.,-0.0023));
#450=CARTESIAN_POINT('',(0.032,0.,1.40834381901946E-19));
#451=CARTESIAN_POINT('',(0.032,0.,-0.0023));
#452=CARTESIAN_POINT('',(0.022,0.01934197732497,-0.00388343371450901));
#453=CARTESIAN_POINT('',(0.032,0.01934197732497,-0.00388343371450901));
#454=CARTESIAN_POINT('',(0.027,0.0520265501121459,-0.024366867429018));
#455=CARTESIAN_POINT('',(0.027,0.0520265501121459,-0.024366867429018));
#456=CARTESIAN_POINT('',(0.02415,0.0520265501121459,-0.024366867429018));
#457=CARTESIAN_POINT('',(0.,0.01934197732497,-0.024366867429018));
#458=CARTESIAN_POINT('',(0.027,-0.013342595462206,-0.024366867429018));
#459=CARTESIAN_POINT('',(0.027,-0.013342595462206,-0.024366867429018));
#460=CARTESIAN_POINT('',(0.02415,-0.013342595462206,-0.024366867429018));
#461=CARTESIAN_POINT('',(0.,0.01934197732497,-0.024366867429018));
#462=MECHANICAL_DESIGN_GEOMETRIC_PRESENTATION_REPRESENTATION('',(#267),
#463);
#463=(
GEOMETRIC_REPRESENTATION_CONTEXT(3)
GLOBAL_UNCERTAINTY_ASSIGNED_CONTEXT((#464))
GLOBAL_UNIT_ASSIGNED_CONTEXT((#467,#466,#465))
REPRESENTATION_CONTEXT('Support','TOP_LEVEL_ASSEMBLY_PART')
);
#464=UNCERTAINTY_MEASURE_WITH_UNIT(LENGTH_MEASURE(1.E-8),#467,
'DISTANCE_ACCURACY_VALUE','Maximum Tolerance applied to model');
#465=(
NAMED_UNIT(*)
SI_UNIT($,.STERADIAN.)
SOLID_ANGLE_UNIT()
);
#466=(
NAMED_UNIT(*)
PLANE_ANGLE_UNIT()
SI_UNIT($,.RADIAN.)
);
#467=(
LENGTH_UNIT()
NAMED_UNIT(*)
SI_UNIT($,.METRE.)
);
#468=PRODUCT_DEFINITION_SHAPE('','',#469);
#469=PRODUCT_DEFINITION('','',#471,#470);
#470=PRODUCT_DEFINITION_CONTEXT('',#477,'design');
#471=PRODUCT_DEFINITION_FORMATION_WITH_SPECIFIED_SOURCE('','',#473,
 .NOT_KNOWN.);
#472=PRODUCT_RELATED_PRODUCT_CATEGORY('','',(#473));
#473=PRODUCT('Support','Support','Support',(#475));
#474=PRODUCT_CATEGORY('','');
#475=PRODUCT_CONTEXT('',#477,'mechanical');
#476=APPLICATION_PROTOCOL_DEFINITION('international standard',
'ap242_managed_model_based_3d_engineering',2020,#477);
#477=APPLICATION_CONTEXT('managed model based 3d engineering');
ENDSEC;
END-ISO-10303-21;
