ISO-10303-21;
HEADER;
/* Generated by software containing ST-Developer
 * from STEP Tools, Inc. (www.steptools.com) 
 */
/* OPTION: using custom renumber hook */

FILE_DESCRIPTION(
/* description */ ('STEP AP242 Edition 2',
'CAx-IF Rec.Pracs.---Representation and Presentation of Product Manufa
cturing Information (PMI)---4.0---2014-10-13',
'CAx-IF Rec.Pracs.---3D Tessellated Geometry---0.4---2014-09-14','2;1',
'CAx-IF Rec.Pracs.---User Defined Attributes---1.5---2016-08-15'),
/* implementation_level */ '2;1');

FILE_NAME(
/* name */ 'LimeArm MKI - Leveling Triangle',
/* time_stamp */ '2026-05-27T02:34:59Z',
/* author */ (''),
/* organization */ (''),
/* preprocessor_version */ 'ST-DEVELOPER v20',
/* originating_system */ 'ONSHAPE BY PTC INC, 1.215',
/* authorisation */ '  ');

FILE_SCHEMA (('AP242_MANAGED_MODEL_BASED_3D_ENGINEERING_MIM_LF { 1 0 10303 442 3 1 4 }'));
ENDSEC;

DATA;
#10=SHAPE_REPRESENTATION_RELATIONSHIP('','',#211,#11);
#11=ADVANCED_BREP_SHAPE_REPRESENTATION('',(#209),#351);
#12=CIRCLE('',#215,0.005);
#13=CIRCLE('',#216,0.005);
#14=CIRCLE('',#219,0.005);
#15=CIRCLE('',#220,0.005);
#16=CIRCLE('',#223,0.0023);
#17=CIRCLE('',#224,0.0023);
#18=CIRCLE('',#226,0.0023);
#19=CIRCLE('',#227,0.0023);
#20=CIRCLE('',#229,0.005);
#21=CIRCLE('',#230,0.005);
#22=CIRCLE('',#232,0.0023);
#23=CIRCLE('',#233,0.0023);
#24=CYLINDRICAL_SURFACE('',#214,0.005);
#25=CYLINDRICAL_SURFACE('',#218,0.005);
#26=CYLINDRICAL_SURFACE('',#222,0.0023);
#27=CYLINDRICAL_SURFACE('',#225,0.0023);
#28=CYLINDRICAL_SURFACE('',#228,0.005);
#29=CYLINDRICAL_SURFACE('',#231,0.0023);
#30=ORIENTED_EDGE('',*,*,#78,.F.);
#31=ORIENTED_EDGE('',*,*,#79,.F.);
#32=ORIENTED_EDGE('',*,*,#80,.T.);
#33=ORIENTED_EDGE('',*,*,#81,.T.);
#34=ORIENTED_EDGE('',*,*,#82,.T.);
#35=ORIENTED_EDGE('',*,*,#83,.F.);
#36=ORIENTED_EDGE('',*,*,#84,.F.);
#37=ORIENTED_EDGE('',*,*,#79,.T.);
#38=ORIENTED_EDGE('',*,*,#85,.F.);
#39=ORIENTED_EDGE('',*,*,#86,.F.);
#40=ORIENTED_EDGE('',*,*,#87,.T.);
#41=ORIENTED_EDGE('',*,*,#83,.T.);
#42=ORIENTED_EDGE('',*,*,#88,.T.);
#43=ORIENTED_EDGE('',*,*,#89,.F.);
#44=ORIENTED_EDGE('',*,*,#90,.F.);
#45=ORIENTED_EDGE('',*,*,#86,.T.);
#46=ORIENTED_EDGE('',*,*,#91,.F.);
#47=ORIENTED_EDGE('',*,*,#92,.F.);
#48=ORIENTED_EDGE('',*,*,#93,.T.);
#49=ORIENTED_EDGE('',*,*,#89,.T.);
#50=ORIENTED_EDGE('',*,*,#94,.T.);
#51=ORIENTED_EDGE('',*,*,#95,.F.);
#52=ORIENTED_EDGE('',*,*,#96,.T.);
#53=ORIENTED_EDGE('',*,*,#97,.F.);
#54=ORIENTED_EDGE('',*,*,#98,.T.);
#55=ORIENTED_EDGE('',*,*,#81,.F.);
#56=ORIENTED_EDGE('',*,*,#99,.F.);
#57=ORIENTED_EDGE('',*,*,#92,.T.);
#58=ORIENTED_EDGE('',*,*,#100,.F.);
#59=ORIENTED_EDGE('',*,*,#101,.T.);
#60=ORIENTED_EDGE('',*,*,#80,.F.);
#61=ORIENTED_EDGE('',*,*,#84,.T.);
#62=ORIENTED_EDGE('',*,*,#87,.F.);
#63=ORIENTED_EDGE('',*,*,#90,.T.);
#64=ORIENTED_EDGE('',*,*,#93,.F.);
#65=ORIENTED_EDGE('',*,*,#99,.T.);
#66=ORIENTED_EDGE('',*,*,#96,.F.);
#67=ORIENTED_EDGE('',*,*,#94,.F.);
#68=ORIENTED_EDGE('',*,*,#100,.T.);
#69=ORIENTED_EDGE('',*,*,#78,.T.);
#70=ORIENTED_EDGE('',*,*,#98,.F.);
#71=ORIENTED_EDGE('',*,*,#91,.T.);
#72=ORIENTED_EDGE('',*,*,#88,.F.);
#73=ORIENTED_EDGE('',*,*,#85,.T.);
#74=ORIENTED_EDGE('',*,*,#82,.F.);
#75=ORIENTED_EDGE('',*,*,#97,.T.);
#76=ORIENTED_EDGE('',*,*,#95,.T.);
#77=ORIENTED_EDGE('',*,*,#101,.F.);
#78=EDGE_CURVE('',#102,#103,#120,.T.);
#79=EDGE_CURVE('',#104,#102,#121,.T.);
#80=EDGE_CURVE('',#104,#105,#122,.T.);
#81=EDGE_CURVE('',#105,#103,#123,.T.);
#82=EDGE_CURVE('',#102,#106,#12,.T.);
#83=EDGE_CURVE('',#107,#106,#124,.T.);
#84=EDGE_CURVE('',#104,#107,#13,.T.);
#85=EDGE_CURVE('',#108,#106,#125,.T.);
#86=EDGE_CURVE('',#109,#108,#126,.T.);
#87=EDGE_CURVE('',#109,#107,#127,.T.);
#88=EDGE_CURVE('',#108,#110,#14,.T.);
#89=EDGE_CURVE('',#111,#110,#128,.T.);
#90=EDGE_CURVE('',#109,#111,#15,.T.);
#91=EDGE_CURVE('',#112,#110,#129,.T.);
#92=EDGE_CURVE('',#113,#112,#130,.T.);
#93=EDGE_CURVE('',#113,#111,#131,.T.);
#94=EDGE_CURVE('',#114,#114,#16,.T.);
#95=EDGE_CURVE('',#115,#115,#17,.T.);
#96=EDGE_CURVE('',#116,#116,#18,.T.);
#97=EDGE_CURVE('',#117,#117,#19,.T.);
#98=EDGE_CURVE('',#112,#103,#20,.T.);
#99=EDGE_CURVE('',#113,#105,#21,.T.);
#100=EDGE_CURVE('',#118,#118,#22,.T.);
#101=EDGE_CURVE('',#119,#119,#23,.T.);
#102=VERTEX_POINT('',#299);
#103=VERTEX_POINT('',#300);
#104=VERTEX_POINT('',#302);
#105=VERTEX_POINT('',#304);
#106=VERTEX_POINT('',#308);
#107=VERTEX_POINT('',#310);
#108=VERTEX_POINT('',#314);
#109=VERTEX_POINT('',#316);
#110=VERTEX_POINT('',#320);
#111=VERTEX_POINT('',#322);
#112=VERTEX_POINT('',#326);
#113=VERTEX_POINT('',#328);
#114=VERTEX_POINT('',#332);
#115=VERTEX_POINT('',#334);
#116=VERTEX_POINT('',#337);
#117=VERTEX_POINT('',#339);
#118=VERTEX_POINT('',#345);
#119=VERTEX_POINT('',#347);
#120=LINE('',#298,#132);
#121=LINE('',#301,#133);
#122=LINE('',#303,#134);
#123=LINE('',#305,#135);
#124=LINE('',#309,#136);
#125=LINE('',#313,#137);
#126=LINE('',#315,#138);
#127=LINE('',#317,#139);
#128=LINE('',#321,#140);
#129=LINE('',#325,#141);
#130=LINE('',#327,#142);
#131=LINE('',#329,#143);
#132=VECTOR('',#240,1.);
#133=VECTOR('',#241,1.);
#134=VECTOR('',#242,1.);
#135=VECTOR('',#243,1.);
#136=VECTOR('',#248,1.);
#137=VECTOR('',#253,1.);
#138=VECTOR('',#254,1.);
#139=VECTOR('',#255,1.);
#140=VECTOR('',#260,1.);
#141=VECTOR('',#265,1.);
#142=VECTOR('',#266,1.);
#143=VECTOR('',#267,1.);
#144=EDGE_LOOP('',(#30,#31,#32,#33));
#145=EDGE_LOOP('',(#34,#35,#36,#37));
#146=EDGE_LOOP('',(#38,#39,#40,#41));
#147=EDGE_LOOP('',(#42,#43,#44,#45));
#148=EDGE_LOOP('',(#46,#47,#48,#49));
#149=EDGE_LOOP('',(#50));
#150=EDGE_LOOP('',(#51));
#151=EDGE_LOOP('',(#52));
#152=EDGE_LOOP('',(#53));
#153=EDGE_LOOP('',(#54,#55,#56,#57));
#154=EDGE_LOOP('',(#58));
#155=EDGE_LOOP('',(#59));
#156=EDGE_LOOP('',(#60,#61,#62,#63,#64,#65));
#157=EDGE_LOOP('',(#66));
#158=EDGE_LOOP('',(#67));
#159=EDGE_LOOP('',(#68));
#160=EDGE_LOOP('',(#69,#70,#71,#72,#73,#74));
#161=EDGE_LOOP('',(#75));
#162=EDGE_LOOP('',(#76));
#163=EDGE_LOOP('',(#77));
#164=FACE_BOUND('',#144,.T.);
#165=FACE_BOUND('',#145,.T.);
#166=FACE_BOUND('',#146,.T.);
#167=FACE_BOUND('',#147,.T.);
#168=FACE_BOUND('',#148,.T.);
#169=FACE_BOUND('',#149,.T.);
#170=FACE_BOUND('',#150,.T.);
#171=FACE_BOUND('',#151,.T.);
#172=FACE_BOUND('',#152,.T.);
#173=FACE_BOUND('',#153,.T.);
#174=FACE_BOUND('',#154,.T.);
#175=FACE_BOUND('',#155,.T.);
#176=FACE_BOUND('',#156,.T.);
#177=FACE_BOUND('',#157,.T.);
#178=FACE_BOUND('',#158,.T.);
#179=FACE_BOUND('',#159,.T.);
#180=FACE_BOUND('',#160,.T.);
#181=FACE_BOUND('',#161,.T.);
#182=FACE_BOUND('',#162,.T.);
#183=FACE_BOUND('',#163,.T.);
#184=PLANE('',#213);
#185=PLANE('',#217);
#186=PLANE('',#221);
#187=PLANE('',#234);
#188=PLANE('',#235);
#189=ADVANCED_FACE('',(#164),#184,.T.);
#190=ADVANCED_FACE('',(#165),#24,.T.);
#191=ADVANCED_FACE('',(#166),#185,.T.);
#192=ADVANCED_FACE('',(#167),#25,.T.);
#193=ADVANCED_FACE('',(#168),#186,.T.);
#194=ADVANCED_FACE('',(#169,#170),#26,.F.);
#195=ADVANCED_FACE('',(#171,#172),#27,.F.);
#196=ADVANCED_FACE('',(#173),#28,.T.);
#197=ADVANCED_FACE('',(#174,#175),#29,.F.);
#198=ADVANCED_FACE('',(#176,#177,#178,#179),#187,.T.);
#199=ADVANCED_FACE('',(#180,#181,#182,#183),#188,.F.);
#200=CLOSED_SHELL('',(#189,#190,#191,#192,#193,#194,#195,#196,#197,#198,
#199));
#201=STYLED_ITEM('',(#202),#209);
#202=PRESENTATION_STYLE_ASSIGNMENT((#203));
#203=SURFACE_STYLE_USAGE(.BOTH.,#204);
#204=SURFACE_SIDE_STYLE('',(#205));
#205=SURFACE_STYLE_FILL_AREA(#206);
#206=FILL_AREA_STYLE('',(#207));
#207=FILL_AREA_STYLE_COLOUR('',#208);
#208=COLOUR_RGB('',0.768627450980392,0.886274509803922,0.952941176470588);
#209=MANIFOLD_SOLID_BREP('Leveling Triangle',#200);
#210=SHAPE_DEFINITION_REPRESENTATION(#356,#211);
#211=SHAPE_REPRESENTATION('Leveling Triangle',(#212),#351);
#212=AXIS2_PLACEMENT_3D('',#296,#236,#237);
#213=AXIS2_PLACEMENT_3D('',#297,#238,#239);
#214=AXIS2_PLACEMENT_3D('',#306,#244,#245);
#215=AXIS2_PLACEMENT_3D('',#307,#246,#247);
#216=AXIS2_PLACEMENT_3D('',#311,#249,#250);
#217=AXIS2_PLACEMENT_3D('',#312,#251,#252);
#218=AXIS2_PLACEMENT_3D('',#318,#256,#257);
#219=AXIS2_PLACEMENT_3D('',#319,#258,#259);
#220=AXIS2_PLACEMENT_3D('',#323,#261,#262);
#221=AXIS2_PLACEMENT_3D('',#324,#263,#264);
#222=AXIS2_PLACEMENT_3D('',#330,#268,#269);
#223=AXIS2_PLACEMENT_3D('',#331,#270,#271);
#224=AXIS2_PLACEMENT_3D('',#333,#272,#273);
#225=AXIS2_PLACEMENT_3D('',#335,#274,#275);
#226=AXIS2_PLACEMENT_3D('',#336,#276,#277);
#227=AXIS2_PLACEMENT_3D('',#338,#278,#279);
#228=AXIS2_PLACEMENT_3D('',#340,#280,#281);
#229=AXIS2_PLACEMENT_3D('',#341,#282,#283);
#230=AXIS2_PLACEMENT_3D('',#342,#284,#285);
#231=AXIS2_PLACEMENT_3D('',#343,#286,#287);
#232=AXIS2_PLACEMENT_3D('',#344,#288,#289);
#233=AXIS2_PLACEMENT_3D('',#346,#290,#291);
#234=AXIS2_PLACEMENT_3D('',#348,#292,#293);
#235=AXIS2_PLACEMENT_3D('',#349,#294,#295);
#236=DIRECTION('',(0.,0.,1.));
#237=DIRECTION('',(1.,0.,0.));
#238=DIRECTION('',(0.,4.81528400051986E-16,1.));
#239=DIRECTION('',(0.,-1.,4.81528400051986E-16));
#240=DIRECTION('',(0.,-1.,4.81528400051986E-16));
#241=DIRECTION('',(1.,0.,0.));
#242=DIRECTION('',(0.,-1.,4.81528400051986E-16));
#243=DIRECTION('',(1.,0.,0.));
#244=DIRECTION('',(1.,0.,0.));
#245=DIRECTION('',(0.,0.,-1.));
#246=DIRECTION('',(-1.,0.,0.));
#247=DIRECTION('',(0.,0.,1.));
#248=DIRECTION('',(1.,0.,0.));
#249=DIRECTION('',(-1.,0.,0.));
#250=DIRECTION('',(0.,0.,1.));
#251=DIRECTION('',(0.,0.5,-0.866025403784439));
#252=DIRECTION('',(0.,0.866025403784439,0.5));
#253=DIRECTION('',(0.,0.866025403784439,0.5));
#254=DIRECTION('',(1.,0.,0.));
#255=DIRECTION('',(0.,0.866025403784439,0.5));
#256=DIRECTION('',(1.,0.,0.));
#257=DIRECTION('',(0.,0.,-1.));
#258=DIRECTION('',(-1.,0.,0.));
#259=DIRECTION('',(0.,0.,1.));
#260=DIRECTION('',(1.,0.,0.));
#261=DIRECTION('',(-1.,0.,0.));
#262=DIRECTION('',(0.,0.,1.));
#263=DIRECTION('',(0.,-0.941279905467319,-0.337627219820077));
#264=DIRECTION('',(0.,0.337627219820077,-0.941279905467319));
#265=DIRECTION('',(0.,0.337627219820077,-0.941279905467319));
#266=DIRECTION('',(1.,0.,0.));
#267=DIRECTION('',(0.,0.337627219820077,-0.941279905467319));
#268=DIRECTION('',(1.,0.,0.));
#269=DIRECTION('',(0.,0.,-1.));
#270=DIRECTION('',(-1.,0.,0.));
#271=DIRECTION('',(0.,0.,1.));
#272=DIRECTION('',(-1.,0.,0.));
#273=DIRECTION('',(0.,0.,1.));
#274=DIRECTION('',(1.,0.,0.));
#275=DIRECTION('',(0.,0.,-1.));
#276=DIRECTION('',(-1.,0.,0.));
#277=DIRECTION('',(0.,0.,1.));
#278=DIRECTION('',(-1.,0.,0.));
#279=DIRECTION('',(0.,0.,1.));
#280=DIRECTION('',(1.,0.,0.));
#281=DIRECTION('',(0.,0.,-1.));
#282=DIRECTION('',(-1.,0.,0.));
#283=DIRECTION('',(0.,0.,1.));
#284=DIRECTION('',(-1.,0.,0.));
#285=DIRECTION('',(0.,0.,1.));
#286=DIRECTION('',(1.,0.,0.));
#287=DIRECTION('',(0.,0.,-1.));
#288=DIRECTION('',(1.,0.,0.));
#289=DIRECTION('',(0.,0.,-1.));
#290=DIRECTION('',(1.,0.,0.));
#291=DIRECTION('',(0.,0.,-1.));
#292=DIRECTION('',(-1.,0.,0.));
#293=DIRECTION('',(0.,-1.,0.));
#294=DIRECTION('',(-1.,0.,0.));
#295=DIRECTION('',(0.,-1.,0.));
#296=CARTESIAN_POINT('',(0.,0.,0.));
#297=CARTESIAN_POINT('',(-0.016,0.0188111078829118,0.1075));
#298=CARTESIAN_POINT('',(-0.01,0.0188111078829118,0.1075));
#299=CARTESIAN_POINT('',(-0.01,0.0476313972081441,0.1075));
#300=CARTESIAN_POINT('',(-0.01,-0.0100091814423205,0.1075));
#301=CARTESIAN_POINT('',(-0.016,0.0476313972081441,0.1075));
#302=CARTESIAN_POINT('',(-0.016,0.0476313972081441,0.1075));
#303=CARTESIAN_POINT('',(-0.016,0.0188111078829118,0.1075));
#304=CARTESIAN_POINT('',(-0.016,-0.0100091814423205,0.1075));
#305=CARTESIAN_POINT('',(-0.016,-0.0100091814423205,0.1075));
#306=CARTESIAN_POINT('',(-0.016,0.0476313972081441,0.1025));
#307=CARTESIAN_POINT('',(-0.01,0.0476313972081441,0.1025));
#308=CARTESIAN_POINT('',(-0.01,0.0501313972081441,0.0981698729810778));
#309=CARTESIAN_POINT('',(-0.016,0.0501313972081441,0.0981698729810778));
#310=CARTESIAN_POINT('',(-0.016,0.0501313972081441,0.0981698729810778));
#311=CARTESIAN_POINT('',(-0.016,0.0476313972081441,0.1025));
#312=CARTESIAN_POINT('',(-0.016,0.0263156986040721,0.0844198729810778));
#313=CARTESIAN_POINT('',(-0.01,0.0263156986040721,0.0844198729810778));
#314=CARTESIAN_POINT('',(-0.01,0.0025,0.0706698729810778));
#315=CARTESIAN_POINT('',(-0.016,0.0025,0.0706698729810778));
#316=CARTESIAN_POINT('',(-0.016,0.0025,0.0706698729810778));
#317=CARTESIAN_POINT('',(-0.016,0.0263156986040721,0.0844198729810778));
#318=CARTESIAN_POINT('',(-0.016,2.38524477946811E-18,0.075));
#319=CARTESIAN_POINT('',(-0.01,2.38524477946811E-18,0.075));
#320=CARTESIAN_POINT('',(-0.01,-0.0047063995273366,0.0733118639008996));
#321=CARTESIAN_POINT('',(-0.016,-0.0047063995273366,0.0733118639008996));
#322=CARTESIAN_POINT('',(-0.016,-0.0047063995273366,0.0733118639008996));
#323=CARTESIAN_POINT('',(-0.016,2.38524477946811E-18,0.075));
#324=CARTESIAN_POINT('',(-0.016,-0.0145869147679998,0.100858015116599));
#325=CARTESIAN_POINT('',(-0.01,-0.0145869147679998,0.100858015116599));
#326=CARTESIAN_POINT('',(-0.01,-0.0149789468225148,0.10195097170763));
#327=CARTESIAN_POINT('',(-0.016,-0.0149789468225148,0.10195097170763));
#328=CARTESIAN_POINT('',(-0.016,-0.0149789468225148,0.10195097170763));
#329=CARTESIAN_POINT('',(-0.016,-0.0145869147679998,0.100858015116599));
#330=CARTESIAN_POINT('',(-0.016,0.0476313972081441,0.1025));
#331=CARTESIAN_POINT('',(-0.016,0.0476313972081441,0.1025));
#332=CARTESIAN_POINT('',(-0.016,0.0476313972081441,0.1048));
#333=CARTESIAN_POINT('',(-0.01,0.0476313972081441,0.1025));
#334=CARTESIAN_POINT('',(-0.01,0.0476313972081441,0.1048));
#335=CARTESIAN_POINT('',(-0.016,-0.0100091814423205,0.1025));
#336=CARTESIAN_POINT('',(-0.016,-0.0100091814423205,0.1025));
#337=CARTESIAN_POINT('',(-0.016,-0.0100091814423205,0.1048));
#338=CARTESIAN_POINT('',(-0.01,-0.0100091814423205,0.1025));
#339=CARTESIAN_POINT('',(-0.01,-0.0100091814423205,0.1048));
#340=CARTESIAN_POINT('',(-0.016,-0.0100091814423205,0.1025));
#341=CARTESIAN_POINT('',(-0.01,-0.0100091814423205,0.1025));
#342=CARTESIAN_POINT('',(-0.016,-0.0100091814423205,0.1025));
#343=CARTESIAN_POINT('',(-0.016,0.,0.075));
#344=CARTESIAN_POINT('',(-0.016,0.,0.075));
#345=CARTESIAN_POINT('',(-0.016,0.,0.0727));
#346=CARTESIAN_POINT('',(-0.01,0.,0.075));
#347=CARTESIAN_POINT('',(-0.01,0.,0.0727));
#348=CARTESIAN_POINT('',(-0.016,-0.0136843013959279,0.0872893338418719));
#349=CARTESIAN_POINT('',(-0.01,-0.0136843013959279,0.0872893338418719));
#350=MECHANICAL_DESIGN_GEOMETRIC_PRESENTATION_REPRESENTATION('',(#201),
#351);
#351=(
GEOMETRIC_REPRESENTATION_CONTEXT(3)
GLOBAL_UNCERTAINTY_ASSIGNED_CONTEXT((#352))
GLOBAL_UNIT_ASSIGNED_CONTEXT((#355,#354,#353))
REPRESENTATION_CONTEXT('Leveling Triangle','TOP_LEVEL_ASSEMBLY_PART')
);
#352=UNCERTAINTY_MEASURE_WITH_UNIT(LENGTH_MEASURE(1.E-8),#355,
'DISTANCE_ACCURACY_VALUE','Maximum Tolerance applied to model');
#353=(
NAMED_UNIT(*)
SI_UNIT($,.STERADIAN.)
SOLID_ANGLE_UNIT()
);
#354=(
NAMED_UNIT(*)
PLANE_ANGLE_UNIT()
SI_UNIT($,.RADIAN.)
);
#355=(
LENGTH_UNIT()
NAMED_UNIT(*)
SI_UNIT($,.METRE.)
);
#356=PRODUCT_DEFINITION_SHAPE('','',#357);
#357=PRODUCT_DEFINITION('','',#359,#358);
#358=PRODUCT_DEFINITION_CONTEXT('',#365,'design');
#359=PRODUCT_DEFINITION_FORMATION_WITH_SPECIFIED_SOURCE('','',#361,
 .NOT_KNOWN.);
#360=PRODUCT_RELATED_PRODUCT_CATEGORY('','',(#361));
#361=PRODUCT('Leveling Triangle','Leveling Triangle',
'Leveling Triangle',(#363));
#362=PRODUCT_CATEGORY('','');
#363=PRODUCT_CONTEXT('',#365,'mechanical');
#364=APPLICATION_PROTOCOL_DEFINITION('international standard',
'ap242_managed_model_based_3d_engineering',2020,#365);
#365=APPLICATION_CONTEXT('managed model based 3d engineering');
ENDSEC;
END-ISO-10303-21;
