ISO-10303-21;
HEADER;
/* Generated by software containing ST-Developer
 * from STEP Tools, Inc. (www.steptools.com) 
 */
/* OPTION: using custom renumber hook */

FILE_DESCRIPTION(
/* description */ ('STEP AP242 Edition 2',
'CAx-IF Rec.Pracs.---Representation and Presentation of Product Manufa
cturing Information (PMI)---4.0---2014-10-13',
'CAx-IF Rec.Pracs.---3D Tessellated Geometry---0.4---2014-09-14','2;1',
'CAx-IF Rec.Pracs.---User Defined Attributes---1.5---2016-08-15'),
/* implementation_level */ '2;1');

FILE_NAME(
/* name */ 'LimeArm MKI - Main Arm',
/* time_stamp */ '2026-05-27T02:34:59Z',
/* author */ (''),
/* organization */ (''),
/* preprocessor_version */ 'ST-DEVELOPER v20',
/* originating_system */ 'ONSHAPE BY PTC INC, 1.215',
/* authorisation */ '  ');

FILE_SCHEMA (('AP242_MANAGED_MODEL_BASED_3D_ENGINEERING_MIM_LF { 1 0 10303 442 3 1 4 }'));
ENDSEC;

DATA;
#10=SHAPE_REPRESENTATION_RELATIONSHIP('','',#257,#11);
#11=ADVANCED_BREP_SHAPE_REPRESENTATION('',(#255),#464);
#12=B_SPLINE_SURFACE_WITH_KNOTS('',3,1,((#405,#406),(#407,#408),(#409,#410),
(#411,#412)),.SURF_OF_LINEAR_EXTRUSION.,.F.,.F.,.F.,(4,4),(2,2),(0.00494814750909336,
0.657550826484375),(0.,1.),.PIECEWISE_BEZIER_KNOTS.);
#13=B_SPLINE_SURFACE_WITH_KNOTS('',3,1,((#423,#424),(#425,#426),(#427,#428),
(#429,#430)),.SURF_OF_LINEAR_EXTRUSION.,.F.,.F.,.F.,(4,4),(2,2),(0.775764889711278,
0.963322465348647),(0.,1.),.PIECEWISE_BEZIER_KNOTS.);
#14=B_SPLINE_SURFACE_WITH_KNOTS('',3,1,((#440,#441),(#442,#443),(#444,#445),
(#446,#447)),.SURF_OF_LINEAR_EXTRUSION.,.F.,.F.,.F.,(4,4),(2,2),(0.,1.),
(0.,1.),.PIECEWISE_BEZIER_KNOTS.);
#15=B_SPLINE_CURVE_WITH_KNOTS('',3,(#381,#382,#383,#384),.UNSPECIFIED.,
 .F.,.F.,(4,4),(0.775764889711278,0.963322465348647),
 .PIECEWISE_BEZIER_KNOTS.);
#16=B_SPLINE_CURVE_WITH_KNOTS('',3,(#388,#389,#390,#391),.UNSPECIFIED.,
 .F.,.F.,(4,4),(0.00494814750909336,0.657550826484375),
 .PIECEWISE_BEZIER_KNOTS.);
#17=B_SPLINE_CURVE_WITH_KNOTS('',3,(#395,#396,#397,#398),.UNSPECIFIED.,
 .F.,.F.,(4,4),(0.,1.),.PIECEWISE_BEZIER_KNOTS.);
#18=B_SPLINE_CURVE_WITH_KNOTS('',3,(#413,#414,#415,#416),.UNSPECIFIED.,
 .F.,.F.,(4,4),(0.00494814750909336,0.657550826484375),
 .PIECEWISE_BEZIER_KNOTS.);
#19=B_SPLINE_CURVE_WITH_KNOTS('',3,(#431,#432,#433,#434),.UNSPECIFIED.,
 .F.,.F.,(4,4),(0.775764889711278,0.963322465348647),
 .PIECEWISE_BEZIER_KNOTS.);
#20=B_SPLINE_CURVE_WITH_KNOTS('',3,(#448,#449,#450,#451),.UNSPECIFIED.,
 .F.,.F.,(4,4),(0.,1.),.PIECEWISE_BEZIER_KNOTS.);
#21=PLANE('',#266);
#22=PLANE('',#283);
#23=PLANE('',#286);
#24=LINE('',#361,#33);
#25=LINE('',#365,#34);
#26=LINE('',#403,#35);
#27=LINE('',#404,#36);
#28=LINE('',#418,#37);
#29=LINE('',#422,#38);
#30=LINE('',#436,#39);
#31=LINE('',#439,#40);
#32=LINE('',#452,#41);
#33=VECTOR('',#295,1.);
#34=VECTOR('',#298,1.);
#35=VECTOR('',#323,1.);
#36=VECTOR('',#324,1.);
#37=VECTOR('',#325,1.);
#38=VECTOR('',#330,1.);
#39=VECTOR('',#331,1.);
#40=VECTOR('',#336,1.);
#41=VECTOR('',#337,1.);
#42=ORIENTED_EDGE('',*,*,#106,.F.);
#43=ORIENTED_EDGE('',*,*,#107,.T.);
#44=ORIENTED_EDGE('',*,*,#108,.T.);
#45=ORIENTED_EDGE('',*,*,#109,.F.);
#46=ORIENTED_EDGE('',*,*,#110,.F.);
#47=ORIENTED_EDGE('',*,*,#111,.T.);
#48=ORIENTED_EDGE('',*,*,#112,.F.);
#49=ORIENTED_EDGE('',*,*,#113,.T.);
#50=ORIENTED_EDGE('',*,*,#114,.T.);
#51=ORIENTED_EDGE('',*,*,#115,.F.);
#52=ORIENTED_EDGE('',*,*,#116,.F.);
#53=ORIENTED_EDGE('',*,*,#117,.F.);
#54=ORIENTED_EDGE('',*,*,#118,.F.);
#55=ORIENTED_EDGE('',*,*,#119,.F.);
#56=ORIENTED_EDGE('',*,*,#120,.F.);
#57=ORIENTED_EDGE('',*,*,#121,.T.);
#58=ORIENTED_EDGE('',*,*,#122,.F.);
#59=ORIENTED_EDGE('',*,*,#123,.F.);
#60=ORIENTED_EDGE('',*,*,#120,.T.);
#61=ORIENTED_EDGE('',*,*,#124,.T.);
#62=ORIENTED_EDGE('',*,*,#125,.F.);
#63=ORIENTED_EDGE('',*,*,#124,.F.);
#64=ORIENTED_EDGE('',*,*,#119,.T.);
#65=ORIENTED_EDGE('',*,*,#126,.T.);
#66=ORIENTED_EDGE('',*,*,#127,.F.);
#67=ORIENTED_EDGE('',*,*,#126,.F.);
#68=ORIENTED_EDGE('',*,*,#118,.T.);
#69=ORIENTED_EDGE('',*,*,#128,.T.);
#70=ORIENTED_EDGE('',*,*,#129,.F.);
#71=ORIENTED_EDGE('',*,*,#128,.F.);
#72=ORIENTED_EDGE('',*,*,#117,.T.);
#73=ORIENTED_EDGE('',*,*,#130,.T.);
#74=ORIENTED_EDGE('',*,*,#131,.F.);
#75=ORIENTED_EDGE('',*,*,#130,.F.);
#76=ORIENTED_EDGE('',*,*,#116,.T.);
#77=ORIENTED_EDGE('',*,*,#132,.T.);
#78=ORIENTED_EDGE('',*,*,#110,.T.);
#79=ORIENTED_EDGE('',*,*,#133,.T.);
#80=ORIENTED_EDGE('',*,*,#108,.F.);
#81=ORIENTED_EDGE('',*,*,#134,.F.);
#82=ORIENTED_EDGE('',*,*,#121,.F.);
#83=ORIENTED_EDGE('',*,*,#123,.T.);
#84=ORIENTED_EDGE('',*,*,#113,.F.);
#85=ORIENTED_EDGE('',*,*,#135,.T.);
#86=ORIENTED_EDGE('',*,*,#114,.F.);
#87=ORIENTED_EDGE('',*,*,#136,.T.);
#88=ORIENTED_EDGE('',*,*,#136,.F.);
#89=ORIENTED_EDGE('',*,*,#135,.F.);
#90=ORIENTED_EDGE('',*,*,#122,.T.);
#91=ORIENTED_EDGE('',*,*,#125,.T.);
#92=ORIENTED_EDGE('',*,*,#127,.T.);
#93=ORIENTED_EDGE('',*,*,#129,.T.);
#94=ORIENTED_EDGE('',*,*,#131,.T.);
#95=ORIENTED_EDGE('',*,*,#109,.T.);
#96=ORIENTED_EDGE('',*,*,#133,.F.);
#97=ORIENTED_EDGE('',*,*,#111,.F.);
#98=ORIENTED_EDGE('',*,*,#115,.T.);
#99=ORIENTED_EDGE('',*,*,#134,.T.);
#100=ORIENTED_EDGE('',*,*,#137,.F.);
#101=ORIENTED_EDGE('',*,*,#132,.F.);
#102=ORIENTED_EDGE('',*,*,#112,.T.);
#103=ORIENTED_EDGE('',*,*,#107,.F.);
#104=ORIENTED_EDGE('',*,*,#106,.T.);
#105=ORIENTED_EDGE('',*,*,#137,.T.);
#106=EDGE_CURVE('',#138,#139,#161,.T.);
#107=EDGE_CURVE('',#138,#140,#162,.T.);
#108=EDGE_CURVE('',#140,#141,#24,.T.);
#109=EDGE_CURVE('',#142,#141,#163,.T.);
#110=EDGE_CURVE('',#139,#142,#25,.T.);
#111=EDGE_CURVE('',#143,#143,#164,.T.);
#112=EDGE_CURVE('',#144,#144,#165,.T.);
#113=EDGE_CURVE('',#145,#145,#166,.T.);
#114=EDGE_CURVE('',#146,#146,#167,.T.);
#115=EDGE_CURVE('',#147,#148,#168,.T.);
#116=EDGE_CURVE('',#149,#147,#169,.T.);
#117=EDGE_CURVE('',#150,#149,#15,.T.);
#118=EDGE_CURVE('',#151,#150,#170,.T.);
#119=EDGE_CURVE('',#152,#151,#16,.T.);
#120=EDGE_CURVE('',#153,#152,#171,.T.);
#121=EDGE_CURVE('',#153,#148,#17,.T.);
#122=EDGE_CURVE('',#154,#155,#172,.T.);
#123=EDGE_CURVE('',#153,#154,#26,.T.);
#124=EDGE_CURVE('',#152,#155,#27,.T.);
#125=EDGE_CURVE('',#155,#156,#18,.T.);
#126=EDGE_CURVE('',#151,#156,#28,.T.);
#127=EDGE_CURVE('',#156,#157,#173,.T.);
#128=EDGE_CURVE('',#150,#157,#29,.T.);
#129=EDGE_CURVE('',#157,#158,#19,.T.);
#130=EDGE_CURVE('',#149,#158,#30,.T.);
#131=EDGE_CURVE('',#158,#142,#174,.T.);
#132=EDGE_CURVE('',#147,#139,#31,.T.);
#133=EDGE_CURVE('',#154,#141,#20,.T.);
#134=EDGE_CURVE('',#148,#140,#32,.T.);
#135=EDGE_CURVE('',#159,#159,#175,.T.);
#136=EDGE_CURVE('',#160,#160,#176,.T.);
#137=EDGE_CURVE('',#139,#140,#177,.T.);
#138=VERTEX_POINT('',#357);
#139=VERTEX_POINT('',#358);
#140=VERTEX_POINT('',#360);
#141=VERTEX_POINT('',#362);
#142=VERTEX_POINT('',#364);
#143=VERTEX_POINT('',#368);
#144=VERTEX_POINT('',#370);
#145=VERTEX_POINT('',#373);
#146=VERTEX_POINT('',#375);
#147=VERTEX_POINT('',#377);
#148=VERTEX_POINT('',#378);
#149=VERTEX_POINT('',#380);
#150=VERTEX_POINT('',#385);
#151=VERTEX_POINT('',#387);
#152=VERTEX_POINT('',#392);
#153=VERTEX_POINT('',#394);
#154=VERTEX_POINT('',#401);
#155=VERTEX_POINT('',#402);
#156=VERTEX_POINT('',#417);
#157=VERTEX_POINT('',#421);
#158=VERTEX_POINT('',#435);
#159=VERTEX_POINT('',#455);
#160=VERTEX_POINT('',#458);
#161=CIRCLE('',#260,0.005);
#162=CIRCLE('',#261,0.005);
#163=CIRCLE('',#262,0.005);
#164=CIRCLE('',#264,0.0023);
#165=CIRCLE('',#265,0.0023);
#166=CIRCLE('',#267,0.0023);
#167=CIRCLE('',#268,0.0023);
#168=CIRCLE('',#269,0.005);
#169=CIRCLE('',#270,0.285333292505411);
#170=CIRCLE('',#271,0.267655040430913);
#171=CIRCLE('',#272,0.005);
#172=CIRCLE('',#274,0.005);
#173=CIRCLE('',#276,0.267655040430913);
#174=CIRCLE('',#278,0.285333292505411);
#175=CIRCLE('',#280,0.0023);
#176=CIRCLE('',#282,0.0023);
#177=CIRCLE('',#285,0.005);
#178=EDGE_LOOP('',(#42,#43,#44,#45,#46));
#179=EDGE_LOOP('',(#47));
#180=EDGE_LOOP('',(#48));
#181=EDGE_LOOP('',(#49));
#182=EDGE_LOOP('',(#50));
#183=EDGE_LOOP('',(#51,#52,#53,#54,#55,#56,#57));
#184=EDGE_LOOP('',(#58,#59,#60,#61));
#185=EDGE_LOOP('',(#62,#63,#64,#65));
#186=EDGE_LOOP('',(#66,#67,#68,#69));
#187=EDGE_LOOP('',(#70,#71,#72,#73));
#188=EDGE_LOOP('',(#74,#75,#76,#77,#78));
#189=EDGE_LOOP('',(#79,#80,#81,#82,#83));
#190=EDGE_LOOP('',(#84));
#191=EDGE_LOOP('',(#85));
#192=EDGE_LOOP('',(#86));
#193=EDGE_LOOP('',(#87));
#194=EDGE_LOOP('',(#88));
#195=EDGE_LOOP('',(#89));
#196=EDGE_LOOP('',(#90,#91,#92,#93,#94,#95,#96));
#197=EDGE_LOOP('',(#97));
#198=EDGE_LOOP('',(#98,#99,#100,#101));
#199=EDGE_LOOP('',(#102));
#200=EDGE_LOOP('',(#103,#104,#105));
#201=FACE_BOUND('',#178,.T.);
#202=FACE_BOUND('',#179,.T.);
#203=FACE_BOUND('',#180,.T.);
#204=FACE_BOUND('',#181,.T.);
#205=FACE_BOUND('',#182,.T.);
#206=FACE_BOUND('',#183,.T.);
#207=FACE_BOUND('',#184,.T.);
#208=FACE_BOUND('',#185,.T.);
#209=FACE_BOUND('',#186,.T.);
#210=FACE_BOUND('',#187,.T.);
#211=FACE_BOUND('',#188,.T.);
#212=FACE_BOUND('',#189,.T.);
#213=FACE_BOUND('',#190,.T.);
#214=FACE_BOUND('',#191,.T.);
#215=FACE_BOUND('',#192,.T.);
#216=FACE_BOUND('',#193,.T.);
#217=FACE_BOUND('',#194,.T.);
#218=FACE_BOUND('',#195,.T.);
#219=FACE_BOUND('',#196,.T.);
#220=FACE_BOUND('',#197,.T.);
#221=FACE_BOUND('',#198,.T.);
#222=FACE_BOUND('',#199,.T.);
#223=FACE_BOUND('',#200,.T.);
#224=CYLINDRICAL_SURFACE('',#259,0.005);
#225=CYLINDRICAL_SURFACE('',#263,0.0023);
#226=CYLINDRICAL_SURFACE('',#273,0.005);
#227=CYLINDRICAL_SURFACE('',#275,0.267655040430913);
#228=CYLINDRICAL_SURFACE('',#277,0.285333292505411);
#229=CYLINDRICAL_SURFACE('',#279,0.0023);
#230=CYLINDRICAL_SURFACE('',#281,0.0023);
#231=CYLINDRICAL_SURFACE('',#284,0.005);
#232=ADVANCED_FACE('',(#201),#224,.T.);
#233=ADVANCED_FACE('',(#202,#203),#225,.F.);
#234=ADVANCED_FACE('',(#204,#205,#206),#21,.F.);
#235=ADVANCED_FACE('',(#207),#226,.T.);
#236=ADVANCED_FACE('',(#208),#12,.T.);
#237=ADVANCED_FACE('',(#209),#227,.T.);
#238=ADVANCED_FACE('',(#210),#13,.T.);
#239=ADVANCED_FACE('',(#211),#228,.T.);
#240=ADVANCED_FACE('',(#212),#14,.F.);
#241=ADVANCED_FACE('',(#213,#214),#229,.F.);
#242=ADVANCED_FACE('',(#215,#216),#230,.F.);
#243=ADVANCED_FACE('',(#217,#218,#219,#220),#22,.T.);
#244=ADVANCED_FACE('',(#221),#231,.F.);
#245=ADVANCED_FACE('',(#222,#223),#23,.T.);
#246=CLOSED_SHELL('',(#232,#233,#234,#235,#236,#237,#238,#239,#240,#241,
#242,#243,#244,#245));
#247=STYLED_ITEM('',(#248),#255);
#248=PRESENTATION_STYLE_ASSIGNMENT((#249));
#249=SURFACE_STYLE_USAGE(.BOTH.,#250);
#250=SURFACE_SIDE_STYLE('',(#251));
#251=SURFACE_STYLE_FILL_AREA(#252);
#252=FILL_AREA_STYLE('',(#253));
#253=FILL_AREA_STYLE_COLOUR('',#254);
#254=COLOUR_RGB('',0.917647058823529,0.917647058823529,0.917647058823529);
#255=MANIFOLD_SOLID_BREP('Main Arm',#246);
#256=SHAPE_DEFINITION_REPRESENTATION(#469,#257);
#257=SHAPE_REPRESENTATION('Main Arm',(#258),#464);
#258=AXIS2_PLACEMENT_3D('',#354,#287,#288);
#259=AXIS2_PLACEMENT_3D('',#355,#289,#290);
#260=AXIS2_PLACEMENT_3D('',#356,#291,#292);
#261=AXIS2_PLACEMENT_3D('',#359,#293,#294);
#262=AXIS2_PLACEMENT_3D('',#363,#296,#297);
#263=AXIS2_PLACEMENT_3D('',#366,#299,#300);
#264=AXIS2_PLACEMENT_3D('',#367,#301,#302);
#265=AXIS2_PLACEMENT_3D('',#369,#303,#304);
#266=AXIS2_PLACEMENT_3D('',#371,#305,#306);
#267=AXIS2_PLACEMENT_3D('',#372,#307,#308);
#268=AXIS2_PLACEMENT_3D('',#374,#309,#310);
#269=AXIS2_PLACEMENT_3D('',#376,#311,#312);
#270=AXIS2_PLACEMENT_3D('',#379,#313,#314);
#271=AXIS2_PLACEMENT_3D('',#386,#315,#316);
#272=AXIS2_PLACEMENT_3D('',#393,#317,#318);
#273=AXIS2_PLACEMENT_3D('',#399,#319,#320);
#274=AXIS2_PLACEMENT_3D('',#400,#321,#322);
#275=AXIS2_PLACEMENT_3D('',#419,#326,#327);
#276=AXIS2_PLACEMENT_3D('',#420,#328,#329);
#277=AXIS2_PLACEMENT_3D('',#437,#332,#333);
#278=AXIS2_PLACEMENT_3D('',#438,#334,#335);
#279=AXIS2_PLACEMENT_3D('',#453,#338,#339);
#280=AXIS2_PLACEMENT_3D('',#454,#340,#341);
#281=AXIS2_PLACEMENT_3D('',#456,#342,#343);
#282=AXIS2_PLACEMENT_3D('',#457,#344,#345);
#283=AXIS2_PLACEMENT_3D('',#459,#346,#347);
#284=AXIS2_PLACEMENT_3D('',#460,#348,#349);
#285=AXIS2_PLACEMENT_3D('',#461,#350,#351);
#286=AXIS2_PLACEMENT_3D('',#462,#352,#353);
#287=DIRECTION('',(0.,0.,1.));
#288=DIRECTION('',(1.,0.,0.));
#289=DIRECTION('',(1.,0.,0.));
#290=DIRECTION('',(0.,0.,-1.));
#291=DIRECTION('',(-1.,0.,0.));
#292=DIRECTION('',(0.,0.,1.));
#293=DIRECTION('',(1.,0.,0.));
#294=DIRECTION('',(0.,0.,-1.));
#295=DIRECTION('',(1.,0.,0.));
#296=DIRECTION('',(1.,0.,0.));
#297=DIRECTION('',(0.,0.,-1.));
#298=DIRECTION('',(1.,0.,0.));
#299=DIRECTION('',(1.,0.,0.));
#300=DIRECTION('',(0.,0.,-1.));
#301=DIRECTION('',(1.,0.,0.));
#302=DIRECTION('',(0.,0.,-1.));
#303=DIRECTION('',(1.,0.,0.));
#304=DIRECTION('',(0.,0.,-1.));
#305=DIRECTION('',(1.,0.,0.));
#306=DIRECTION('',(0.,1.,0.));
#307=DIRECTION('',(1.,0.,0.));
#308=DIRECTION('',(0.,0.,-1.));
#309=DIRECTION('',(1.,0.,0.));
#310=DIRECTION('',(0.,0.,-1.));
#311=DIRECTION('',(-1.,0.,0.));
#312=DIRECTION('',(0.,0.,1.));
#313=DIRECTION('',(1.,0.,0.));
#314=DIRECTION('',(0.,0.,-1.));
#315=DIRECTION('',(1.,0.,0.));
#316=DIRECTION('',(0.,0.,-1.));
#317=DIRECTION('',(1.,0.,0.));
#318=DIRECTION('',(0.,0.,-1.));
#319=DIRECTION('',(1.,0.,0.));
#320=DIRECTION('',(0.,0.,-1.));
#321=DIRECTION('',(1.,0.,0.));
#322=DIRECTION('',(0.,0.,-1.));
#323=DIRECTION('',(1.,0.,0.));
#324=DIRECTION('',(1.,0.,0.));
#325=DIRECTION('',(1.,0.,0.));
#326=DIRECTION('',(1.,0.,0.));
#327=DIRECTION('',(0.,0.0145132675119879,-0.999894676986594));
#328=DIRECTION('',(1.,0.,0.));
#329=DIRECTION('',(0.,0.,-1.));
#330=DIRECTION('',(1.,0.,0.));
#331=DIRECTION('',(1.,0.,0.));
#332=DIRECTION('',(1.,0.,0.));
#333=DIRECTION('',(0.,0.138102283309256,-0.990417972042496));
#334=DIRECTION('',(1.,0.,0.));
#335=DIRECTION('',(0.,0.,-1.));
#336=DIRECTION('',(1.,0.,0.));
#337=DIRECTION('',(1.,0.,0.));
#338=DIRECTION('',(1.,0.,0.));
#339=DIRECTION('',(0.,0.,-1.));
#340=DIRECTION('',(1.,0.,0.));
#341=DIRECTION('',(0.,0.,-1.));
#342=DIRECTION('',(1.,0.,0.));
#343=DIRECTION('',(0.,0.,-1.));
#344=DIRECTION('',(1.,0.,0.));
#345=DIRECTION('',(0.,0.,-1.));
#346=DIRECTION('',(1.,0.,0.));
#347=DIRECTION('',(0.,1.,0.));
#348=DIRECTION('',(-1.,0.,0.));
#349=DIRECTION('',(0.,0.,1.));
#350=DIRECTION('',(-1.,0.,0.));
#351=DIRECTION('',(0.,0.,1.));
#352=DIRECTION('',(-1.,0.,0.));
#353=DIRECTION('',(0.,-1.,0.));
#354=CARTESIAN_POINT('',(0.,0.,0.));
#355=CARTESIAN_POINT('',(-0.01,0.035,0.075));
#356=CARTESIAN_POINT('',(-0.0066,0.0354017696873868,0.0749874277464244));
#357=CARTESIAN_POINT('',(-0.0066,0.0350446268302424,0.0700001991593642));
#358=CARTESIAN_POINT('',(-0.0066,0.0350002348707267,0.0700017789646826));
#359=CARTESIAN_POINT('',(-0.0066,0.035,0.075));
#360=CARTESIAN_POINT('',(-0.0066,0.0353571428571443,0.0799872285870602));
#361=CARTESIAN_POINT('',(-0.01,0.0353571428571443,0.0799872285870602));
#362=CARTESIAN_POINT('',(0.,0.0353571428571443,0.0799872285870602));
#363=CARTESIAN_POINT('',(0.,0.035,0.075));
#364=CARTESIAN_POINT('',(0.,0.0349998099606968,0.0700000000036115));
#365=CARTESIAN_POINT('',(-0.0066,0.0349998099606969,0.0700000000036115));
#366=CARTESIAN_POINT('',(-0.01,0.035,0.075));
#367=CARTESIAN_POINT('',(0.,0.035,0.075));
#368=CARTESIAN_POINT('',(0.,0.035,0.0727));
#369=CARTESIAN_POINT('',(-0.0066,0.035,0.075));
#370=CARTESIAN_POINT('',(-0.0066,0.035,0.0727));
#371=CARTESIAN_POINT('',(-0.01,-0.02,0.0416024456129893));
#372=CARTESIAN_POINT('',(-0.01,-0.075,0.075));
#373=CARTESIAN_POINT('',(-0.01,-0.075,0.0727));
#374=CARTESIAN_POINT('',(-0.01,0.,0.075));
#375=CARTESIAN_POINT('',(-0.01,0.,0.0727));
#376=CARTESIAN_POINT('',(-0.01,0.0354017696873868,0.0749874277464244));
#377=CARTESIAN_POINT('',(-0.00999999976321354,0.0350005124066162,0.0700017611197436));
#378=CARTESIAN_POINT('',(-0.01,0.0353571428571443,0.0799872285870602));
#379=CARTESIAN_POINT('',(-0.01,-0.00692501021336788,0.352236420873333));
#380=CARTESIAN_POINT('',(-0.01,0.03,0.0693024784671925));
#381=CARTESIAN_POINT('',(-0.01,0.00663048153228709,0.0672972275857565));
#382=CARTESIAN_POINT('',(-0.01,0.0138925596558617,0.0675891641440828));
#383=CARTESIAN_POINT('',(-0.01,0.0216110297298509,0.0682082926003978));
#384=CARTESIAN_POINT('',(-0.01,0.0300000000097462,0.0693024784671925));
#385=CARTESIAN_POINT('',(-0.01,0.00663048153228709,0.0672972275857565));
#386=CARTESIAN_POINT('',(-0.01,-0.0039905209512701,0.334740945689532));
#387=CARTESIAN_POINT('',(-0.01,-0.00661067548823235,0.0670981336572808));
#388=CARTESIAN_POINT('',(-0.01,-0.0746423619044419,0.0700128069024144));
#389=CARTESIAN_POINT('',(-0.01,-0.0498438647324216,0.0703609075391157));
#390=CARTESIAN_POINT('',(-0.01,-0.0301730921449453,0.067313058110977));
#391=CARTESIAN_POINT('',(-0.01,-0.00661067548823278,0.0670981336572808));
#392=CARTESIAN_POINT('',(-0.01,-0.0746423619044419,0.0700128069024144));
#393=CARTESIAN_POINT('',(-0.01,-0.075,0.075));
#394=CARTESIAN_POINT('',(-0.01,-0.0732660457793491,0.0796897124390187));
#395=CARTESIAN_POINT('',(-0.01,-0.0732660457793491,0.0796897124390187));
#396=CARTESIAN_POINT('',(-0.01,2.05998412771825E-18,0.0826105045985803));
#397=CARTESIAN_POINT('',(-0.01,-0.00410866054709931,0.0907048912259771));
#398=CARTESIAN_POINT('',(-0.01,0.0353571428571441,0.0799872285870574));
#399=CARTESIAN_POINT('',(-0.01,-0.075,0.075));
#400=CARTESIAN_POINT('',(0.,-0.075,0.075));
#401=CARTESIAN_POINT('',(0.,-0.0732660457793491,0.0796897124390187));
#402=CARTESIAN_POINT('',(0.,-0.0746423619044419,0.0700128069024144));
#403=CARTESIAN_POINT('',(-0.01,-0.0732660457793491,0.0796897124390187));
#404=CARTESIAN_POINT('',(-0.01,-0.0746423619044419,0.0700128069024144));
#405=CARTESIAN_POINT('',(-0.01,-0.0746423619044419,0.0700128069024144));
#406=CARTESIAN_POINT('',(-1.73472347597681E-18,-0.0746423619044419,0.0700128069024144));
#407=CARTESIAN_POINT('',(-0.01,-0.0498438647324216,0.0703609075391157));
#408=CARTESIAN_POINT('',(-1.73472347597681E-18,-0.0498438647324216,0.0703609075391157));
#409=CARTESIAN_POINT('',(-0.01,-0.0301730921449453,0.067313058110977));
#410=CARTESIAN_POINT('',(-1.73472347597681E-18,-0.0301730921449453,0.067313058110977));
#411=CARTESIAN_POINT('',(-0.01,-0.00661067548823278,0.0670981336572808));
#412=CARTESIAN_POINT('',(-1.73472347597681E-18,-0.00661067548823278,0.0670981336572808));
#413=CARTESIAN_POINT('',(0.,-0.0746423619044419,0.0700128069024144));
#414=CARTESIAN_POINT('',(0.,-0.0498438647324216,0.0703609075391157));
#415=CARTESIAN_POINT('',(0.,-0.0301730921449453,0.067313058110977));
#416=CARTESIAN_POINT('',(0.,-0.00661067548823278,0.0670981336572808));
#417=CARTESIAN_POINT('',(0.,-0.00661067548823235,0.0670981336572808));
#418=CARTESIAN_POINT('',(-0.01,-0.00661067548823235,0.0670981336572808));
#419=CARTESIAN_POINT('',(-0.00999999999999533,-0.0039905209512701,0.334740945689532));
#420=CARTESIAN_POINT('',(0.,-0.0039905209512701,0.334740945689532));
#421=CARTESIAN_POINT('',(0.,0.00663048153228709,0.0672972275857565));
#422=CARTESIAN_POINT('',(-0.01,0.00663048153228709,0.0672972275857565));
#423=CARTESIAN_POINT('',(-0.01,0.00663048153228709,0.0672972275857565));
#424=CARTESIAN_POINT('',(-1.73472347597681E-18,0.00663048153228709,0.0672972275857565));
#425=CARTESIAN_POINT('',(-0.01,0.0138925596558617,0.0675891641440828));
#426=CARTESIAN_POINT('',(-1.73472347597681E-18,0.0138925596558617,0.0675891641440828));
#427=CARTESIAN_POINT('',(-0.01,0.0216110297298509,0.0682082926003978));
#428=CARTESIAN_POINT('',(-1.73472347597681E-18,0.0216110297298509,0.0682082926003978));
#429=CARTESIAN_POINT('',(-0.01,0.0300000000097463,0.0693024784671925));
#430=CARTESIAN_POINT('',(-1.73472347597681E-18,0.0300000000097463,0.0693024784671925));
#431=CARTESIAN_POINT('',(0.,0.00663048153228709,0.0672972275857565));
#432=CARTESIAN_POINT('',(0.,0.0138925596558617,0.0675891641440828));
#433=CARTESIAN_POINT('',(0.,0.0216110297298509,0.0682082926003978));
#434=CARTESIAN_POINT('',(0.,0.0300000000097462,0.0693024784671925));
#435=CARTESIAN_POINT('',(0.,0.03,0.0693024784671925));
#436=CARTESIAN_POINT('',(-0.01,0.03,0.0693024784671925));
#437=CARTESIAN_POINT('',(-0.0100000000000277,-0.00692501021336788,0.352236420873333));
#438=CARTESIAN_POINT('',(0.,-0.00692501021336788,0.352236420873333));
#439=CARTESIAN_POINT('',(-0.01,0.035,0.07));
#440=CARTESIAN_POINT('',(-0.01,-0.0732660457793491,0.0796897124390187));
#441=CARTESIAN_POINT('',(0.,-0.0732660457793491,0.0796897124390187));
#442=CARTESIAN_POINT('',(-0.01,0.,0.0826105045985803));
#443=CARTESIAN_POINT('',(0.,0.,0.0826105045985803));
#444=CARTESIAN_POINT('',(-0.01,-0.00410866054709931,0.0907048912259771));
#445=CARTESIAN_POINT('',(0.,-0.00410866054709931,0.0907048912259771));
#446=CARTESIAN_POINT('',(-0.01,0.0353571428571441,0.0799872285870574));
#447=CARTESIAN_POINT('',(0.,0.0353571428571441,0.0799872285870574));
#448=CARTESIAN_POINT('',(0.,-0.0732660457793491,0.0796897124390187));
#449=CARTESIAN_POINT('',(0.,2.05998412771825E-18,0.0826105045985803));
#450=CARTESIAN_POINT('',(0.,-0.00410866054709931,0.0907048912259771));
#451=CARTESIAN_POINT('',(0.,0.0353571428571441,0.0799872285870574));
#452=CARTESIAN_POINT('',(-0.01,0.0353571428571443,0.0799872285870602));
#453=CARTESIAN_POINT('',(-0.01,-0.075,0.075));
#454=CARTESIAN_POINT('',(0.,-0.075,0.075));
#455=CARTESIAN_POINT('',(0.,-0.075,0.0727));
#456=CARTESIAN_POINT('',(-0.01,0.,0.075));
#457=CARTESIAN_POINT('',(0.,0.,0.075));
#458=CARTESIAN_POINT('',(0.,0.,0.0727));
#459=CARTESIAN_POINT('',(0.,-0.02,0.0416024456129893));
#460=CARTESIAN_POINT('',(-0.0066,0.0354017696873868,0.0749874277464244));
#461=CARTESIAN_POINT('',(-0.0066,0.0354017696873868,0.0749874277464244));
#462=CARTESIAN_POINT('',(-0.0066,-0.0136843013959279,0.0872893338418719));
#463=MECHANICAL_DESIGN_GEOMETRIC_PRESENTATION_REPRESENTATION('',(#247),
#464);
#464=(
GEOMETRIC_REPRESENTATION_CONTEXT(3)
GLOBAL_UNCERTAINTY_ASSIGNED_CONTEXT((#465))
GLOBAL_UNIT_ASSIGNED_CONTEXT((#468,#467,#466))
REPRESENTATION_CONTEXT('Main Arm','TOP_LEVEL_ASSEMBLY_PART')
);
#465=UNCERTAINTY_MEASURE_WITH_UNIT(LENGTH_MEASURE(2.1E-5),#468,
'DISTANCE_ACCURACY_VALUE','Maximum Tolerance applied to model');
#466=(
NAMED_UNIT(*)
SI_UNIT($,.STERADIAN.)
SOLID_ANGLE_UNIT()
);
#467=(
NAMED_UNIT(*)
PLANE_ANGLE_UNIT()
SI_UNIT($,.RADIAN.)
);
#468=(
LENGTH_UNIT()
NAMED_UNIT(*)
SI_UNIT($,.METRE.)
);
#469=PRODUCT_DEFINITION_SHAPE('','',#470);
#470=PRODUCT_DEFINITION('','',#472,#471);
#471=PRODUCT_DEFINITION_CONTEXT('',#478,'design');
#472=PRODUCT_DEFINITION_FORMATION_WITH_SPECIFIED_SOURCE('','',#474,
 .NOT_KNOWN.);
#473=PRODUCT_RELATED_PRODUCT_CATEGORY('','',(#474));
#474=PRODUCT('Main Arm','Main Arm','Main Arm',(#476));
#475=PRODUCT_CATEGORY('','');
#476=PRODUCT_CONTEXT('',#478,'mechanical');
#477=APPLICATION_PROTOCOL_DEFINITION('international standard',
'ap242_managed_model_based_3d_engineering',2020,#478);
#478=APPLICATION_CONTEXT('managed model based 3d engineering');
ENDSEC;
END-ISO-10303-21;
