ISO-10303-21;
HEADER;
/* Generated by software containing ST-Developer
 * from STEP Tools, Inc. (www.steptools.com) 
 */
/* OPTION: using custom renumber hook */

FILE_DESCRIPTION(
/* description */ ('STEP AP242 Edition 2',
'CAx-IF Rec.Pracs.---Representation and Presentation of Product Manufa
cturing Information (PMI)---4.0---2014-10-13',
'CAx-IF Rec.Pracs.---3D Tessellated Geometry---0.4---2014-09-14','2;1',
'CAx-IF Rec.Pracs.---User Defined Attributes---1.5---2016-08-15'),
/* implementation_level */ '2;1');

FILE_NAME(
/* name */ 'LimeArm MKI - Part 48',
/* time_stamp */ '2026-05-27T02:34:59Z',
/* author */ (''),
/* organization */ (''),
/* preprocessor_version */ 'ST-DEVELOPER v20',
/* originating_system */ 'ONSHAPE BY PTC INC, 1.215',
/* authorisation */ '  ');

FILE_SCHEMA (('AP242_MANAGED_MODEL_BASED_3D_ENGINEERING_MIM_LF { 1 0 10303 442 3 1 4 }'));
ENDSEC;

DATA;
#10=SHAPE_REPRESENTATION_RELATIONSHIP('','',#619,#11);
#11=ADVANCED_BREP_SHAPE_REPRESENTATION('',(#617),#1065);
#12=CIRCLE('',#625,0.0017);
#13=CIRCLE('',#626,0.0017);
#14=CIRCLE('',#628,0.0017);
#15=CIRCLE('',#629,0.0017);
#16=CIRCLE('',#632,0.0017);
#17=CIRCLE('',#633,0.0017);
#18=CIRCLE('',#635,0.0017);
#19=CIRCLE('',#636,0.0017);
#20=CIRCLE('',#638,0.00169999999999996);
#21=CIRCLE('',#639,0.0017);
#22=CIRCLE('',#641,0.0017);
#23=CIRCLE('',#642,0.0017);
#24=CIRCLE('',#644,0.0017);
#25=CIRCLE('',#645,0.0017);
#26=CIRCLE('',#647,0.0017);
#27=CIRCLE('',#648,0.0017);
#28=CIRCLE('',#650,0.0017);
#29=CIRCLE('',#651,0.0017);
#30=CIRCLE('',#653,0.0017);
#31=CIRCLE('',#654,0.00169999999999996);
#32=CIRCLE('',#656,0.0017);
#33=CIRCLE('',#657,0.0017);
#34=CIRCLE('',#659,0.0017);
#35=CIRCLE('',#660,0.0017);
#36=CIRCLE('',#663,0.003);
#37=CIRCLE('',#664,0.003);
#38=CIRCLE('',#665,0.003);
#39=CIRCLE('',#666,0.003);
#40=CIRCLE('',#667,0.003);
#41=CIRCLE('',#668,0.003);
#42=CIRCLE('',#669,0.003);
#43=CIRCLE('',#670,0.003);
#44=CIRCLE('',#671,0.003);
#45=CIRCLE('',#672,0.003);
#46=CIRCLE('',#673,0.003);
#47=CIRCLE('',#674,0.003);
#48=CIRCLE('',#676,0.003);
#49=CIRCLE('',#679,0.003);
#50=CIRCLE('',#682,0.003);
#51=CIRCLE('',#685,0.003);
#52=CIRCLE('',#688,0.003);
#53=CIRCLE('',#691,0.003);
#54=CIRCLE('',#694,0.003);
#55=CIRCLE('',#697,0.003);
#56=CIRCLE('',#700,0.003);
#57=CIRCLE('',#703,0.003);
#58=CIRCLE('',#706,0.003);
#59=CIRCLE('',#709,0.003);
#60=CYLINDRICAL_SURFACE('',#624,0.0017);
#61=CYLINDRICAL_SURFACE('',#627,0.0017);
#62=CYLINDRICAL_SURFACE('',#631,0.0017);
#63=CYLINDRICAL_SURFACE('',#634,0.0017);
#64=CYLINDRICAL_SURFACE('',#637,0.00169999999999996);
#65=CYLINDRICAL_SURFACE('',#640,0.0017);
#66=CYLINDRICAL_SURFACE('',#643,0.0017);
#67=CYLINDRICAL_SURFACE('',#646,0.0017);
#68=CYLINDRICAL_SURFACE('',#649,0.0017);
#69=CYLINDRICAL_SURFACE('',#652,0.0017);
#70=CYLINDRICAL_SURFACE('',#655,0.0017);
#71=CYLINDRICAL_SURFACE('',#658,0.0017);
#72=CYLINDRICAL_SURFACE('',#675,0.003);
#73=CYLINDRICAL_SURFACE('',#678,0.003);
#74=CYLINDRICAL_SURFACE('',#681,0.003);
#75=CYLINDRICAL_SURFACE('',#684,0.003);
#76=CYLINDRICAL_SURFACE('',#687,0.003);
#77=CYLINDRICAL_SURFACE('',#690,0.003);
#78=CYLINDRICAL_SURFACE('',#693,0.003);
#79=CYLINDRICAL_SURFACE('',#696,0.003);
#80=CYLINDRICAL_SURFACE('',#699,0.003);
#81=CYLINDRICAL_SURFACE('',#702,0.003);
#82=CYLINDRICAL_SURFACE('',#705,0.003);
#83=CYLINDRICAL_SURFACE('',#708,0.003);
#84=ORIENTED_EDGE('',*,*,#204,.F.);
#85=ORIENTED_EDGE('',*,*,#205,.F.);
#86=ORIENTED_EDGE('',*,*,#206,.T.);
#87=ORIENTED_EDGE('',*,*,#207,.T.);
#88=ORIENTED_EDGE('',*,*,#208,.F.);
#89=ORIENTED_EDGE('',*,*,#207,.F.);
#90=ORIENTED_EDGE('',*,*,#209,.T.);
#91=ORIENTED_EDGE('',*,*,#210,.T.);
#92=ORIENTED_EDGE('',*,*,#211,.T.);
#93=ORIENTED_EDGE('',*,*,#210,.F.);
#94=ORIENTED_EDGE('',*,*,#212,.F.);
#95=ORIENTED_EDGE('',*,*,#213,.T.);
#96=ORIENTED_EDGE('',*,*,#214,.F.);
#97=ORIENTED_EDGE('',*,*,#215,.T.);
#98=ORIENTED_EDGE('',*,*,#216,.F.);
#99=ORIENTED_EDGE('',*,*,#217,.T.);
#100=ORIENTED_EDGE('',*,*,#218,.T.);
#101=ORIENTED_EDGE('',*,*,#213,.F.);
#102=ORIENTED_EDGE('',*,*,#219,.F.);
#103=ORIENTED_EDGE('',*,*,#205,.T.);
#104=ORIENTED_EDGE('',*,*,#220,.F.);
#105=ORIENTED_EDGE('',*,*,#221,.T.);
#106=ORIENTED_EDGE('',*,*,#222,.F.);
#107=ORIENTED_EDGE('',*,*,#223,.T.);
#108=ORIENTED_EDGE('',*,*,#224,.F.);
#109=ORIENTED_EDGE('',*,*,#225,.T.);
#110=ORIENTED_EDGE('',*,*,#226,.F.);
#111=ORIENTED_EDGE('',*,*,#227,.T.);
#112=ORIENTED_EDGE('',*,*,#228,.F.);
#113=ORIENTED_EDGE('',*,*,#229,.T.);
#114=ORIENTED_EDGE('',*,*,#230,.F.);
#115=ORIENTED_EDGE('',*,*,#231,.T.);
#116=ORIENTED_EDGE('',*,*,#232,.F.);
#117=ORIENTED_EDGE('',*,*,#233,.T.);
#118=ORIENTED_EDGE('',*,*,#234,.F.);
#119=ORIENTED_EDGE('',*,*,#235,.T.);
#120=ORIENTED_EDGE('',*,*,#236,.F.);
#121=ORIENTED_EDGE('',*,*,#237,.T.);
#122=ORIENTED_EDGE('',*,*,#238,.F.);
#123=ORIENTED_EDGE('',*,*,#239,.T.);
#124=ORIENTED_EDGE('',*,*,#236,.T.);
#125=ORIENTED_EDGE('',*,*,#234,.T.);
#126=ORIENTED_EDGE('',*,*,#232,.T.);
#127=ORIENTED_EDGE('',*,*,#230,.T.);
#128=ORIENTED_EDGE('',*,*,#228,.T.);
#129=ORIENTED_EDGE('',*,*,#226,.T.);
#130=ORIENTED_EDGE('',*,*,#224,.T.);
#131=ORIENTED_EDGE('',*,*,#222,.T.);
#132=ORIENTED_EDGE('',*,*,#220,.T.);
#133=ORIENTED_EDGE('',*,*,#206,.F.);
#134=ORIENTED_EDGE('',*,*,#219,.T.);
#135=ORIENTED_EDGE('',*,*,#212,.T.);
#136=ORIENTED_EDGE('',*,*,#209,.F.);
#137=ORIENTED_EDGE('',*,*,#216,.T.);
#138=ORIENTED_EDGE('',*,*,#214,.T.);
#139=ORIENTED_EDGE('',*,*,#238,.T.);
#140=ORIENTED_EDGE('',*,*,#240,.F.);
#141=ORIENTED_EDGE('',*,*,#241,.F.);
#142=ORIENTED_EDGE('',*,*,#242,.F.);
#143=ORIENTED_EDGE('',*,*,#243,.F.);
#144=ORIENTED_EDGE('',*,*,#244,.F.);
#145=ORIENTED_EDGE('',*,*,#245,.F.);
#146=ORIENTED_EDGE('',*,*,#246,.F.);
#147=ORIENTED_EDGE('',*,*,#247,.F.);
#148=ORIENTED_EDGE('',*,*,#248,.F.);
#149=ORIENTED_EDGE('',*,*,#249,.F.);
#150=ORIENTED_EDGE('',*,*,#250,.F.);
#151=ORIENTED_EDGE('',*,*,#251,.F.);
#152=ORIENTED_EDGE('',*,*,#204,.T.);
#153=ORIENTED_EDGE('',*,*,#208,.T.);
#154=ORIENTED_EDGE('',*,*,#211,.F.);
#155=ORIENTED_EDGE('',*,*,#218,.F.);
#156=ORIENTED_EDGE('',*,*,#252,.F.);
#157=ORIENTED_EDGE('',*,*,#251,.T.);
#158=ORIENTED_EDGE('',*,*,#252,.T.);
#159=ORIENTED_EDGE('',*,*,#233,.F.);
#160=ORIENTED_EDGE('',*,*,#253,.F.);
#161=ORIENTED_EDGE('',*,*,#250,.T.);
#162=ORIENTED_EDGE('',*,*,#253,.T.);
#163=ORIENTED_EDGE('',*,*,#235,.F.);
#164=ORIENTED_EDGE('',*,*,#254,.F.);
#165=ORIENTED_EDGE('',*,*,#249,.T.);
#166=ORIENTED_EDGE('',*,*,#239,.F.);
#167=ORIENTED_EDGE('',*,*,#254,.T.);
#168=ORIENTED_EDGE('',*,*,#255,.F.);
#169=ORIENTED_EDGE('',*,*,#248,.T.);
#170=ORIENTED_EDGE('',*,*,#255,.T.);
#171=ORIENTED_EDGE('',*,*,#217,.F.);
#172=ORIENTED_EDGE('',*,*,#256,.F.);
#173=ORIENTED_EDGE('',*,*,#247,.T.);
#174=ORIENTED_EDGE('',*,*,#256,.T.);
#175=ORIENTED_EDGE('',*,*,#229,.F.);
#176=ORIENTED_EDGE('',*,*,#257,.F.);
#177=ORIENTED_EDGE('',*,*,#246,.T.);
#178=ORIENTED_EDGE('',*,*,#257,.T.);
#179=ORIENTED_EDGE('',*,*,#225,.F.);
#180=ORIENTED_EDGE('',*,*,#258,.F.);
#181=ORIENTED_EDGE('',*,*,#245,.T.);
#182=ORIENTED_EDGE('',*,*,#231,.F.);
#183=ORIENTED_EDGE('',*,*,#258,.T.);
#184=ORIENTED_EDGE('',*,*,#259,.F.);
#185=ORIENTED_EDGE('',*,*,#244,.T.);
#186=ORIENTED_EDGE('',*,*,#259,.T.);
#187=ORIENTED_EDGE('',*,*,#223,.F.);
#188=ORIENTED_EDGE('',*,*,#260,.F.);
#189=ORIENTED_EDGE('',*,*,#243,.T.);
#190=ORIENTED_EDGE('',*,*,#260,.T.);
#191=ORIENTED_EDGE('',*,*,#221,.F.);
#192=ORIENTED_EDGE('',*,*,#261,.F.);
#193=ORIENTED_EDGE('',*,*,#242,.T.);
#194=ORIENTED_EDGE('',*,*,#215,.F.);
#195=ORIENTED_EDGE('',*,*,#261,.T.);
#196=ORIENTED_EDGE('',*,*,#262,.F.);
#197=ORIENTED_EDGE('',*,*,#241,.T.);
#198=ORIENTED_EDGE('',*,*,#237,.F.);
#199=ORIENTED_EDGE('',*,*,#262,.T.);
#200=ORIENTED_EDGE('',*,*,#263,.F.);
#201=ORIENTED_EDGE('',*,*,#240,.T.);
#202=ORIENTED_EDGE('',*,*,#227,.F.);
#203=ORIENTED_EDGE('',*,*,#263,.T.);
#204=EDGE_CURVE('',#264,#265,#320,.T.);
#205=EDGE_CURVE('',#266,#264,#321,.T.);
#206=EDGE_CURVE('',#266,#267,#322,.T.);
#207=EDGE_CURVE('',#267,#265,#323,.T.);
#208=EDGE_CURVE('',#265,#268,#324,.T.);
#209=EDGE_CURVE('',#267,#269,#325,.T.);
#210=EDGE_CURVE('',#269,#268,#326,.T.);
#211=EDGE_CURVE('',#270,#268,#327,.T.);
#212=EDGE_CURVE('',#271,#269,#328,.T.);
#213=EDGE_CURVE('',#271,#270,#329,.T.);
#214=EDGE_CURVE('',#272,#272,#12,.T.);
#215=EDGE_CURVE('',#273,#273,#13,.T.);
#216=EDGE_CURVE('',#274,#274,#14,.T.);
#217=EDGE_CURVE('',#275,#275,#15,.T.);
#218=EDGE_CURVE('',#264,#270,#330,.T.);
#219=EDGE_CURVE('',#266,#271,#331,.T.);
#220=EDGE_CURVE('',#276,#276,#16,.T.);
#221=EDGE_CURVE('',#277,#277,#17,.T.);
#222=EDGE_CURVE('',#278,#278,#18,.T.);
#223=EDGE_CURVE('',#279,#279,#19,.T.);
#224=EDGE_CURVE('',#280,#280,#20,.T.);
#225=EDGE_CURVE('',#281,#281,#21,.T.);
#226=EDGE_CURVE('',#282,#282,#22,.T.);
#227=EDGE_CURVE('',#283,#283,#23,.T.);
#228=EDGE_CURVE('',#284,#284,#24,.T.);
#229=EDGE_CURVE('',#285,#285,#25,.T.);
#230=EDGE_CURVE('',#286,#286,#26,.T.);
#231=EDGE_CURVE('',#287,#287,#27,.T.);
#232=EDGE_CURVE('',#288,#288,#28,.T.);
#233=EDGE_CURVE('',#289,#289,#29,.T.);
#234=EDGE_CURVE('',#290,#290,#30,.T.);
#235=EDGE_CURVE('',#291,#291,#31,.T.);
#236=EDGE_CURVE('',#292,#292,#32,.T.);
#237=EDGE_CURVE('',#293,#293,#33,.T.);
#238=EDGE_CURVE('',#294,#294,#34,.T.);
#239=EDGE_CURVE('',#295,#295,#35,.T.);
#240=EDGE_CURVE('',#296,#296,#36,.T.);
#241=EDGE_CURVE('',#297,#297,#37,.T.);
#242=EDGE_CURVE('',#298,#298,#38,.T.);
#243=EDGE_CURVE('',#299,#299,#39,.T.);
#244=EDGE_CURVE('',#300,#300,#40,.T.);
#245=EDGE_CURVE('',#301,#301,#41,.T.);
#246=EDGE_CURVE('',#302,#302,#42,.T.);
#247=EDGE_CURVE('',#303,#303,#43,.T.);
#248=EDGE_CURVE('',#304,#304,#44,.T.);
#249=EDGE_CURVE('',#305,#305,#45,.T.);
#250=EDGE_CURVE('',#306,#306,#46,.T.);
#251=EDGE_CURVE('',#307,#307,#47,.T.);
#252=EDGE_CURVE('',#308,#308,#48,.T.);
#253=EDGE_CURVE('',#309,#309,#49,.T.);
#254=EDGE_CURVE('',#310,#310,#50,.T.);
#255=EDGE_CURVE('',#311,#311,#51,.T.);
#256=EDGE_CURVE('',#312,#312,#52,.T.);
#257=EDGE_CURVE('',#313,#313,#53,.T.);
#258=EDGE_CURVE('',#314,#314,#54,.T.);
#259=EDGE_CURVE('',#315,#315,#55,.T.);
#260=EDGE_CURVE('',#316,#316,#56,.T.);
#261=EDGE_CURVE('',#317,#317,#57,.T.);
#262=EDGE_CURVE('',#318,#318,#58,.T.);
#263=EDGE_CURVE('',#319,#319,#59,.T.);
#264=VERTEX_POINT('',#908);
#265=VERTEX_POINT('',#909);
#266=VERTEX_POINT('',#911);
#267=VERTEX_POINT('',#913);
#268=VERTEX_POINT('',#917);
#269=VERTEX_POINT('',#919);
#270=VERTEX_POINT('',#923);
#271=VERTEX_POINT('',#925);
#272=VERTEX_POINT('',#929);
#273=VERTEX_POINT('',#931);
#274=VERTEX_POINT('',#934);
#275=VERTEX_POINT('',#936);
#276=VERTEX_POINT('',#942);
#277=VERTEX_POINT('',#944);
#278=VERTEX_POINT('',#947);
#279=VERTEX_POINT('',#949);
#280=VERTEX_POINT('',#952);
#281=VERTEX_POINT('',#954);
#282=VERTEX_POINT('',#957);
#283=VERTEX_POINT('',#959);
#284=VERTEX_POINT('',#962);
#285=VERTEX_POINT('',#964);
#286=VERTEX_POINT('',#967);
#287=VERTEX_POINT('',#969);
#288=VERTEX_POINT('',#972);
#289=VERTEX_POINT('',#974);
#290=VERTEX_POINT('',#977);
#291=VERTEX_POINT('',#979);
#292=VERTEX_POINT('',#982);
#293=VERTEX_POINT('',#984);
#294=VERTEX_POINT('',#987);
#295=VERTEX_POINT('',#989);
#296=VERTEX_POINT('',#993);
#297=VERTEX_POINT('',#995);
#298=VERTEX_POINT('',#997);
#299=VERTEX_POINT('',#999);
#300=VERTEX_POINT('',#1001);
#301=VERTEX_POINT('',#1003);
#302=VERTEX_POINT('',#1005);
#303=VERTEX_POINT('',#1007);
#304=VERTEX_POINT('',#1009);
#305=VERTEX_POINT('',#1011);
#306=VERTEX_POINT('',#1013);
#307=VERTEX_POINT('',#1015);
#308=VERTEX_POINT('',#1018);
#309=VERTEX_POINT('',#1022);
#310=VERTEX_POINT('',#1026);
#311=VERTEX_POINT('',#1030);
#312=VERTEX_POINT('',#1034);
#313=VERTEX_POINT('',#1038);
#314=VERTEX_POINT('',#1042);
#315=VERTEX_POINT('',#1046);
#316=VERTEX_POINT('',#1050);
#317=VERTEX_POINT('',#1054);
#318=VERTEX_POINT('',#1058);
#319=VERTEX_POINT('',#1062);
#320=LINE('',#907,#332);
#321=LINE('',#910,#333);
#322=LINE('',#912,#334);
#323=LINE('',#914,#335);
#324=LINE('',#916,#336);
#325=LINE('',#918,#337);
#326=LINE('',#920,#338);
#327=LINE('',#922,#339);
#328=LINE('',#924,#340);
#329=LINE('',#926,#341);
#330=LINE('',#938,#342);
#331=LINE('',#939,#343);
#332=VECTOR('',#715,1.);
#333=VECTOR('',#716,1.);
#334=VECTOR('',#717,1.);
#335=VECTOR('',#718,1.);
#336=VECTOR('',#721,1.);
#337=VECTOR('',#722,1.);
#338=VECTOR('',#723,1.);
#339=VECTOR('',#726,1.);
#340=VECTOR('',#727,1.);
#341=VECTOR('',#728,1.);
#342=VECTOR('',#743,1.);
#343=VECTOR('',#744,1.);
#344=EDGE_LOOP('',(#84,#85,#86,#87));
#345=EDGE_LOOP('',(#88,#89,#90,#91));
#346=EDGE_LOOP('',(#92,#93,#94,#95));
#347=EDGE_LOOP('',(#96));
#348=EDGE_LOOP('',(#97));
#349=EDGE_LOOP('',(#98));
#350=EDGE_LOOP('',(#99));
#351=EDGE_LOOP('',(#100,#101,#102,#103));
#352=EDGE_LOOP('',(#104));
#353=EDGE_LOOP('',(#105));
#354=EDGE_LOOP('',(#106));
#355=EDGE_LOOP('',(#107));
#356=EDGE_LOOP('',(#108));
#357=EDGE_LOOP('',(#109));
#358=EDGE_LOOP('',(#110));
#359=EDGE_LOOP('',(#111));
#360=EDGE_LOOP('',(#112));
#361=EDGE_LOOP('',(#113));
#362=EDGE_LOOP('',(#114));
#363=EDGE_LOOP('',(#115));
#364=EDGE_LOOP('',(#116));
#365=EDGE_LOOP('',(#117));
#366=EDGE_LOOP('',(#118));
#367=EDGE_LOOP('',(#119));
#368=EDGE_LOOP('',(#120));
#369=EDGE_LOOP('',(#121));
#370=EDGE_LOOP('',(#122));
#371=EDGE_LOOP('',(#123));
#372=EDGE_LOOP('',(#124));
#373=EDGE_LOOP('',(#125));
#374=EDGE_LOOP('',(#126));
#375=EDGE_LOOP('',(#127));
#376=EDGE_LOOP('',(#128));
#377=EDGE_LOOP('',(#129));
#378=EDGE_LOOP('',(#130));
#379=EDGE_LOOP('',(#131));
#380=EDGE_LOOP('',(#132));
#381=EDGE_LOOP('',(#133,#134,#135,#136));
#382=EDGE_LOOP('',(#137));
#383=EDGE_LOOP('',(#138));
#384=EDGE_LOOP('',(#139));
#385=EDGE_LOOP('',(#140));
#386=EDGE_LOOP('',(#141));
#387=EDGE_LOOP('',(#142));
#388=EDGE_LOOP('',(#143));
#389=EDGE_LOOP('',(#144));
#390=EDGE_LOOP('',(#145));
#391=EDGE_LOOP('',(#146));
#392=EDGE_LOOP('',(#147));
#393=EDGE_LOOP('',(#148));
#394=EDGE_LOOP('',(#149));
#395=EDGE_LOOP('',(#150));
#396=EDGE_LOOP('',(#151));
#397=EDGE_LOOP('',(#152,#153,#154,#155));
#398=EDGE_LOOP('',(#156));
#399=EDGE_LOOP('',(#157));
#400=EDGE_LOOP('',(#158));
#401=EDGE_LOOP('',(#159));
#402=EDGE_LOOP('',(#160));
#403=EDGE_LOOP('',(#161));
#404=EDGE_LOOP('',(#162));
#405=EDGE_LOOP('',(#163));
#406=EDGE_LOOP('',(#164));
#407=EDGE_LOOP('',(#165));
#408=EDGE_LOOP('',(#166));
#409=EDGE_LOOP('',(#167));
#410=EDGE_LOOP('',(#168));
#411=EDGE_LOOP('',(#169));
#412=EDGE_LOOP('',(#170));
#413=EDGE_LOOP('',(#171));
#414=EDGE_LOOP('',(#172));
#415=EDGE_LOOP('',(#173));
#416=EDGE_LOOP('',(#174));
#417=EDGE_LOOP('',(#175));
#418=EDGE_LOOP('',(#176));
#419=EDGE_LOOP('',(#177));
#420=EDGE_LOOP('',(#178));
#421=EDGE_LOOP('',(#179));
#422=EDGE_LOOP('',(#180));
#423=EDGE_LOOP('',(#181));
#424=EDGE_LOOP('',(#182));
#425=EDGE_LOOP('',(#183));
#426=EDGE_LOOP('',(#184));
#427=EDGE_LOOP('',(#185));
#428=EDGE_LOOP('',(#186));
#429=EDGE_LOOP('',(#187));
#430=EDGE_LOOP('',(#188));
#431=EDGE_LOOP('',(#189));
#432=EDGE_LOOP('',(#190));
#433=EDGE_LOOP('',(#191));
#434=EDGE_LOOP('',(#192));
#435=EDGE_LOOP('',(#193));
#436=EDGE_LOOP('',(#194));
#437=EDGE_LOOP('',(#195));
#438=EDGE_LOOP('',(#196));
#439=EDGE_LOOP('',(#197));
#440=EDGE_LOOP('',(#198));
#441=EDGE_LOOP('',(#199));
#442=EDGE_LOOP('',(#200));
#443=EDGE_LOOP('',(#201));
#444=EDGE_LOOP('',(#202));
#445=EDGE_LOOP('',(#203));
#446=FACE_BOUND('',#344,.T.);
#447=FACE_BOUND('',#345,.T.);
#448=FACE_BOUND('',#346,.T.);
#449=FACE_BOUND('',#347,.T.);
#450=FACE_BOUND('',#348,.T.);
#451=FACE_BOUND('',#349,.T.);
#452=FACE_BOUND('',#350,.T.);
#453=FACE_BOUND('',#351,.T.);
#454=FACE_BOUND('',#352,.T.);
#455=FACE_BOUND('',#353,.T.);
#456=FACE_BOUND('',#354,.T.);
#457=FACE_BOUND('',#355,.T.);
#458=FACE_BOUND('',#356,.T.);
#459=FACE_BOUND('',#357,.T.);
#460=FACE_BOUND('',#358,.T.);
#461=FACE_BOUND('',#359,.T.);
#462=FACE_BOUND('',#360,.T.);
#463=FACE_BOUND('',#361,.T.);
#464=FACE_BOUND('',#362,.T.);
#465=FACE_BOUND('',#363,.T.);
#466=FACE_BOUND('',#364,.T.);
#467=FACE_BOUND('',#365,.T.);
#468=FACE_BOUND('',#366,.T.);
#469=FACE_BOUND('',#367,.T.);
#470=FACE_BOUND('',#368,.T.);
#471=FACE_BOUND('',#369,.T.);
#472=FACE_BOUND('',#370,.T.);
#473=FACE_BOUND('',#371,.T.);
#474=FACE_BOUND('',#372,.T.);
#475=FACE_BOUND('',#373,.T.);
#476=FACE_BOUND('',#374,.T.);
#477=FACE_BOUND('',#375,.T.);
#478=FACE_BOUND('',#376,.T.);
#479=FACE_BOUND('',#377,.T.);
#480=FACE_BOUND('',#378,.T.);
#481=FACE_BOUND('',#379,.T.);
#482=FACE_BOUND('',#380,.T.);
#483=FACE_BOUND('',#381,.T.);
#484=FACE_BOUND('',#382,.T.);
#485=FACE_BOUND('',#383,.T.);
#486=FACE_BOUND('',#384,.T.);
#487=FACE_BOUND('',#385,.T.);
#488=FACE_BOUND('',#386,.T.);
#489=FACE_BOUND('',#387,.T.);
#490=FACE_BOUND('',#388,.T.);
#491=FACE_BOUND('',#389,.T.);
#492=FACE_BOUND('',#390,.T.);
#493=FACE_BOUND('',#391,.T.);
#494=FACE_BOUND('',#392,.T.);
#495=FACE_BOUND('',#393,.T.);
#496=FACE_BOUND('',#394,.T.);
#497=FACE_BOUND('',#395,.T.);
#498=FACE_BOUND('',#396,.T.);
#499=FACE_BOUND('',#397,.T.);
#500=FACE_BOUND('',#398,.T.);
#501=FACE_BOUND('',#399,.T.);
#502=FACE_BOUND('',#400,.T.);
#503=FACE_BOUND('',#401,.T.);
#504=FACE_BOUND('',#402,.T.);
#505=FACE_BOUND('',#403,.T.);
#506=FACE_BOUND('',#404,.T.);
#507=FACE_BOUND('',#405,.T.);
#508=FACE_BOUND('',#406,.T.);
#509=FACE_BOUND('',#407,.T.);
#510=FACE_BOUND('',#408,.T.);
#511=FACE_BOUND('',#409,.T.);
#512=FACE_BOUND('',#410,.T.);
#513=FACE_BOUND('',#411,.T.);
#514=FACE_BOUND('',#412,.T.);
#515=FACE_BOUND('',#413,.T.);
#516=FACE_BOUND('',#414,.T.);
#517=FACE_BOUND('',#415,.T.);
#518=FACE_BOUND('',#416,.T.);
#519=FACE_BOUND('',#417,.T.);
#520=FACE_BOUND('',#418,.T.);
#521=FACE_BOUND('',#419,.T.);
#522=FACE_BOUND('',#420,.T.);
#523=FACE_BOUND('',#421,.T.);
#524=FACE_BOUND('',#422,.T.);
#525=FACE_BOUND('',#423,.T.);
#526=FACE_BOUND('',#424,.T.);
#527=FACE_BOUND('',#425,.T.);
#528=FACE_BOUND('',#426,.T.);
#529=FACE_BOUND('',#427,.T.);
#530=FACE_BOUND('',#428,.T.);
#531=FACE_BOUND('',#429,.T.);
#532=FACE_BOUND('',#430,.T.);
#533=FACE_BOUND('',#431,.T.);
#534=FACE_BOUND('',#432,.T.);
#535=FACE_BOUND('',#433,.T.);
#536=FACE_BOUND('',#434,.T.);
#537=FACE_BOUND('',#435,.T.);
#538=FACE_BOUND('',#436,.T.);
#539=FACE_BOUND('',#437,.T.);
#540=FACE_BOUND('',#438,.T.);
#541=FACE_BOUND('',#439,.T.);
#542=FACE_BOUND('',#440,.T.);
#543=FACE_BOUND('',#441,.T.);
#544=FACE_BOUND('',#442,.T.);
#545=FACE_BOUND('',#443,.T.);
#546=FACE_BOUND('',#444,.T.);
#547=FACE_BOUND('',#445,.T.);
#548=PLANE('',#621);
#549=PLANE('',#622);
#550=PLANE('',#623);
#551=PLANE('',#630);
#552=PLANE('',#661);
#553=PLANE('',#662);
#554=PLANE('',#677);
#555=PLANE('',#680);
#556=PLANE('',#683);
#557=PLANE('',#686);
#558=PLANE('',#689);
#559=PLANE('',#692);
#560=PLANE('',#695);
#561=PLANE('',#698);
#562=PLANE('',#701);
#563=PLANE('',#704);
#564=PLANE('',#707);
#565=PLANE('',#710);
#566=ADVANCED_FACE('',(#446),#548,.T.);
#567=ADVANCED_FACE('',(#447),#549,.T.);
#568=ADVANCED_FACE('',(#448),#550,.F.);
#569=ADVANCED_FACE('',(#449,#450),#60,.F.);
#570=ADVANCED_FACE('',(#451,#452),#61,.F.);
#571=ADVANCED_FACE('',(#453),#551,.F.);
#572=ADVANCED_FACE('',(#454,#455),#62,.F.);
#573=ADVANCED_FACE('',(#456,#457),#63,.F.);
#574=ADVANCED_FACE('',(#458,#459),#64,.F.);
#575=ADVANCED_FACE('',(#460,#461),#65,.F.);
#576=ADVANCED_FACE('',(#462,#463),#66,.F.);
#577=ADVANCED_FACE('',(#464,#465),#67,.F.);
#578=ADVANCED_FACE('',(#466,#467),#68,.F.);
#579=ADVANCED_FACE('',(#468,#469),#69,.F.);
#580=ADVANCED_FACE('',(#470,#471),#70,.F.);
#581=ADVANCED_FACE('',(#472,#473),#71,.F.);
#582=ADVANCED_FACE('',(#474,#475,#476,#477,#478,#479,#480,#481,#482,#483,
#484,#485,#486),#552,.F.);
#583=ADVANCED_FACE('',(#487,#488,#489,#490,#491,#492,#493,#494,#495,#496,
#497,#498,#499),#553,.T.);
#584=ADVANCED_FACE('',(#500,#501),#72,.T.);
#585=ADVANCED_FACE('',(#502,#503),#554,.T.);
#586=ADVANCED_FACE('',(#504,#505),#73,.T.);
#587=ADVANCED_FACE('',(#506,#507),#555,.T.);
#588=ADVANCED_FACE('',(#508,#509),#74,.T.);
#589=ADVANCED_FACE('',(#510,#511),#556,.T.);
#590=ADVANCED_FACE('',(#512,#513),#75,.T.);
#591=ADVANCED_FACE('',(#514,#515),#557,.T.);
#592=ADVANCED_FACE('',(#516,#517),#76,.T.);
#593=ADVANCED_FACE('',(#518,#519),#558,.T.);
#594=ADVANCED_FACE('',(#520,#521),#77,.T.);
#595=ADVANCED_FACE('',(#522,#523),#559,.T.);
#596=ADVANCED_FACE('',(#524,#525),#78,.T.);
#597=ADVANCED_FACE('',(#526,#527),#560,.T.);
#598=ADVANCED_FACE('',(#528,#529),#79,.T.);
#599=ADVANCED_FACE('',(#530,#531),#561,.T.);
#600=ADVANCED_FACE('',(#532,#533),#80,.T.);
#601=ADVANCED_FACE('',(#534,#535),#562,.T.);
#602=ADVANCED_FACE('',(#536,#537),#81,.T.);
#603=ADVANCED_FACE('',(#538,#539),#563,.T.);
#604=ADVANCED_FACE('',(#540,#541),#82,.T.);
#605=ADVANCED_FACE('',(#542,#543),#564,.T.);
#606=ADVANCED_FACE('',(#544,#545),#83,.T.);
#607=ADVANCED_FACE('',(#546,#547),#565,.T.);
#608=CLOSED_SHELL('',(#566,#567,#568,#569,#570,#571,#572,#573,#574,#575,
#576,#577,#578,#579,#580,#581,#582,#583,#584,#585,#586,#587,#588,#589,#590,
#591,#592,#593,#594,#595,#596,#597,#598,#599,#600,#601,#602,#603,#604,#605,
#606,#607));
#609=STYLED_ITEM('',(#610),#617);
#610=PRESENTATION_STYLE_ASSIGNMENT((#611));
#611=SURFACE_STYLE_USAGE(.BOTH.,#612);
#612=SURFACE_SIDE_STYLE('',(#613));
#613=SURFACE_STYLE_FILL_AREA(#614);
#614=FILL_AREA_STYLE('',(#615));
#615=FILL_AREA_STYLE_COLOUR('',#616);
#616=COLOUR_RGB('',0.615686274509804,0.811764705882353,0.929411764705882);
#617=MANIFOLD_SOLID_BREP('Part 48',#608);
#618=SHAPE_DEFINITION_REPRESENTATION(#1070,#619);
#619=SHAPE_REPRESENTATION('Part 48',(#620),#1065);
#620=AXIS2_PLACEMENT_3D('',#905,#711,#712);
#621=AXIS2_PLACEMENT_3D('',#906,#713,#714);
#622=AXIS2_PLACEMENT_3D('',#915,#719,#720);
#623=AXIS2_PLACEMENT_3D('',#921,#724,#725);
#624=AXIS2_PLACEMENT_3D('',#927,#729,#730);
#625=AXIS2_PLACEMENT_3D('',#928,#731,#732);
#626=AXIS2_PLACEMENT_3D('',#930,#733,#734);
#627=AXIS2_PLACEMENT_3D('',#932,#735,#736);
#628=AXIS2_PLACEMENT_3D('',#933,#737,#738);
#629=AXIS2_PLACEMENT_3D('',#935,#739,#740);
#630=AXIS2_PLACEMENT_3D('',#937,#741,#742);
#631=AXIS2_PLACEMENT_3D('',#940,#745,#746);
#632=AXIS2_PLACEMENT_3D('',#941,#747,#748);
#633=AXIS2_PLACEMENT_3D('',#943,#749,#750);
#634=AXIS2_PLACEMENT_3D('',#945,#751,#752);
#635=AXIS2_PLACEMENT_3D('',#946,#753,#754);
#636=AXIS2_PLACEMENT_3D('',#948,#755,#756);
#637=AXIS2_PLACEMENT_3D('',#950,#757,#758);
#638=AXIS2_PLACEMENT_3D('',#951,#759,#760);
#639=AXIS2_PLACEMENT_3D('',#953,#761,#762);
#640=AXIS2_PLACEMENT_3D('',#955,#763,#764);
#641=AXIS2_PLACEMENT_3D('',#956,#765,#766);
#642=AXIS2_PLACEMENT_3D('',#958,#767,#768);
#643=AXIS2_PLACEMENT_3D('',#960,#769,#770);
#644=AXIS2_PLACEMENT_3D('',#961,#771,#772);
#645=AXIS2_PLACEMENT_3D('',#963,#773,#774);
#646=AXIS2_PLACEMENT_3D('',#965,#775,#776);
#647=AXIS2_PLACEMENT_3D('',#966,#777,#778);
#648=AXIS2_PLACEMENT_3D('',#968,#779,#780);
#649=AXIS2_PLACEMENT_3D('',#970,#781,#782);
#650=AXIS2_PLACEMENT_3D('',#971,#783,#784);
#651=AXIS2_PLACEMENT_3D('',#973,#785,#786);
#652=AXIS2_PLACEMENT_3D('',#975,#787,#788);
#653=AXIS2_PLACEMENT_3D('',#976,#789,#790);
#654=AXIS2_PLACEMENT_3D('',#978,#791,#792);
#655=AXIS2_PLACEMENT_3D('',#980,#793,#794);
#656=AXIS2_PLACEMENT_3D('',#981,#795,#796);
#657=AXIS2_PLACEMENT_3D('',#983,#797,#798);
#658=AXIS2_PLACEMENT_3D('',#985,#799,#800);
#659=AXIS2_PLACEMENT_3D('',#986,#801,#802);
#660=AXIS2_PLACEMENT_3D('',#988,#803,#804);
#661=AXIS2_PLACEMENT_3D('',#990,#805,#806);
#662=AXIS2_PLACEMENT_3D('',#991,#807,#808);
#663=AXIS2_PLACEMENT_3D('',#992,#809,#810);
#664=AXIS2_PLACEMENT_3D('',#994,#811,#812);
#665=AXIS2_PLACEMENT_3D('',#996,#813,#814);
#666=AXIS2_PLACEMENT_3D('',#998,#815,#816);
#667=AXIS2_PLACEMENT_3D('',#1000,#817,#818);
#668=AXIS2_PLACEMENT_3D('',#1002,#819,#820);
#669=AXIS2_PLACEMENT_3D('',#1004,#821,#822);
#670=AXIS2_PLACEMENT_3D('',#1006,#823,#824);
#671=AXIS2_PLACEMENT_3D('',#1008,#825,#826);
#672=AXIS2_PLACEMENT_3D('',#1010,#827,#828);
#673=AXIS2_PLACEMENT_3D('',#1012,#829,#830);
#674=AXIS2_PLACEMENT_3D('',#1014,#831,#832);
#675=AXIS2_PLACEMENT_3D('',#1016,#833,#834);
#676=AXIS2_PLACEMENT_3D('',#1017,#835,#836);
#677=AXIS2_PLACEMENT_3D('',#1019,#837,#838);
#678=AXIS2_PLACEMENT_3D('',#1020,#839,#840);
#679=AXIS2_PLACEMENT_3D('',#1021,#841,#842);
#680=AXIS2_PLACEMENT_3D('',#1023,#843,#844);
#681=AXIS2_PLACEMENT_3D('',#1024,#845,#846);
#682=AXIS2_PLACEMENT_3D('',#1025,#847,#848);
#683=AXIS2_PLACEMENT_3D('',#1027,#849,#850);
#684=AXIS2_PLACEMENT_3D('',#1028,#851,#852);
#685=AXIS2_PLACEMENT_3D('',#1029,#853,#854);
#686=AXIS2_PLACEMENT_3D('',#1031,#855,#856);
#687=AXIS2_PLACEMENT_3D('',#1032,#857,#858);
#688=AXIS2_PLACEMENT_3D('',#1033,#859,#860);
#689=AXIS2_PLACEMENT_3D('',#1035,#861,#862);
#690=AXIS2_PLACEMENT_3D('',#1036,#863,#864);
#691=AXIS2_PLACEMENT_3D('',#1037,#865,#866);
#692=AXIS2_PLACEMENT_3D('',#1039,#867,#868);
#693=AXIS2_PLACEMENT_3D('',#1040,#869,#870);
#694=AXIS2_PLACEMENT_3D('',#1041,#871,#872);
#695=AXIS2_PLACEMENT_3D('',#1043,#873,#874);
#696=AXIS2_PLACEMENT_3D('',#1044,#875,#876);
#697=AXIS2_PLACEMENT_3D('',#1045,#877,#878);
#698=AXIS2_PLACEMENT_3D('',#1047,#879,#880);
#699=AXIS2_PLACEMENT_3D('',#1048,#881,#882);
#700=AXIS2_PLACEMENT_3D('',#1049,#883,#884);
#701=AXIS2_PLACEMENT_3D('',#1051,#885,#886);
#702=AXIS2_PLACEMENT_3D('',#1052,#887,#888);
#703=AXIS2_PLACEMENT_3D('',#1053,#889,#890);
#704=AXIS2_PLACEMENT_3D('',#1055,#891,#892);
#705=AXIS2_PLACEMENT_3D('',#1056,#893,#894);
#706=AXIS2_PLACEMENT_3D('',#1057,#895,#896);
#707=AXIS2_PLACEMENT_3D('',#1059,#897,#898);
#708=AXIS2_PLACEMENT_3D('',#1060,#899,#900);
#709=AXIS2_PLACEMENT_3D('',#1061,#901,#902);
#710=AXIS2_PLACEMENT_3D('',#1063,#903,#904);
#711=DIRECTION('',(0.,0.,1.));
#712=DIRECTION('',(1.,0.,0.));
#713=DIRECTION('',(-1.,0.,0.));
#714=DIRECTION('',(0.,0.,1.));
#715=DIRECTION('',(0.,-1.,0.));
#716=DIRECTION('',(0.,0.,1.));
#717=DIRECTION('',(0.,-1.,0.));
#718=DIRECTION('',(0.,0.,1.));
#719=DIRECTION('',(0.,-1.,0.));
#720=DIRECTION('',(0.,0.,-1.));
#721=DIRECTION('',(1.,0.,0.));
#722=DIRECTION('',(1.,0.,0.));
#723=DIRECTION('',(0.,0.,1.));
#724=DIRECTION('',(-1.,0.,0.));
#725=DIRECTION('',(0.,0.,1.));
#726=DIRECTION('',(0.,-1.,0.));
#727=DIRECTION('',(0.,-1.,0.));
#728=DIRECTION('',(0.,0.,1.));
#729=DIRECTION('',(0.,0.,1.));
#730=DIRECTION('',(1.,0.,0.));
#731=DIRECTION('',(0.,0.,1.));
#732=DIRECTION('',(1.,0.,0.));
#733=DIRECTION('',(0.,0.,1.));
#734=DIRECTION('',(1.,0.,0.));
#735=DIRECTION('',(0.,0.,1.));
#736=DIRECTION('',(1.,0.,0.));
#737=DIRECTION('',(0.,0.,1.));
#738=DIRECTION('',(1.,0.,0.));
#739=DIRECTION('',(0.,0.,1.));
#740=DIRECTION('',(1.,0.,0.));
#741=DIRECTION('',(0.,-1.,0.));
#742=DIRECTION('',(0.,0.,-1.));
#743=DIRECTION('',(1.,0.,0.));
#744=DIRECTION('',(1.,0.,0.));
#745=DIRECTION('',(0.,0.,1.));
#746=DIRECTION('',(1.,0.,0.));
#747=DIRECTION('',(0.,0.,1.));
#748=DIRECTION('',(1.,0.,0.));
#749=DIRECTION('',(0.,0.,1.));
#750=DIRECTION('',(1.,0.,0.));
#751=DIRECTION('',(0.,0.,1.));
#752=DIRECTION('',(1.,0.,0.));
#753=DIRECTION('',(0.,0.,1.));
#754=DIRECTION('',(1.,0.,0.));
#755=DIRECTION('',(0.,0.,1.));
#756=DIRECTION('',(1.,0.,0.));
#757=DIRECTION('',(0.,0.,1.));
#758=DIRECTION('',(1.,0.,0.));
#759=DIRECTION('',(0.,0.,1.));
#760=DIRECTION('',(1.,0.,0.));
#761=DIRECTION('',(0.,0.,1.));
#762=DIRECTION('',(1.,0.,0.));
#763=DIRECTION('',(0.,0.,1.));
#764=DIRECTION('',(1.,0.,0.));
#765=DIRECTION('',(0.,0.,1.));
#766=DIRECTION('',(1.,0.,0.));
#767=DIRECTION('',(0.,0.,1.));
#768=DIRECTION('',(1.,0.,0.));
#769=DIRECTION('',(0.,0.,1.));
#770=DIRECTION('',(1.,0.,0.));
#771=DIRECTION('',(0.,0.,1.));
#772=DIRECTION('',(1.,0.,0.));
#773=DIRECTION('',(0.,0.,1.));
#774=DIRECTION('',(1.,0.,0.));
#775=DIRECTION('',(0.,0.,1.));
#776=DIRECTION('',(1.,0.,0.));
#777=DIRECTION('',(0.,0.,1.));
#778=DIRECTION('',(1.,0.,0.));
#779=DIRECTION('',(0.,0.,1.));
#780=DIRECTION('',(1.,0.,0.));
#781=DIRECTION('',(0.,0.,1.));
#782=DIRECTION('',(1.,0.,0.));
#783=DIRECTION('',(0.,0.,1.));
#784=DIRECTION('',(1.,0.,0.));
#785=DIRECTION('',(0.,0.,1.));
#786=DIRECTION('',(1.,0.,0.));
#787=DIRECTION('',(0.,0.,1.));
#788=DIRECTION('',(1.,0.,0.));
#789=DIRECTION('',(0.,0.,1.));
#790=DIRECTION('',(1.,0.,0.));
#791=DIRECTION('',(0.,0.,1.));
#792=DIRECTION('',(1.,0.,0.));
#793=DIRECTION('',(0.,0.,1.));
#794=DIRECTION('',(1.,0.,0.));
#795=DIRECTION('',(0.,0.,1.));
#796=DIRECTION('',(1.,0.,0.));
#797=DIRECTION('',(0.,0.,1.));
#798=DIRECTION('',(1.,0.,0.));
#799=DIRECTION('',(0.,0.,1.));
#800=DIRECTION('',(1.,0.,0.));
#801=DIRECTION('',(0.,0.,1.));
#802=DIRECTION('',(1.,0.,0.));
#803=DIRECTION('',(0.,0.,1.));
#804=DIRECTION('',(1.,0.,0.));
#805=DIRECTION('',(0.,0.,1.));
#806=DIRECTION('',(1.,0.,0.));
#807=DIRECTION('',(0.,0.,1.));
#808=DIRECTION('',(1.,0.,0.));
#809=DIRECTION('',(0.,0.,1.));
#810=DIRECTION('',(1.,0.,0.));
#811=DIRECTION('',(0.,0.,1.));
#812=DIRECTION('',(1.,0.,0.));
#813=DIRECTION('',(0.,0.,1.));
#814=DIRECTION('',(1.,0.,0.));
#815=DIRECTION('',(0.,0.,1.));
#816=DIRECTION('',(1.,0.,0.));
#817=DIRECTION('',(0.,0.,1.));
#818=DIRECTION('',(1.,0.,0.));
#819=DIRECTION('',(0.,0.,1.));
#820=DIRECTION('',(1.,0.,0.));
#821=DIRECTION('',(0.,0.,1.));
#822=DIRECTION('',(1.,0.,0.));
#823=DIRECTION('',(0.,0.,1.));
#824=DIRECTION('',(1.,0.,0.));
#825=DIRECTION('',(0.,0.,1.));
#826=DIRECTION('',(1.,0.,0.));
#827=DIRECTION('',(0.,0.,1.));
#828=DIRECTION('',(1.,0.,0.));
#829=DIRECTION('',(0.,0.,1.));
#830=DIRECTION('',(1.,0.,0.));
#831=DIRECTION('',(0.,0.,1.));
#832=DIRECTION('',(1.,0.,0.));
#833=DIRECTION('',(0.,0.,-1.));
#834=DIRECTION('',(-1.,0.,0.));
#835=DIRECTION('',(0.,0.,1.));
#836=DIRECTION('',(1.,0.,0.));
#837=DIRECTION('',(0.,0.,1.));
#838=DIRECTION('',(1.,0.,0.));
#839=DIRECTION('',(0.,0.,-1.));
#840=DIRECTION('',(-1.,0.,0.));
#841=DIRECTION('',(0.,0.,1.));
#842=DIRECTION('',(1.,0.,0.));
#843=DIRECTION('',(0.,0.,1.));
#844=DIRECTION('',(1.,0.,0.));
#845=DIRECTION('',(0.,0.,-1.));
#846=DIRECTION('',(-1.,0.,0.));
#847=DIRECTION('',(0.,0.,1.));
#848=DIRECTION('',(1.,0.,0.));
#849=DIRECTION('',(0.,0.,1.));
#850=DIRECTION('',(1.,0.,0.));
#851=DIRECTION('',(0.,0.,-1.));
#852=DIRECTION('',(-1.,0.,0.));
#853=DIRECTION('',(0.,0.,1.));
#854=DIRECTION('',(1.,0.,0.));
#855=DIRECTION('',(0.,0.,1.));
#856=DIRECTION('',(1.,0.,0.));
#857=DIRECTION('',(0.,0.,-1.));
#858=DIRECTION('',(-1.,0.,0.));
#859=DIRECTION('',(0.,0.,1.));
#860=DIRECTION('',(1.,0.,0.));
#861=DIRECTION('',(0.,0.,1.));
#862=DIRECTION('',(1.,0.,0.));
#863=DIRECTION('',(0.,0.,-1.));
#864=DIRECTION('',(-1.,0.,0.));
#865=DIRECTION('',(0.,0.,1.));
#866=DIRECTION('',(1.,0.,0.));
#867=DIRECTION('',(0.,0.,1.));
#868=DIRECTION('',(1.,0.,0.));
#869=DIRECTION('',(0.,0.,-1.));
#870=DIRECTION('',(-1.,0.,0.));
#871=DIRECTION('',(0.,0.,1.));
#872=DIRECTION('',(1.,0.,0.));
#873=DIRECTION('',(0.,0.,1.));
#874=DIRECTION('',(1.,0.,0.));
#875=DIRECTION('',(0.,0.,-1.));
#876=DIRECTION('',(-1.,0.,0.));
#877=DIRECTION('',(0.,0.,1.));
#878=DIRECTION('',(1.,0.,0.));
#879=DIRECTION('',(0.,0.,1.));
#880=DIRECTION('',(1.,0.,0.));
#881=DIRECTION('',(0.,0.,-1.));
#882=DIRECTION('',(-1.,0.,0.));
#883=DIRECTION('',(0.,0.,1.));
#884=DIRECTION('',(1.,0.,0.));
#885=DIRECTION('',(0.,0.,1.));
#886=DIRECTION('',(1.,0.,0.));
#887=DIRECTION('',(0.,0.,-1.));
#888=DIRECTION('',(-1.,0.,0.));
#889=DIRECTION('',(0.,0.,1.));
#890=DIRECTION('',(1.,0.,0.));
#891=DIRECTION('',(0.,0.,1.));
#892=DIRECTION('',(1.,0.,0.));
#893=DIRECTION('',(0.,0.,-1.));
#894=DIRECTION('',(-1.,0.,0.));
#895=DIRECTION('',(0.,0.,1.));
#896=DIRECTION('',(1.,0.,0.));
#897=DIRECTION('',(0.,0.,1.));
#898=DIRECTION('',(1.,0.,0.));
#899=DIRECTION('',(0.,0.,-1.));
#900=DIRECTION('',(-1.,0.,0.));
#901=DIRECTION('',(0.,0.,1.));
#902=DIRECTION('',(1.,0.,0.));
#903=DIRECTION('',(0.,0.,1.));
#904=DIRECTION('',(1.,0.,0.));
#905=CARTESIAN_POINT('',(0.,0.,0.));
#906=CARTESIAN_POINT('',(0.066400051924887,0.0827058460344363,-0.005));
#907=CARTESIAN_POINT('',(0.066400051924887,0.0827058460344363,0.));
#908=CARTESIAN_POINT('',(0.066400051924887,0.101005846034436,0.));
#909=CARTESIAN_POINT('',(0.066400051924887,0.0644058460344363,0.));
#910=CARTESIAN_POINT('',(0.066400051924887,0.101005846034436,-0.005));
#911=CARTESIAN_POINT('',(0.066400051924887,0.101005846034436,-0.005));
#912=CARTESIAN_POINT('',(0.066400051924887,0.0827058460344363,-0.005));
#913=CARTESIAN_POINT('',(0.066400051924887,0.0644058460344363,-0.005));
#914=CARTESIAN_POINT('',(0.066400051924887,0.0644058460344363,-0.005));
#915=CARTESIAN_POINT('',(0.178700051924887,0.0644058460344363,-0.005));
#916=CARTESIAN_POINT('',(0.178700051924887,0.0644058460344363,0.));
#917=CARTESIAN_POINT('',(0.181200051924887,0.0644058460344363,0.));
#918=CARTESIAN_POINT('',(0.178700051924887,0.0644058460344363,-0.005));
#919=CARTESIAN_POINT('',(0.181200051924887,0.0644058460344363,-0.005));
#920=CARTESIAN_POINT('',(0.181200051924887,0.0644058460344363,-0.005));
#921=CARTESIAN_POINT('',(0.181200051924887,0.0827058460344363,-0.005));
#922=CARTESIAN_POINT('',(0.181200051924887,0.0827058460344363,0.));
#923=CARTESIAN_POINT('',(0.181200051924887,0.101005846034436,0.));
#924=CARTESIAN_POINT('',(0.181200051924887,0.0827058460344363,-0.005));
#925=CARTESIAN_POINT('',(0.181200051924887,0.101005846034436,-0.005));
#926=CARTESIAN_POINT('',(0.181200051924887,0.101005846034436,-0.005));
#927=CARTESIAN_POINT('',(0.138600051924887,0.0694058460344364,-0.005));
#928=CARTESIAN_POINT('',(0.138600051924887,0.0694058460344364,-0.005));
#929=CARTESIAN_POINT('',(0.140300051924887,0.0694058460344364,-0.005));
#930=CARTESIAN_POINT('',(0.138600051924887,0.0694058460344364,0.0024));
#931=CARTESIAN_POINT('',(0.140300051924887,0.0694058460344364,0.0024));
#932=CARTESIAN_POINT('',(0.146600051924887,0.0694058460344363,-0.005));
#933=CARTESIAN_POINT('',(0.146600051924887,0.0694058460344363,-0.005));
#934=CARTESIAN_POINT('',(0.148300051924887,0.0694058460344363,-0.005));
#935=CARTESIAN_POINT('',(0.146600051924887,0.0694058460344363,0.0024));
#936=CARTESIAN_POINT('',(0.148300051924887,0.0694058460344363,0.0024));
#937=CARTESIAN_POINT('',(0.126300051924887,0.101005846034436,-0.005));
#938=CARTESIAN_POINT('',(0.126300051924887,0.101005846034436,0.));
#939=CARTESIAN_POINT('',(0.126300051924887,0.101005846034436,-0.005));
#940=CARTESIAN_POINT('',(0.109000051924887,0.0694058460344363,-0.005));
#941=CARTESIAN_POINT('',(0.109000051924887,0.0694058460344363,-0.005));
#942=CARTESIAN_POINT('',(0.110700051924887,0.0694058460344363,-0.005));
#943=CARTESIAN_POINT('',(0.109000051924887,0.0694058460344363,0.0024));
#944=CARTESIAN_POINT('',(0.110700051924887,0.0694058460344363,0.0024));
#945=CARTESIAN_POINT('',(0.071400051924887,0.0694058460344364,-0.005));
#946=CARTESIAN_POINT('',(0.071400051924887,0.0694058460344364,-0.005));
#947=CARTESIAN_POINT('',(0.073100051924887,0.0694058460344364,-0.005));
#948=CARTESIAN_POINT('',(0.071400051924887,0.0694058460344363,0.0024));
#949=CARTESIAN_POINT('',(0.073100051924887,0.0694058460344363,0.0024));
#950=CARTESIAN_POINT('',(0.101000051924887,0.0960058460344363,-0.005));
#951=CARTESIAN_POINT('',(0.101000051924887,0.0960058460344363,-0.005));
#952=CARTESIAN_POINT('',(0.102700051924887,0.0960058460344363,-0.005));
#953=CARTESIAN_POINT('',(0.101000051924887,0.0960058460344363,0.0024));
#954=CARTESIAN_POINT('',(0.102700051924887,0.0960058460344363,0.0024));
#955=CARTESIAN_POINT('',(0.146600051924887,0.0960058460344363,-0.005));
#956=CARTESIAN_POINT('',(0.146600051924887,0.0960058460344363,-0.005));
#957=CARTESIAN_POINT('',(0.148300051924887,0.0960058460344363,-0.005));
#958=CARTESIAN_POINT('',(0.146600051924887,0.0960058460344363,0.0024));
#959=CARTESIAN_POINT('',(0.148300051924887,0.0960058460344363,0.0024));
#960=CARTESIAN_POINT('',(0.101000051924887,0.0694058460344363,-0.005));
#961=CARTESIAN_POINT('',(0.101000051924887,0.0694058460344363,-0.005));
#962=CARTESIAN_POINT('',(0.102700051924887,0.0694058460344363,-0.005));
#963=CARTESIAN_POINT('',(0.101000051924887,0.0694058460344363,0.0024));
#964=CARTESIAN_POINT('',(0.102700051924887,0.0694058460344363,0.0024));
#965=CARTESIAN_POINT('',(0.109000051924887,0.0960058460344363,-0.005));
#966=CARTESIAN_POINT('',(0.109000051924887,0.0960058460344363,-0.005));
#967=CARTESIAN_POINT('',(0.110700051924887,0.0960058460344363,-0.005));
#968=CARTESIAN_POINT('',(0.109000051924887,0.0960058460344364,0.0024));
#969=CARTESIAN_POINT('',(0.110700051924887,0.0960058460344364,0.0024));
#970=CARTESIAN_POINT('',(0.071400051924887,0.0960058460344363,-0.005));
#971=CARTESIAN_POINT('',(0.071400051924887,0.0960058460344363,-0.005));
#972=CARTESIAN_POINT('',(0.073100051924887,0.0960058460344363,-0.005));
#973=CARTESIAN_POINT('',(0.071400051924887,0.0960058460344363,0.0024));
#974=CARTESIAN_POINT('',(0.073100051924887,0.0960058460344363,0.0024));
#975=CARTESIAN_POINT('',(0.176200051924887,0.0960058460344363,-0.005));
#976=CARTESIAN_POINT('',(0.176200051924887,0.0960058460344363,-0.005));
#977=CARTESIAN_POINT('',(0.177900051924887,0.0960058460344363,-0.005));
#978=CARTESIAN_POINT('',(0.176200051924887,0.0960058460344363,0.0024));
#979=CARTESIAN_POINT('',(0.177900051924887,0.0960058460344363,0.0024));
#980=CARTESIAN_POINT('',(0.138600051924887,0.0960058460344363,-0.005));
#981=CARTESIAN_POINT('',(0.138600051924887,0.0960058460344363,-0.005));
#982=CARTESIAN_POINT('',(0.140300051924887,0.0960058460344363,-0.005));
#983=CARTESIAN_POINT('',(0.138600051924887,0.0960058460344363,0.0024));
#984=CARTESIAN_POINT('',(0.140300051924887,0.0960058460344363,0.0024));
#985=CARTESIAN_POINT('',(0.176200051924887,0.0694058460344363,-0.005));
#986=CARTESIAN_POINT('',(0.176200051924887,0.0694058460344363,-0.005));
#987=CARTESIAN_POINT('',(0.177900051924887,0.0694058460344363,-0.005));
#988=CARTESIAN_POINT('',(0.176200051924887,0.0694058460344363,0.0024));
#989=CARTESIAN_POINT('',(0.177900051924887,0.0694058460344363,0.0024));
#990=CARTESIAN_POINT('',(0.123800051924887,0.0827058460344363,-0.005));
#991=CARTESIAN_POINT('',(0.123800051924887,0.0827058460344363,0.));
#992=CARTESIAN_POINT('',(0.146600051924887,0.0960058460344363,0.));
#993=CARTESIAN_POINT('',(0.149600051924887,0.0960058460344363,0.));
#994=CARTESIAN_POINT('',(0.138600051924887,0.0960058460344363,0.));
#995=CARTESIAN_POINT('',(0.141600051924887,0.0960058460344363,0.));
#996=CARTESIAN_POINT('',(0.138600051924887,0.0694058460344364,0.));
#997=CARTESIAN_POINT('',(0.141600051924887,0.0694058460344364,0.));
#998=CARTESIAN_POINT('',(0.109000051924887,0.0694058460344363,0.));
#999=CARTESIAN_POINT('',(0.112000051924887,0.0694058460344363,0.));
#1000=CARTESIAN_POINT('',(0.071400051924887,0.0694058460344363,0.));
#1001=CARTESIAN_POINT('',(0.074400051924887,0.0694058460344363,0.));
#1002=CARTESIAN_POINT('',(0.109000051924887,0.0960058460344363,0.));
#1003=CARTESIAN_POINT('',(0.112000051924887,0.0960058460344363,0.));
#1004=CARTESIAN_POINT('',(0.101000051924887,0.0960058460344363,0.));
#1005=CARTESIAN_POINT('',(0.104000051924887,0.0960058460344363,0.));
#1006=CARTESIAN_POINT('',(0.101000051924887,0.0694058460344363,0.));
#1007=CARTESIAN_POINT('',(0.104000051924887,0.0694058460344363,0.));
#1008=CARTESIAN_POINT('',(0.146600051924887,0.0694058460344363,0.));
#1009=CARTESIAN_POINT('',(0.149600051924887,0.0694058460344363,0.));
#1010=CARTESIAN_POINT('',(0.176200051924887,0.0694058460344363,0.));
#1011=CARTESIAN_POINT('',(0.179200051924887,0.0694058460344363,0.));
#1012=CARTESIAN_POINT('',(0.176200051924887,0.0960058460344363,0.));
#1013=CARTESIAN_POINT('',(0.179200051924887,0.0960058460344363,0.));
#1014=CARTESIAN_POINT('',(0.071400051924887,0.0960058460344364,0.));
#1015=CARTESIAN_POINT('',(0.074400051924887,0.0960058460344364,0.));
#1016=CARTESIAN_POINT('',(0.071400051924887,0.0960058460344364,0.0024));
#1017=CARTESIAN_POINT('',(0.071400051924887,0.0960058460344364,0.0024));
#1018=CARTESIAN_POINT('',(0.074400051924887,0.0960058460344364,0.0024));
#1019=CARTESIAN_POINT('',(0.123800051924887,0.0827058460344363,0.0024));
#1020=CARTESIAN_POINT('',(0.176200051924887,0.0960058460344363,0.0024));
#1021=CARTESIAN_POINT('',(0.176200051924887,0.0960058460344363,0.0024));
#1022=CARTESIAN_POINT('',(0.179200051924887,0.0960058460344363,0.0024));
#1023=CARTESIAN_POINT('',(0.123800051924887,0.0827058460344363,0.0024));
#1024=CARTESIAN_POINT('',(0.176200051924887,0.0694058460344363,0.0024));
#1025=CARTESIAN_POINT('',(0.176200051924887,0.0694058460344363,0.0024));
#1026=CARTESIAN_POINT('',(0.179200051924887,0.0694058460344363,0.0024));
#1027=CARTESIAN_POINT('',(0.123800051924887,0.0827058460344363,0.0024));
#1028=CARTESIAN_POINT('',(0.146600051924887,0.0694058460344363,0.0024));
#1029=CARTESIAN_POINT('',(0.146600051924887,0.0694058460344363,0.0024));
#1030=CARTESIAN_POINT('',(0.149600051924887,0.0694058460344363,0.0024));
#1031=CARTESIAN_POINT('',(0.123800051924887,0.0827058460344363,0.0024));
#1032=CARTESIAN_POINT('',(0.101000051924887,0.0694058460344363,0.0024));
#1033=CARTESIAN_POINT('',(0.101000051924887,0.0694058460344363,0.0024));
#1034=CARTESIAN_POINT('',(0.104000051924887,0.0694058460344363,0.0024));
#1035=CARTESIAN_POINT('',(0.123800051924887,0.0827058460344363,0.0024));
#1036=CARTESIAN_POINT('',(0.101000051924887,0.0960058460344363,0.0024));
#1037=CARTESIAN_POINT('',(0.101000051924887,0.0960058460344363,0.0024));
#1038=CARTESIAN_POINT('',(0.104000051924887,0.0960058460344363,0.0024));
#1039=CARTESIAN_POINT('',(0.123800051924887,0.0827058460344363,0.0024));
#1040=CARTESIAN_POINT('',(0.109000051924887,0.0960058460344363,0.0024));
#1041=CARTESIAN_POINT('',(0.109000051924887,0.0960058460344363,0.0024));
#1042=CARTESIAN_POINT('',(0.112000051924887,0.0960058460344363,0.0024));
#1043=CARTESIAN_POINT('',(0.123800051924887,0.0827058460344363,0.0024));
#1044=CARTESIAN_POINT('',(0.071400051924887,0.0694058460344363,0.0024));
#1045=CARTESIAN_POINT('',(0.071400051924887,0.0694058460344363,0.0024));
#1046=CARTESIAN_POINT('',(0.074400051924887,0.0694058460344363,0.0024));
#1047=CARTESIAN_POINT('',(0.123800051924887,0.0827058460344363,0.0024));
#1048=CARTESIAN_POINT('',(0.109000051924887,0.0694058460344363,0.0024));
#1049=CARTESIAN_POINT('',(0.109000051924887,0.0694058460344363,0.0024));
#1050=CARTESIAN_POINT('',(0.112000051924887,0.0694058460344363,0.0024));
#1051=CARTESIAN_POINT('',(0.123800051924887,0.0827058460344363,0.0024));
#1052=CARTESIAN_POINT('',(0.138600051924887,0.0694058460344364,0.0024));
#1053=CARTESIAN_POINT('',(0.138600051924887,0.0694058460344364,0.0024));
#1054=CARTESIAN_POINT('',(0.141600051924887,0.0694058460344364,0.0024));
#1055=CARTESIAN_POINT('',(0.123800051924887,0.0827058460344363,0.0024));
#1056=CARTESIAN_POINT('',(0.138600051924887,0.0960058460344363,0.0024));
#1057=CARTESIAN_POINT('',(0.138600051924887,0.0960058460344363,0.0024));
#1058=CARTESIAN_POINT('',(0.141600051924887,0.0960058460344363,0.0024));
#1059=CARTESIAN_POINT('',(0.123800051924887,0.0827058460344363,0.0024));
#1060=CARTESIAN_POINT('',(0.146600051924887,0.0960058460344363,0.0024));
#1061=CARTESIAN_POINT('',(0.146600051924887,0.0960058460344363,0.0024));
#1062=CARTESIAN_POINT('',(0.149600051924887,0.0960058460344363,0.0024));
#1063=CARTESIAN_POINT('',(0.123800051924887,0.0827058460344363,0.0024));
#1064=MECHANICAL_DESIGN_GEOMETRIC_PRESENTATION_REPRESENTATION('',(#609),
#1065);
#1065=(
GEOMETRIC_REPRESENTATION_CONTEXT(3)
GLOBAL_UNCERTAINTY_ASSIGNED_CONTEXT((#1066))
GLOBAL_UNIT_ASSIGNED_CONTEXT((#1069,#1068,#1067))
REPRESENTATION_CONTEXT('Part 48','TOP_LEVEL_ASSEMBLY_PART')
);
#1066=UNCERTAINTY_MEASURE_WITH_UNIT(LENGTH_MEASURE(1.E-8),#1069,
'DISTANCE_ACCURACY_VALUE','Maximum Tolerance applied to model');
#1067=(
NAMED_UNIT(*)
SI_UNIT($,.STERADIAN.)
SOLID_ANGLE_UNIT()
);
#1068=(
NAMED_UNIT(*)
PLANE_ANGLE_UNIT()
SI_UNIT($,.RADIAN.)
);
#1069=(
LENGTH_UNIT()
NAMED_UNIT(*)
SI_UNIT($,.METRE.)
);
#1070=PRODUCT_DEFINITION_SHAPE('','',#1071);
#1071=PRODUCT_DEFINITION('','',#1073,#1072);
#1072=PRODUCT_DEFINITION_CONTEXT('',#1079,'design');
#1073=PRODUCT_DEFINITION_FORMATION_WITH_SPECIFIED_SOURCE('','',#1075,
 .NOT_KNOWN.);
#1074=PRODUCT_RELATED_PRODUCT_CATEGORY('','',(#1075));
#1075=PRODUCT('Part 48','Part 48','Part 48',(#1077));
#1076=PRODUCT_CATEGORY('','');
#1077=PRODUCT_CONTEXT('',#1079,'mechanical');
#1078=APPLICATION_PROTOCOL_DEFINITION('international standard',
'ap242_managed_model_based_3d_engineering',2020,#1079);
#1079=APPLICATION_CONTEXT('managed model based 3d engineering');
ENDSEC;
END-ISO-10303-21;
